<svg width="523" height="53" viewBox="0 0 523 53" fill="none" xmlns="http://www.w3.org/2000/svg">
<path d="M43.1051 28.2213C41.6463 29.5889 41.6463 31.8593 43.1051 33.2543L53.8423 43.3204C55.3303 44.7154 57.7228 44.7154 59.2108 43.3204C60.6697 41.9527 60.6697 39.6823 59.2108 38.2873L48.4737 28.2213C47.0148 26.8536 44.5931 26.8536 43.1051 28.2213Z" fill="url(#paint0_linear_712_1042)"/>
<path d="M79.6057 24.2003C81.0937 22.8053 81.0937 20.5623 79.6057 19.1673C78.1468 17.7996 75.7252 17.7996 74.2371 19.1673L59.211 33.2543C57.7229 34.6494 57.9855 34.4032 56.5267 35.7708C53.2005 38.8891 48.6489 38.3968 47.1609 37.0291L53.8424 43.293C55.3012 44.6607 57.7229 44.6607 59.211 43.293L79.6057 24.2003Z" fill="url(#paint1_linear_712_1042)"/>
<path d="M101.138 19.2492C99.6794 17.8815 97.2577 17.8815 95.7697 19.2492L85.0617 29.3153C83.5737 30.7103 83.5737 32.9533 85.0617 34.3483C86.5206 35.716 88.9423 35.716 90.4303 34.3483L101.167 24.2822C102.597 22.8872 102.597 20.6169 101.138 19.2492Z" fill="url(#paint2_linear_712_1042)"/>
<path d="M59.2987 23.2429C60.7576 21.8752 60.7576 19.6049 59.2987 18.2099L48.5616 8.1438C47.0736 6.74878 44.681 6.74878 43.193 8.1438C41.7342 9.51148 41.7342 11.7818 43.193 13.1768L53.9302 23.2429C55.4182 24.6106 57.8107 24.6106 59.2987 23.2429Z" fill="url(#paint3_linear_712_1042)"/>
<path d="M22.7985 27.2909C21.3105 28.6859 21.3105 30.9289 22.7985 32.324C24.2573 33.6916 26.679 33.6916 28.1671 32.324L43.1932 18.2096C44.6813 16.8145 44.4187 17.0607 45.8775 15.693C49.2037 12.5747 53.7553 13.0671 55.2433 14.4348L48.5618 8.17084C47.103 6.80316 44.6813 6.80316 43.1932 8.17084L22.7985 27.2909Z" fill="url(#paint4_linear_712_1042)"/>
<path d="M1.41138 32.2695C2.87024 33.6372 5.29193 33.6372 6.77996 32.2695L17.5171 22.2034C19.0051 20.8084 19.0051 18.5654 17.5171 17.1704C16.0582 15.8027 13.6366 15.8027 12.1485 17.1704L1.41138 27.2365C-0.0474674 28.6315 -0.0474674 30.8745 1.41138 32.2695Z" fill="url(#paint5_linear_712_1042)"/>
<path d="M116.141 11.2625H123.258V36.3839H138.293V42.6996H116.141V11.2625Z" fill="black"/>
<path d="M142.468 11.2625H149.585V42.6996H142.468V11.2625Z" fill="black"/>
<path d="M171.985 25.4021H184.098V39.0233C182.464 40.4373 180.547 41.537 178.348 42.3226C176.18 43.0767 173.697 43.4537 170.901 43.4537C168.324 43.4537 166.015 43.061 163.972 42.2754C161.961 41.4585 160.249 40.3273 158.835 38.8819C157.421 37.4365 156.337 35.7083 155.583 33.6974C154.86 31.6864 154.499 29.4712 154.499 27.0517C154.499 24.6951 154.892 22.5114 155.677 20.5004C156.463 18.4894 157.578 16.7455 159.023 15.2687C160.469 13.7605 162.181 12.5822 164.161 11.7338C166.14 10.8854 168.34 10.4612 170.759 10.4612C173.619 10.4612 176.117 10.9954 178.253 12.0637C180.421 13.1006 182.212 14.5617 183.626 16.447L178.819 21.0188C177.813 19.8248 176.698 18.8508 175.473 18.0966C174.279 17.3425 172.802 16.9655 171.042 16.9655C169.597 16.9655 168.308 17.2326 167.177 17.7667C166.046 18.3009 165.088 19.0236 164.302 19.9348C163.517 20.846 162.92 21.9143 162.511 23.1398C162.103 24.3652 161.899 25.6692 161.899 27.0517C161.899 28.56 162.134 29.9268 162.605 31.1522C163.077 32.3777 163.737 33.4303 164.585 34.3101C165.433 35.1585 166.423 35.8183 167.554 36.2896C168.717 36.761 169.974 36.9966 171.325 36.9966C172.582 36.9966 173.729 36.8552 174.766 36.5724C175.802 36.2582 176.729 35.7712 177.546 35.1113V31.1522H171.985V25.4021Z" fill="black"/>
<path d="M189.785 11.2625H196.901V23.3283H210.523V11.2625H217.64V42.6996H210.523V29.7854H196.901V42.6996H189.785V11.2625Z" fill="black"/>
<path d="M231.86 17.5311H221.679V11.2625H249.157V17.5311H239.024V42.6996H231.86V17.5311Z" fill="black"/>
<path d="M253.21 11.2625H260.327V36.3839H275.362V42.6996H253.21V11.2625Z" fill="black"/>
<path d="M279.538 11.2625H286.655V42.6996H279.538V11.2625Z" fill="black"/>
<path d="M292.794 11.2625H299.581L313.202 31.6707V11.2625H320.225V42.6996H313.768L299.817 21.9143V42.6996H292.794V11.2625Z" fill="black"/>
<path d="M326.348 11.2625H333.465V23.7996L343.975 11.2625H352.224L341.43 23.5168L353.685 42.6996H345.059L336.67 28.9842L333.465 32.5662V42.6996H326.348V11.2625Z" fill="black"/>
<path d="M356.951 35.2056H364.633V42.6996H356.951V35.2056Z" fill="#6A81FF"/>
<g filter="url(#filter0_d_712_1042)">
<path d="M425.414 12.4944C428.324 12.4944 430.844 12.9894 432.974 13.9794C435.104 14.9694 436.724 16.3944 437.834 18.2544C438.974 20.1144 439.544 22.3194 439.544 24.8694C439.544 26.0394 439.439 27.1644 439.229 28.2444C438.659 31.4244 437.489 34.1844 435.719 36.5244C433.949 38.8644 431.699 40.6644 428.969 41.9244C426.239 43.1544 423.209 43.7694 419.879 43.7694H409.664L415.199 12.4944H425.414ZM420.599 39.8544C424.229 39.8544 427.199 38.8194 429.509 36.7494C431.849 34.6794 433.334 31.8444 433.964 28.2444C434.144 27.1944 434.234 26.2194 434.234 25.3194C434.234 22.5594 433.424 20.4294 431.804 18.9294C430.184 17.3994 427.814 16.6344 424.694 16.6344H419.609L415.514 39.8544H420.599ZM452.413 44.1744C450.313 44.1744 448.468 43.7394 446.878 42.8694C445.288 41.9994 444.043 40.7694 443.143 39.1794C442.273 37.5894 441.838 35.7744 441.838 33.7344C441.838 30.9444 442.483 28.3944 443.773 26.0844C445.093 23.7744 446.893 21.9444 449.173 20.5944C451.483 19.2444 454.048 18.5694 456.868 18.5694C458.968 18.5694 460.828 19.0194 462.448 19.9194C464.068 20.7894 465.328 22.0194 466.228 23.6094C467.158 25.1694 467.623 26.9844 467.623 29.0544C467.623 31.8444 466.948 34.3944 465.598 36.7044C464.248 39.0144 462.418 40.8444 460.108 42.1944C457.798 43.5144 455.233 44.1744 452.413 44.1744ZM453.043 39.8544C454.753 39.8544 456.313 39.3744 457.723 38.4144C459.163 37.4244 460.288 36.1344 461.098 34.5444C461.908 32.9244 462.313 31.1994 462.313 29.3694C462.313 27.2994 461.728 25.7094 460.558 24.5994C459.388 23.4594 457.918 22.8894 456.148 22.8894C454.408 22.8894 452.848 23.3844 451.468 24.3744C450.118 25.3344 449.053 26.6394 448.273 28.2894C447.523 29.9094 447.148 31.6494 447.148 33.5094C447.148 35.5194 447.688 37.0794 448.768 38.1894C449.878 39.2994 451.303 39.8544 453.043 39.8544ZM470.759 31.3494C471.209 28.7994 472.109 26.5644 473.459 24.6444C474.839 22.6944 476.534 21.1944 478.544 20.1444C480.584 19.0944 482.789 18.5694 485.159 18.5694C488.159 18.5694 490.514 19.2894 492.224 20.7294C493.934 22.1394 494.909 24.1644 495.149 26.8044H489.614C489.374 25.5744 488.819 24.6144 487.949 23.9244C487.079 23.2344 485.894 22.8894 484.394 22.8894C482.294 22.8894 480.494 23.6394 478.994 25.1394C477.494 26.6094 476.504 28.6794 476.024 31.3494C475.874 32.3094 475.799 33.0894 475.799 33.6894C475.799 35.6694 476.294 37.1994 477.284 38.2794C478.274 39.3294 479.654 39.8544 481.424 39.8544C484.394 39.8544 486.584 38.5494 487.994 35.9394H493.529C492.359 38.4594 490.649 40.4694 488.399 41.9694C486.179 43.4394 483.599 44.1744 480.659 44.1744C477.539 44.1744 475.064 43.2894 473.234 41.5194C471.404 39.7194 470.489 37.2894 470.489 34.2294C470.489 33.2994 470.579 32.3394 470.759 31.3494ZM506.382 44.1744C504.672 44.1744 503.112 43.8894 501.702 43.3194C500.292 42.7194 499.182 41.8944 498.372 40.8444C497.562 39.7644 497.157 38.5344 497.157 37.1544C497.157 36.9144 497.187 36.5844 497.247 36.1644H502.242C502.122 37.3044 502.467 38.2494 503.277 38.9994C504.087 39.7494 505.227 40.1244 506.697 40.1244C508.137 40.1244 509.322 39.8694 510.252 39.3594C511.182 38.8494 511.647 38.0994 511.647 37.1094C511.647 36.2694 511.257 35.5944 510.477 35.0844C509.727 34.5744 508.512 34.0044 506.832 33.3744C505.242 32.7444 503.952 32.1594 502.962 31.6194C501.972 31.0794 501.117 30.3444 500.397 29.4144C499.677 28.4544 499.317 27.2694 499.317 25.8594C499.317 24.4194 499.722 23.1594 500.532 22.0794C501.372 20.9694 502.527 20.1144 503.997 19.5144C505.497 18.8844 507.207 18.5694 509.127 18.5694C510.867 18.5694 512.412 18.8694 513.762 19.4694C515.142 20.0394 516.207 20.8644 516.957 21.9444C517.737 22.9944 518.127 24.2094 518.127 25.5894C518.127 26.0094 518.112 26.3244 518.082 26.5344H513.222C513.342 25.3644 512.997 24.4194 512.187 23.6994C511.407 22.9794 510.282 22.6194 508.812 22.6194C507.522 22.6194 506.472 22.8894 505.662 23.4294C504.882 23.9694 504.492 24.7044 504.492 25.6344C504.492 26.5644 504.897 27.3144 505.707 27.8844C506.517 28.4244 507.762 29.0244 509.442 29.6844C510.972 30.2844 512.217 30.8544 513.177 31.3944C514.137 31.9344 514.962 32.6544 515.652 33.5544C516.342 34.4544 516.687 35.5794 516.687 36.9294C516.687 38.3994 516.237 39.6894 515.337 40.7994C514.467 41.8794 513.252 42.7194 511.692 43.3194C510.132 43.8894 508.362 44.1744 506.382 44.1744Z" fill="black"/>
</g>
<g filter="url(#filter1_d_712_1042)">
<path d="M391.337 11.6284L378.177 43.4644H373.557L386.689 11.6284H391.337ZM404.024 11.6284L390.864 43.4644H386.244L399.376 11.6284H404.024Z" fill="black"/>
</g>
<defs>
<filter id="filter0_d_712_1042" x="405.664" y="12.4944" width="116.463" height="39.68" filterUnits="userSpaceOnUse" color-interpolation-filters="sRGB">
<feFlood flood-opacity="0" result="BackgroundImageFix"/>
<feColorMatrix in="SourceAlpha" type="matrix" values="0 0 0 0 0 0 0 0 0 0 0 0 0 0 0 0 0 0 127 0" result="hardAlpha"/>
<feOffset dy="4"/>
<feGaussianBlur stdDeviation="2"/>
<feComposite in2="hardAlpha" operator="out"/>
<feColorMatrix type="matrix" values="0 0 0 0 0 0 0 0 0 0 0 0 0 0 0 0 0 0 0.25 0"/>
<feBlend mode="normal" in2="BackgroundImageFix" result="effect1_dropShadow_712_1042"/>
<feBlend mode="normal" in="SourceGraphic" in2="effect1_dropShadow_712_1042" result="shape"/>
</filter>
<filter id="filter1_d_712_1042" x="369.557" y="11.6284" width="38.4675" height="39.836" filterUnits="userSpaceOnUse" color-interpolation-filters="sRGB">
<feFlood flood-opacity="0" result="BackgroundImageFix"/>
<feColorMatrix in="SourceAlpha" type="matrix" values="0 0 0 0 0 0 0 0 0 0 0 0 0 0 0 0 0 0 127 0" result="hardAlpha"/>
<feOffset dy="4"/>
<feGaussianBlur stdDeviation="2"/>
<feComposite in2="hardAlpha" operator="out"/>
<feColorMatrix type="matrix" values="0 0 0 0 0 0 0 0 0 0 0 0 0 0 0 0 0 0 0.25 0"/>
<feBlend mode="normal" in2="BackgroundImageFix" result="effect1_dropShadow_712_1042"/>
<feBlend mode="normal" in="SourceGraphic" in2="effect1_dropShadow_712_1042" result="shape"/>
</filter>
<linearGradient id="paint0_linear_712_1042" x1="33.0095" y1="18.9578" x2="59.1221" y2="46.4816" gradientUnits="userSpaceOnUse">
<stop offset="0.1173" stop-color="#6978FF"/>
<stop offset="0.1876" stop-color="#6087FF"/>
<stop offset="0.3484" stop-color="#4DA5FF"/>
<stop offset="0.5073" stop-color="#40BAFF"/>
<stop offset="0.6622" stop-color="#39C7FF"/>
<stop offset="0.8083" stop-color="#36CBFF"/>
<stop offset="1" stop-color="#67FFFC"/>
</linearGradient>
<linearGradient id="paint1_linear_712_1042" x1="27.0343" y1="65.6543" x2="104.249" y2="-19.0091" gradientUnits="userSpaceOnUse">
<stop offset="0.386" stop-color="#6978FF"/>
<stop offset="0.4432" stop-color="#6284FF"/>
<stop offset="0.6461" stop-color="#4AABFF"/>
<stop offset="0.8086" stop-color="#3BC2FF"/>
<stop offset="0.9094" stop-color="#36CBFF"/>
<stop offset="1" stop-color="#67FFFC"/>
</linearGradient>
<linearGradient id="paint2_linear_712_1042" x1="99.174" y1="21.4848" x2="38.6253" y2="81.4446" gradientUnits="userSpaceOnUse">
<stop offset="0.0470588" stop-color="#6978FF"/>
<stop offset="0.1245" stop-color="#6087FF"/>
<stop offset="0.3016" stop-color="#4DA5FF"/>
<stop offset="0.4767" stop-color="#40BAFF"/>
<stop offset="0.6473" stop-color="#39C7FF"/>
<stop offset="0.8083" stop-color="#36CBFF"/>
<stop offset="1" stop-color="#67FFFC"/>
</linearGradient>
<linearGradient id="paint3_linear_712_1042" x1="47.0627" y1="10.4696" x2="56.118" y2="23.3483" gradientUnits="userSpaceOnUse">
<stop offset="0.1173" stop-color="#6978FF"/>
<stop offset="0.1876" stop-color="#6087FF"/>
<stop offset="0.3484" stop-color="#4DA5FF"/>
<stop offset="0.5073" stop-color="#40BAFF"/>
<stop offset="0.6622" stop-color="#39C7FF"/>
<stop offset="0.8083" stop-color="#36CBFF"/>
<stop offset="1" stop-color="#67FFFC"/>
</linearGradient>
<linearGradient id="paint4_linear_712_1042" x1="9.98849" y1="52.8731" x2="46.2964" y2="7.31021" gradientUnits="userSpaceOnUse">
<stop offset="0.3128" stop-color="#6978FF"/>
<stop offset="0.3633" stop-color="#6087FF"/>
<stop offset="0.4785" stop-color="#4DA5FF"/>
<stop offset="0.5925" stop-color="#40BAFF"/>
<stop offset="0.7035" stop-color="#39C7FF"/>
<stop offset="0.8083" stop-color="#36CBFF"/>
<stop offset="1" stop-color="#67FFFC"/>
</linearGradient>
<linearGradient id="paint5_linear_712_1042" x1="48.0201" y1="-16.71" x2="9.04081" y2="30.9525" gradientUnits="userSpaceOnUse">
<stop offset="0.00761283" stop-color="#6978FF"/>
<stop offset="0.0891092" stop-color="#6087FF"/>
<stop offset="0.2754" stop-color="#4DA5FF"/>
<stop offset="0.4596" stop-color="#40BAFF"/>
<stop offset="0.639" stop-color="#39C7FF"/>
<stop offset="0.8083" stop-color="#36CBFF"/>
<stop offset="1" stop-color="#67FFFC"/>
</linearGradient>
</defs>
</svg>
