<svg width="496" height="52" viewBox="0 0 496 52" fill="none" xmlns="http://www.w3.org/2000/svg">
<path d="M43.1051 28.7343C41.6463 30.102 41.6463 32.3723 43.1051 33.7674L53.8423 43.8334C55.3303 45.2285 57.7228 45.2285 59.2108 43.8334C60.6697 42.4658 60.6697 40.1954 59.2108 38.8004L48.4737 28.7343C47.0148 27.3666 44.5931 27.3666 43.1051 28.7343Z" fill="url(#paint0_linear_712_1042)"/>
<path d="M79.6057 24.7134C81.0937 23.3184 81.0937 21.0754 79.6057 19.6804C78.1468 18.3127 75.7252 18.3127 74.2371 19.6804L59.211 33.7674C57.7229 35.1624 57.9855 34.9162 56.5267 36.2839C53.2005 39.4022 48.6489 38.9099 47.1609 37.5422L53.8424 43.8061C55.3012 45.1738 57.7229 45.1738 59.211 43.8061L79.6057 24.7134Z" fill="url(#paint1_linear_712_1042)"/>
<path d="M101.138 19.7623C99.6794 18.3946 97.2577 18.3946 95.7697 19.7623L85.0617 29.8283C83.5737 31.2234 83.5737 33.4664 85.0617 34.8614C86.5206 36.2291 88.9423 36.2291 90.4303 34.8614L101.167 24.7953C102.597 23.4003 102.597 21.1299 101.138 19.7623Z" fill="url(#paint2_linear_712_1042)"/>
<path d="M59.2987 23.756C60.7576 22.3883 60.7576 20.118 59.2987 18.7229L48.5616 8.65687C47.0736 7.26184 44.681 7.26184 43.193 8.65687C41.7342 10.0245 41.7342 12.2949 43.193 13.6899L53.9302 23.756C55.4182 25.1236 57.8107 25.1236 59.2987 23.756Z" fill="url(#paint3_linear_712_1042)"/>
<path d="M22.7985 27.804C21.3105 29.199 21.3105 31.442 22.7985 32.837C24.2573 34.2047 26.679 34.2047 28.1671 32.837L43.1932 18.7226C44.6813 17.3276 44.4187 17.5738 45.8775 16.2061C49.2037 13.0878 53.7553 13.5802 55.2433 14.9478L48.5618 8.6839C47.103 7.31622 44.6813 7.31622 43.1932 8.6839L22.7985 27.804Z" fill="url(#paint4_linear_712_1042)"/>
<path d="M1.41138 32.7826C2.87024 34.1503 5.29193 34.1503 6.77996 32.7826L17.5171 22.7165C19.0051 21.3215 19.0051 19.0785 17.5171 17.6835C16.0582 16.3158 13.6366 16.3158 12.1485 17.6835L1.41138 27.7495C-0.0474674 29.1446 -0.0474674 31.3876 1.41138 32.7826Z" fill="url(#paint5_linear_712_1042)"/>
<path d="M116.141 11.7755H123.258V36.897H138.293V43.2127H116.141V11.7755Z" fill="white"/>
<path d="M142.468 11.7755H149.585V43.2127H142.468V11.7755Z" fill="white"/>
<path d="M171.985 25.9152H184.098V39.5364C182.464 40.9503 180.547 42.0501 178.348 42.8356C176.18 43.5897 173.697 43.9668 170.901 43.9668C168.324 43.9668 166.015 43.574 163.972 42.7885C161.961 41.9715 160.249 40.8404 158.835 39.395C157.421 37.9496 156.337 36.2214 155.583 34.2104C154.86 32.1995 154.499 29.9843 154.499 27.5648C154.499 25.2082 154.892 23.0244 155.677 21.0134C156.463 19.0025 157.578 17.2586 159.023 15.7818C160.469 14.2736 162.181 13.0952 164.161 12.2469C166.14 11.3985 168.34 10.9743 170.759 10.9743C173.619 10.9743 176.117 11.5085 178.253 12.5768C180.421 13.6137 182.212 15.0748 183.626 16.9601L178.819 21.5319C177.813 20.3379 176.698 19.3638 175.473 18.6097C174.279 17.8556 172.802 17.4785 171.042 17.4785C169.597 17.4785 168.308 17.7456 167.177 18.2798C166.046 18.8139 165.088 19.5366 164.302 20.4479C163.517 21.3591 162.92 22.4274 162.511 23.6528C162.103 24.8783 161.899 26.1823 161.899 27.5648C161.899 29.073 162.134 30.4399 162.605 31.6653C163.077 32.8907 163.737 33.9434 164.585 34.8232C165.433 35.6715 166.423 36.3314 167.554 36.8027C168.717 37.274 169.974 37.5097 171.325 37.5097C172.582 37.5097 173.729 37.3683 174.766 37.0855C175.802 36.7713 176.729 36.2842 177.546 35.6244V31.6653H171.985V25.9152Z" fill="white"/>
<path d="M189.785 11.7755H196.901V23.8414H210.523V11.7755H217.64V43.2127H210.523V30.2985H196.901V43.2127H189.785V11.7755Z" fill="white"/>
<path d="M231.86 18.0441H221.679V11.7755H249.157V18.0441H239.024V43.2127H231.86V18.0441Z" fill="white"/>
<path d="M253.21 11.7755H260.327V36.897H275.362V43.2127H253.21V11.7755Z" fill="white"/>
<path d="M279.538 11.7755H286.655V43.2127H279.538V11.7755Z" fill="white"/>
<path d="M292.794 11.7755H299.581L313.202 32.1838V11.7755H320.225V43.2127H313.768L299.817 22.4274V43.2127H292.794V11.7755Z" fill="white"/>
<path d="M326.348 11.7755H333.465V24.3127L343.975 11.7755H352.224L341.43 24.0299L353.685 43.2127H345.059L336.67 29.4972L333.465 33.0793V43.2127H326.348V11.7755Z" fill="white"/>
<path d="M356.951 35.7187H364.633V43.2127H356.951V35.7187Z" fill="#6A81FF"/>
<g filter="url(#filter0_d_712_1042)">
<path d="M385.714 11.8482C389.014 11.8482 391.909 12.4932 394.399 13.7832C396.919 15.0732 398.854 16.9182 400.204 19.3182C401.584 21.6882 402.274 24.4482 402.274 27.5982C402.274 30.7482 401.584 33.5082 400.204 35.8782C398.854 38.2182 396.919 40.0332 394.399 41.3232C391.909 42.6132 389.014 43.2582 385.714 43.2582H374.734V11.8482H385.714ZM385.489 37.9032C388.789 37.9032 391.339 37.0032 393.139 35.2032C394.939 33.4032 395.839 30.8682 395.839 27.5982C395.839 24.3282 394.939 21.7782 393.139 19.9482C391.339 18.0882 388.789 17.1582 385.489 17.1582H381.034V37.9032H385.489ZM418.06 43.6632C415.66 43.6632 413.5 43.1382 411.58 42.0882C409.66 41.0082 408.145 39.4932 407.035 37.5432C405.955 35.5932 405.415 33.3432 405.415 30.7932C405.415 28.2432 405.97 25.9932 407.08 24.0432C408.22 22.0932 409.765 20.5932 411.715 19.5432C413.665 18.4632 415.84 17.9232 418.24 17.9232C420.64 17.9232 422.815 18.4632 424.765 19.5432C426.715 20.5932 428.245 22.0932 429.355 24.0432C430.495 25.9932 431.065 28.2432 431.065 30.7932C431.065 33.3432 430.48 35.5932 429.31 37.5432C428.17 39.4932 426.61 41.0082 424.63 42.0882C422.68 43.1382 420.49 43.6632 418.06 43.6632ZM418.06 38.1732C419.2 38.1732 420.265 37.9032 421.255 37.3632C422.275 36.7932 423.085 35.9532 423.685 34.8432C424.285 33.7332 424.585 32.3832 424.585 30.7932C424.585 28.4232 423.955 26.6082 422.695 25.3482C421.465 24.0582 419.95 23.4132 418.15 23.4132C416.35 23.4132 414.835 24.0582 413.605 25.3482C412.405 26.6082 411.805 28.4232 411.805 30.7932C411.805 33.1632 412.39 34.9932 413.56 36.2832C414.76 37.5432 416.26 38.1732 418.06 38.1732ZM434.066 30.7932C434.066 28.2132 434.591 25.9632 435.641 24.0432C436.691 22.0932 438.146 20.5932 440.006 19.5432C441.866 18.4632 443.996 17.9232 446.396 17.9232C449.486 17.9232 452.036 18.7032 454.046 20.2632C456.086 21.7932 457.451 23.9532 458.141 26.7432H451.346C450.986 25.6632 450.371 24.8232 449.501 24.2232C448.661 23.5932 447.611 23.2782 446.351 23.2782C444.551 23.2782 443.126 23.9382 442.076 25.2582C441.026 26.5482 440.501 28.3932 440.501 30.7932C440.501 33.1632 441.026 35.0082 442.076 36.3282C443.126 37.6182 444.551 38.2632 446.351 38.2632C448.901 38.2632 450.566 37.1232 451.346 34.8432H458.141C457.451 37.5432 456.086 39.6882 454.046 41.2782C452.006 42.8682 449.456 43.6632 446.396 43.6632C443.996 43.6632 441.866 43.1382 440.006 42.0882C438.146 41.0082 436.691 39.5082 435.641 37.5882C434.591 35.6382 434.066 33.3732 434.066 30.7932ZM472.296 43.6632C470.256 43.6632 468.426 43.3032 466.806 42.5832C465.186 41.8332 463.896 40.8282 462.936 39.5682C462.006 38.3082 461.496 36.9132 461.406 35.3832H467.751C467.871 36.3432 468.336 37.1382 469.146 37.7682C469.986 38.3982 471.021 38.7132 472.251 38.7132C473.451 38.7132 474.381 38.4732 475.041 37.9932C475.731 37.5132 476.076 36.8982 476.076 36.1482C476.076 35.3382 475.656 34.7382 474.816 34.3482C474.006 33.9282 472.701 33.4782 470.901 32.9982C469.041 32.5482 467.511 32.0832 466.311 31.6032C465.141 31.1232 464.121 30.3882 463.251 29.3982C462.411 28.4082 461.991 27.0732 461.991 25.3932C461.991 24.0132 462.381 22.7532 463.161 21.6132C463.971 20.4732 465.111 19.5732 466.581 18.9132C468.081 18.2532 469.836 17.9232 471.846 17.9232C474.816 17.9232 477.186 18.6732 478.956 20.1732C480.726 21.6432 481.701 23.6382 481.881 26.1582H475.851C475.761 25.1682 475.341 24.3882 474.591 23.8182C473.871 23.2182 472.896 22.9182 471.666 22.9182C470.526 22.9182 469.641 23.1282 469.011 23.5482C468.411 23.9682 468.111 24.5532 468.111 25.3032C468.111 26.1432 468.531 26.7882 469.371 27.2382C470.211 27.6582 471.516 28.0932 473.286 28.5432C475.086 28.9932 476.571 29.4582 477.741 29.9382C478.911 30.4182 479.916 31.1682 480.756 32.1882C481.626 33.1782 482.076 34.4982 482.106 36.1482C482.106 37.5882 481.701 38.8782 480.891 40.0182C480.111 41.1582 478.971 42.0582 477.471 42.7182C476.001 43.3482 474.276 43.6632 472.296 43.6632Z" fill="white"/>
</g>
<defs>
<filter id="filter0_d_712_1042" x="370.734" y="11.8482" width="115.372" height="39.8149" filterUnits="userSpaceOnUse" color-interpolation-filters="sRGB">
<feFlood flood-opacity="0" result="BackgroundImageFix"/>
<feColorMatrix in="SourceAlpha" type="matrix" values="0 0 0 0 0 0 0 0 0 0 0 0 0 0 0 0 0 0 127 0" result="hardAlpha"/>
<feOffset dy="4"/>
<feGaussianBlur stdDeviation="2"/>
<feComposite in2="hardAlpha" operator="out"/>
<feColorMatrix type="matrix" values="0 0 0 0 0 0 0 0 0 0 0 0 0 0 0 0 0 0 0.25 0"/>
<feBlend mode="normal" in2="BackgroundImageFix" result="effect1_dropShadow_712_1042"/>
<feBlend mode="normal" in="SourceGraphic" in2="effect1_dropShadow_712_1042" result="shape"/>
</filter>
<linearGradient id="paint0_linear_712_1042" x1="33.0095" y1="19.4708" x2="59.1221" y2="46.9947" gradientUnits="userSpaceOnUse">
<stop offset="0.1173" stop-color="#6978FF"/>
<stop offset="0.1876" stop-color="#6087FF"/>
<stop offset="0.3484" stop-color="#4DA5FF"/>
<stop offset="0.5073" stop-color="#40BAFF"/>
<stop offset="0.6622" stop-color="#39C7FF"/>
<stop offset="0.8083" stop-color="#36CBFF"/>
<stop offset="1" stop-color="#67FFFC"/>
</linearGradient>
<linearGradient id="paint1_linear_712_1042" x1="27.0343" y1="66.1673" x2="104.249" y2="-18.4961" gradientUnits="userSpaceOnUse">
<stop offset="0.386" stop-color="#6978FF"/>
<stop offset="0.4432" stop-color="#6284FF"/>
<stop offset="0.6461" stop-color="#4AABFF"/>
<stop offset="0.8086" stop-color="#3BC2FF"/>
<stop offset="0.9094" stop-color="#36CBFF"/>
<stop offset="1" stop-color="#67FFFC"/>
</linearGradient>
<linearGradient id="paint2_linear_712_1042" x1="99.174" y1="21.9979" x2="38.6253" y2="81.9576" gradientUnits="userSpaceOnUse">
<stop offset="0.0470588" stop-color="#6978FF"/>
<stop offset="0.1245" stop-color="#6087FF"/>
<stop offset="0.3016" stop-color="#4DA5FF"/>
<stop offset="0.4767" stop-color="#40BAFF"/>
<stop offset="0.6473" stop-color="#39C7FF"/>
<stop offset="0.8083" stop-color="#36CBFF"/>
<stop offset="1" stop-color="#67FFFC"/>
</linearGradient>
<linearGradient id="paint3_linear_712_1042" x1="47.0627" y1="10.9826" x2="56.118" y2="23.8614" gradientUnits="userSpaceOnUse">
<stop offset="0.1173" stop-color="#6978FF"/>
<stop offset="0.1876" stop-color="#6087FF"/>
<stop offset="0.3484" stop-color="#4DA5FF"/>
<stop offset="0.5073" stop-color="#40BAFF"/>
<stop offset="0.6622" stop-color="#39C7FF"/>
<stop offset="0.8083" stop-color="#36CBFF"/>
<stop offset="1" stop-color="#67FFFC"/>
</linearGradient>
<linearGradient id="paint4_linear_712_1042" x1="9.98849" y1="53.3861" x2="46.2964" y2="7.82327" gradientUnits="userSpaceOnUse">
<stop offset="0.3128" stop-color="#6978FF"/>
<stop offset="0.3633" stop-color="#6087FF"/>
<stop offset="0.4785" stop-color="#4DA5FF"/>
<stop offset="0.5925" stop-color="#40BAFF"/>
<stop offset="0.7035" stop-color="#39C7FF"/>
<stop offset="0.8083" stop-color="#36CBFF"/>
<stop offset="1" stop-color="#67FFFC"/>
</linearGradient>
<linearGradient id="paint5_linear_712_1042" x1="48.0201" y1="-16.197" x2="9.04081" y2="31.4656" gradientUnits="userSpaceOnUse">
<stop offset="0.00761283" stop-color="#6978FF"/>
<stop offset="0.0891092" stop-color="#6087FF"/>
<stop offset="0.2754" stop-color="#4DA5FF"/>
<stop offset="0.4596" stop-color="#40BAFF"/>
<stop offset="0.639" stop-color="#39C7FF"/>
<stop offset="0.8083" stop-color="#36CBFF"/>
<stop offset="1" stop-color="#67FFFC"/>
</linearGradient>
</defs>
</svg>
