<svg width="1584" height="269" viewBox="0 0 1584 269" fill="none" xmlns="http://www.w3.org/2000/svg">
<g clip-path="url(#clip0_417_799)">
<rect width="1584" height="268.213" fill="black"/>
<path d="M1528.73 -93.1951C1503.17 -108.351 1470.95 -101.044 1457.31 -76.9949L1359.73 99.3549C1346.21 123.795 1356.3 155.87 1382.37 171.33C1407.92 186.486 1440.14 179.178 1453.79 155.13L1551.36 -21.2203C1564.5 -45.572 1554.41 -77.6478 1528.73 -93.1951Z" fill="url(#paint0_linear_417_799)"/>
<path d="M1734.94 386.816C1760.86 402.201 1792.51 395.015 1805.96 370.693C1819.14 346.847 1808.99 314.536 1783.45 299.063L1521.3 143.793C1495.38 128.408 1499.96 131.123 1474.54 116.04C1416.6 81.6498 1404.47 19.3433 1417.53 -4.89179L1357.15 104.322C1343.97 128.168 1354.12 160.479 1379.66 175.951L1734.94 386.816Z" fill="url(#paint1_linear_417_799)"/>
<g filter="url(#filter0_f_417_799)">
<path d="M579.687 147.452C547.998 125.237 497.469 123.541 466.305 143.646C435.751 163.357 436.178 197.795 467.251 219.989L787.865 444.341C819.554 466.556 813.962 462.636 845.03 484.416C915.864 534.073 905.575 598.427 875.027 618.553L1014.96 528.276C1045.51 508.564 1045.09 474.127 1014.01 451.932L579.687 147.452Z" fill="url(#paint2_linear_417_799)"/>
</g>
<path d="M-83.6474 -2.60309C-69.4779 -23.8415 -41.7745 -27.5092 -22.2327 -10.7338L153.416 142.54C173.008 159.696 177.14 190.903 162.687 212.567C148.517 233.805 120.814 237.473 101.272 220.697L-74.3765 67.4238C-93.5845 50.6042 -97.7665 19.0159 -83.6474 -2.60309Z" fill="url(#paint3_linear_417_799)"/>
<path d="M-34.7207 509.391C-49.1736 531.054 -76.5431 534.678 -96.1353 517.522C-115.343 500.702 -119.525 469.114 -105.406 447.495L40.5397 228.739C54.9925 207.076 52.4419 210.899 66.6113 189.66C98.9178 141.237 85.0499 82.6615 65.7915 65.4613L153.764 142.495C172.972 159.314 177.154 190.903 163.035 212.522L-34.7207 509.391Z" fill="url(#paint4_linear_417_799)"/>
<g filter="url(#filter1_f_417_799)">
<circle cx="187.539" cy="187.539" r="187.539" transform="matrix(-1 0 0 1 224.077 -283)" fill="#3BC4FF"/>
</g>
<g filter="url(#filter2_f_417_799)">
<circle cx="214.5" cy="214.5" r="214.5" transform="matrix(-1 0 0 1 1737 109)" fill="#6A7AFF"/>
</g>
<path d="M617.479 167.419L626.458 107.771H665.453L663.739 119.256H637.961L636.039 131.76H658.779L657.073 143.43H634.332L632.41 155.934H658.188L656.474 167.419H617.479Z" fill="white"/>
<path d="M662.856 167.419L671.834 107.771H685.052L677.786 155.934H702.743L701.03 167.419H662.856Z" fill="white"/>
<path d="M706.228 167.419L715.207 107.771H754.202L752.488 119.256H726.711L724.788 131.76H747.528L745.822 143.43H723.081L721.159 155.934H746.937L745.223 167.419H706.228Z" fill="white"/>
<path d="M751.605 167.419L760.583 107.771H773.801L770.299 130.926L792.027 107.771H807.132L784.544 132.13L799.303 167.419H785.183L774.961 141.67L767.526 149.358L764.822 167.419H751.605Z" fill="white"/>
<path d="M815.466 167.419L822.731 119.256H807.217L808.93 107.771H853.179L851.466 119.256H835.949L828.684 167.419H815.466Z" fill="white"/>
<path d="M849.254 167.419L858.233 107.771H884.666C888.168 107.771 891.156 108.636 893.628 110.364C896.151 112.032 897.963 114.409 899.06 117.496C900.212 120.522 900.451 124.103 899.783 128.24C899.219 132.254 897.788 135.773 895.491 138.799C893.248 141.825 890.456 144.078 887.119 145.56C887.745 146.239 888.21 147.011 888.516 147.876C888.876 148.678 889.219 149.821 889.546 151.303L893.421 167.419H879.628L875.951 152.229C875.626 150.809 875.126 149.852 874.45 149.358C873.83 148.802 872.805 148.524 871.384 148.524H865.309L862.469 167.419H849.254ZM867.023 137.039H876.791C879.362 137.039 881.472 136.329 883.117 134.909C884.812 133.427 885.882 131.204 886.318 128.24C886.813 125.276 886.678 123.054 885.911 121.572C885.198 120.028 883.253 119.256 880.081 119.256H869.734L867.023 137.039Z" fill="white"/>
<path d="M900.643 167.419L909.622 107.771H922.839L913.861 167.419H900.643Z" fill="white"/>
<path d="M922.288 167.419L931.267 107.771H944.485L940.983 130.926L962.711 107.771H977.815L955.228 132.13L969.986 167.419H955.866L945.645 141.67L938.21 149.358L935.506 167.419H922.288Z" fill="white"/>
<path d="M579.917 120.48H544.105L548.335 73.1151C548.447 71.8532 547.863 70.653 546.912 70.1931C545.958 69.7275 544.878 70.1258 544.274 71.1521L501.433 144.064C500.933 144.916 500.861 146.046 501.244 146.986C501.63 147.931 502.407 148.523 503.255 148.523H539.068L534.838 195.887C534.725 197.149 535.309 198.349 536.261 198.809C536.527 198.938 536.802 199 537.077 199C537.78 199 538.463 198.59 538.898 197.85L581.739 124.938C582.239 124.086 582.312 122.956 581.928 122.016C581.543 121.071 580.765 120.48 579.917 120.48Z" fill="url(#paint5_linear_417_799)"/>
<path d="M544.105 120.48L548.335 73.1151C548.447 71.8532 547.863 70.653 546.912 70.1931C545.958 69.7275 544.878 70.1258 544.274 71.1521L501.433 144.064C500.933 144.916 500.861 146.046 501.244 146.986C501.63 147.931 502.407 148.523 503.255 148.523H539.068C541.586 134.5 541.586 134.5 544.105 120.48Z" fill="url(#paint6_linear_417_799)"/>
<path d="M544.113 120.484H576.642L565.725 147.63L535.47 188.804L538.856 148.524L544.113 120.484Z" fill="url(#paint7_linear_417_799)"/>
</g>
<defs>
<filter id="filter0_f_417_799" x="238.463" y="-75.5906" width="1005.16" height="964.991" filterUnits="userSpaceOnUse" color-interpolation-filters="sRGB">
<feFlood flood-opacity="0" result="BackgroundImageFix"/>
<feBlend mode="normal" in="SourceGraphic" in2="BackgroundImageFix" result="shape"/>
<feGaussianBlur stdDeviation="102.601" result="effect1_foregroundBlur_417_799"/>
</filter>
<filter id="filter1_f_417_799" x="-402.73" y="-534.73" width="878.536" height="878.536" filterUnits="userSpaceOnUse" color-interpolation-filters="sRGB">
<feFlood flood-opacity="0" result="BackgroundImageFix"/>
<feBlend mode="normal" in="SourceGraphic" in2="BackgroundImageFix" result="shape"/>
<feGaussianBlur stdDeviation="125.865" result="effect1_foregroundBlur_417_799"/>
</filter>
<filter id="filter2_f_417_799" x="977.687" y="-221.313" width="1089.63" height="1089.63" filterUnits="userSpaceOnUse" color-interpolation-filters="sRGB">
<feFlood flood-opacity="0" result="BackgroundImageFix"/>
<feBlend mode="normal" in="SourceGraphic" in2="BackgroundImageFix" result="shape"/>
<feGaussianBlur stdDeviation="165.157" result="effect1_foregroundBlur_417_799"/>
</filter>
<linearGradient id="paint0_linear_417_799" x1="1399.06" y1="111.964" x2="1533.29" y2="-59.0111" gradientUnits="userSpaceOnUse">
<stop offset="0.1173" stop-color="#6978FF"/>
<stop offset="0.1876" stop-color="#6087FF"/>
<stop offset="0.3484" stop-color="#4DA5FF"/>
<stop offset="0.5073" stop-color="#40BAFF"/>
<stop offset="0.6622" stop-color="#39C7FF"/>
<stop offset="0.8083" stop-color="#36CBFF"/>
<stop offset="1" stop-color="#67FFFC"/>
</linearGradient>
<linearGradient id="paint1_linear_417_799" x1="2149.61" y1="475.781" x2="1359.79" y2="125.381" gradientUnits="userSpaceOnUse">
<stop offset="0.497995" stop-color="#6978FF"/>
<stop offset="0.528171" stop-color="#6087FF"/>
<stop offset="0.580146" stop-color="#4DA5FF"/>
<stop offset="0.642549" stop-color="#40BAFF"/>
<stop offset="0.765115" stop-color="#39C7FF"/>
<stop offset="0.860122" stop-color="#36CBFF"/>
<stop offset="1" stop-color="#67FFFC"/>
</linearGradient>
<linearGradient id="paint2_linear_417_799" x1="1.12229" y1="-54.0567" x2="648.998" y2="791.623" gradientUnits="userSpaceOnUse">
<stop offset="0.497995" stop-color="#6978FF"/>
<stop offset="0.528171" stop-color="#6087FF"/>
<stop offset="0.580146" stop-color="#4DA5FF"/>
<stop offset="0.642549" stop-color="#40BAFF"/>
<stop offset="0.765115" stop-color="#39C7FF"/>
<stop offset="0.860122" stop-color="#36CBFF"/>
<stop offset="1" stop-color="#67FFFC"/>
</linearGradient>
<linearGradient id="paint3_linear_417_799" x1="-179.839" y1="-89.8419" x2="219.074" y2="179.716" gradientUnits="userSpaceOnUse">
<stop offset="0.1173" stop-color="#6978FF"/>
<stop offset="0.1876" stop-color="#6087FF"/>
<stop offset="0.3484" stop-color="#4DA5FF"/>
<stop offset="0.5073" stop-color="#40BAFF"/>
<stop offset="0.6622" stop-color="#39C7FF"/>
<stop offset="0.8083" stop-color="#36CBFF"/>
<stop offset="1" stop-color="#67FFFC"/>
</linearGradient>
<linearGradient id="paint4_linear_417_799" x1="380.328" y1="-243.309" x2="-591.154" y2="836.068" gradientUnits="userSpaceOnUse">
<stop offset="0.386" stop-color="#6978FF"/>
<stop offset="0.4432" stop-color="#6284FF"/>
<stop offset="0.6461" stop-color="#4AABFF"/>
<stop offset="0.8086" stop-color="#3BC2FF"/>
<stop offset="0.9094" stop-color="#36CBFF"/>
<stop offset="1" stop-color="#67FFFC"/>
</linearGradient>
<linearGradient id="paint5_linear_417_799" x1="557.053" y1="120.791" x2="532.089" y2="199.107" gradientUnits="userSpaceOnUse">
<stop stop-color="#029BF1"/>
<stop offset="1" stop-color="#A1EEFF"/>
</linearGradient>
<linearGradient id="paint6_linear_417_799" x1="543.089" y1="73.3947" x2="520.06" y2="147.08" gradientUnits="userSpaceOnUse">
<stop stop-color="#A2EEFF"/>
<stop offset="1" stop-color="#029AF0"/>
</linearGradient>
<linearGradient id="paint7_linear_417_799" x1="539.049" y1="135.253" x2="555.492" y2="140.939" gradientUnits="userSpaceOnUse">
<stop stop-color="#005796"/>
<stop offset="1" stop-color="#0091E2" stop-opacity="0"/>
</linearGradient>
<clipPath id="clip0_417_799">
<rect width="1584" height="268.213" fill="white"/>
</clipPath>
</defs>
</svg>
