<svg width="1584" height="269" viewBox="0 0 1584 269" fill="none" xmlns="http://www.w3.org/2000/svg">
<g clip-path="url(#clip0_417_799)">
<rect width="1584" height="268.213" fill="black"/>
<path d="M1528.73 -93.1951C1503.17 -108.351 1470.95 -101.044 1457.31 -76.9949L1359.73 99.3549C1346.21 123.795 1356.3 155.87 1382.37 171.33C1407.92 186.486 1440.14 179.178 1453.79 155.13L1551.36 -21.2203C1564.5 -45.572 1554.41 -77.6478 1528.73 -93.1951Z" fill="url(#paint0_linear_417_799)"/>
<path d="M1734.94 386.816C1760.86 402.201 1792.51 395.015 1805.96 370.693C1819.14 346.847 1808.99 314.536 1783.45 299.063L1521.3 143.793C1495.38 128.408 1499.96 131.123 1474.54 116.04C1416.6 81.6498 1404.47 19.3433 1417.53 -4.89179L1357.15 104.322C1343.97 128.168 1354.12 160.479 1379.66 175.951L1734.94 386.816Z" fill="url(#paint1_linear_417_799)"/>
<g filter="url(#filter0_f_417_799)">
<path d="M368.687 123.452C336.998 101.237 286.469 99.5406 255.305 119.646C224.751 139.357 225.178 173.795 256.251 195.989L576.865 420.341C608.554 442.556 602.962 438.636 634.03 460.416C704.864 510.073 694.575 574.427 664.027 594.553L803.961 504.276C834.514 484.564 834.087 450.127 803.014 427.932L368.687 123.452Z" fill="url(#paint2_linear_417_799)"/>
</g>
<path d="M-83.6474 -2.60309C-69.4779 -23.8415 -41.7745 -27.5092 -22.2327 -10.7338L153.416 142.54C173.008 159.696 177.14 190.903 162.687 212.567C148.517 233.805 120.814 237.473 101.272 220.697L-74.3765 67.4238C-93.5845 50.6042 -97.7665 19.0159 -83.6474 -2.60309Z" fill="url(#paint3_linear_417_799)"/>
<path d="M-34.7207 509.391C-49.1736 531.054 -76.5431 534.678 -96.1353 517.522C-115.343 500.702 -119.525 469.114 -105.406 447.495L40.5397 228.739C54.9925 207.076 52.4419 210.899 66.6113 189.66C98.9178 141.237 85.0499 82.6615 65.7915 65.4613L153.764 142.495C172.972 159.314 177.154 190.903 163.035 212.522L-34.7207 509.391Z" fill="url(#paint4_linear_417_799)"/>
<g filter="url(#filter1_f_417_799)">
<circle cx="187.539" cy="187.539" r="187.539" transform="matrix(-1 0 0 1 224.077 -283)" fill="#3BC4FF"/>
</g>
<path d="M543.357 144.059V153.189H555.618V158.981H543.357V168.633H557.183V174.581H536.052V138.111H557.183V144.059H543.357ZM572.325 151.676V165.659C572.325 166.633 572.551 167.346 573.003 167.798C573.49 168.216 574.29 168.424 575.403 168.424H578.795V174.581H574.203C568.047 174.581 564.969 171.59 564.969 165.607V151.676H561.525V145.676H564.969V138.528H572.325V145.676H578.795V151.676H572.325ZM600.327 145.259C602.518 145.259 604.466 145.746 606.171 146.72C607.875 147.659 609.197 149.068 610.136 150.946C611.11 152.789 611.597 155.016 611.597 157.624V174.581H604.292V158.616C604.292 156.32 603.718 154.563 602.571 153.346C601.423 152.094 599.857 151.468 597.875 151.468C595.857 151.468 594.257 152.094 593.075 153.346C591.927 154.563 591.353 156.32 591.353 158.616V174.581H584.049V135.972H591.353V149.276C592.292 148.024 593.544 147.05 595.11 146.355C596.675 145.624 598.414 145.259 600.327 145.259ZM645.413 159.503C645.413 160.546 645.343 161.485 645.204 162.32H624.073C624.247 164.407 624.978 166.042 626.265 167.224C627.552 168.407 629.134 168.998 631.013 168.998C633.726 168.998 635.656 167.833 636.804 165.503H644.682C643.848 168.285 642.248 170.581 639.882 172.39C637.517 174.164 634.613 175.051 631.169 175.051C628.386 175.051 625.882 174.442 623.656 173.225C621.465 171.972 619.743 170.216 618.491 167.955C617.273 165.694 616.665 163.085 616.665 160.129C616.665 157.137 617.273 154.511 618.491 152.25C619.708 149.989 621.412 148.25 623.604 147.033C625.795 145.815 628.317 145.207 631.169 145.207C633.917 145.207 636.369 145.798 638.526 146.981C640.717 148.163 642.404 149.85 643.587 152.042C644.804 154.198 645.413 156.685 645.413 159.503ZM637.847 157.416C637.813 155.537 637.134 154.042 635.813 152.929C634.491 151.781 632.873 151.207 630.96 151.207C629.152 151.207 627.621 151.763 626.369 152.876C625.152 153.955 624.404 155.468 624.126 157.416H637.847ZM658.049 150.163C658.988 148.633 660.205 147.433 661.701 146.563C663.231 145.694 664.971 145.259 666.918 145.259V152.929H664.988C662.692 152.929 660.953 153.468 659.771 154.546C658.623 155.624 658.049 157.503 658.049 160.181V174.581H650.744V145.676H658.049V150.163ZM698.708 159.503C698.708 160.546 698.639 161.485 698.5 162.32H677.369C677.543 164.407 678.273 166.042 679.56 167.224C680.847 168.407 682.43 168.998 684.308 168.998C687.021 168.998 688.952 167.833 690.099 165.503H697.978C697.143 168.285 695.543 170.581 693.178 172.39C690.812 174.164 687.908 175.051 684.465 175.051C681.682 175.051 679.178 174.442 676.951 173.225C674.76 171.972 673.038 170.216 671.786 167.955C670.569 165.694 669.96 163.085 669.96 160.129C669.96 157.137 670.569 154.511 671.786 152.25C673.004 149.989 674.708 148.25 676.899 147.033C679.091 145.815 681.612 145.207 684.465 145.207C687.212 145.207 689.665 145.798 691.821 146.981C694.013 148.163 695.7 149.85 696.882 152.042C698.1 154.198 698.708 156.685 698.708 159.503ZM691.143 157.416C691.108 155.537 690.43 154.042 689.108 152.929C687.786 151.781 686.169 151.207 684.256 151.207C682.447 151.207 680.917 151.763 679.665 152.876C678.447 153.955 677.699 155.468 677.421 157.416H691.143ZM731.327 145.676V174.581H723.97V170.929C723.031 172.181 721.797 173.172 720.266 173.903C718.77 174.598 717.136 174.946 715.362 174.946C713.101 174.946 711.101 174.477 709.362 173.538C707.622 172.564 706.249 171.155 705.24 169.311C704.266 167.433 703.779 165.207 703.779 162.633V145.676H711.083V161.59C711.083 163.885 711.657 165.659 712.805 166.911C713.953 168.129 715.518 168.738 717.501 168.738C719.518 168.738 721.101 168.129 722.249 166.911C723.397 165.659 723.97 163.885 723.97 161.59V145.676H731.327ZM774.43 145.259C777.978 145.259 780.83 146.355 782.987 148.546C785.178 150.703 786.274 153.729 786.274 157.624V174.581H778.969V158.616C778.969 156.355 778.395 154.633 777.248 153.45C776.1 152.233 774.535 151.624 772.552 151.624C770.569 151.624 768.987 152.233 767.804 153.45C766.656 154.633 766.082 156.355 766.082 158.616V174.581H758.778V158.616C758.778 156.355 758.204 154.633 757.056 153.45C755.908 152.233 754.343 151.624 752.36 151.624C750.343 151.624 748.743 152.233 747.56 153.45C746.412 154.633 745.839 156.355 745.839 158.616V174.581H738.534V145.676H745.839V149.172C746.778 147.955 747.978 146.998 749.439 146.302C750.934 145.607 752.569 145.259 754.343 145.259C756.604 145.259 758.621 145.746 760.395 146.72C762.169 147.659 763.543 149.016 764.517 150.789C765.456 149.12 766.813 147.781 768.587 146.772C770.395 145.763 772.343 145.259 774.43 145.259ZM821.603 174.581L815.655 165.607L810.385 174.581H802.559L812.003 160.077L802.455 145.676H810.698L816.594 154.598L821.916 145.676H829.742L820.246 160.077L829.847 174.581H821.603ZM872.803 149.433C872.803 151.381 872.333 153.207 871.394 154.911C870.49 156.616 869.046 157.99 867.064 159.033C865.116 160.077 862.646 160.598 859.655 160.598H853.55V174.581H846.246V138.163H859.655C862.472 138.163 864.872 138.65 866.855 139.624C868.838 140.598 870.316 141.937 871.29 143.642C872.298 145.346 872.803 147.276 872.803 149.433ZM859.342 154.703C861.359 154.703 862.855 154.25 863.829 153.346C864.803 152.407 865.29 151.103 865.29 149.433C865.29 145.885 863.307 144.111 859.342 144.111H853.55V154.703H859.342ZM894.267 145.259C896.459 145.259 898.407 145.746 900.111 146.72C901.815 147.659 903.137 149.068 904.076 150.946C905.05 152.789 905.537 155.016 905.537 157.624V174.581H898.233V158.616C898.233 156.32 897.659 154.563 896.511 153.346C895.363 152.094 893.798 151.468 891.815 151.468C889.798 151.468 888.198 152.094 887.015 153.346C885.867 154.563 885.293 156.32 885.293 158.616V174.581H877.989V135.972H885.293V149.276C886.233 148.024 887.485 147.05 889.05 146.355C890.615 145.624 892.354 145.259 894.267 145.259ZM925.318 175.051C922.536 175.051 920.031 174.442 917.805 173.225C915.579 171.972 913.822 170.216 912.535 167.955C911.283 165.694 910.657 163.085 910.657 160.129C910.657 157.172 911.301 154.563 912.588 152.303C913.909 150.042 915.701 148.302 917.962 147.085C920.222 145.833 922.744 145.207 925.527 145.207C928.31 145.207 930.831 145.833 933.092 147.085C935.353 148.302 937.127 150.042 938.414 152.303C939.736 154.563 940.397 157.172 940.397 160.129C940.397 163.085 939.718 165.694 938.362 167.955C937.04 170.216 935.231 171.972 932.936 173.225C930.675 174.442 928.136 175.051 925.318 175.051ZM925.318 168.685C926.64 168.685 927.875 168.372 929.023 167.746C930.205 167.085 931.144 166.111 931.84 164.824C932.536 163.537 932.883 161.972 932.883 160.129C932.883 157.381 932.153 155.276 930.692 153.816C929.266 152.32 927.509 151.572 925.423 151.572C923.336 151.572 921.579 152.32 920.153 153.816C918.762 155.276 918.066 157.381 918.066 160.129C918.066 162.877 918.744 164.998 920.101 166.494C921.492 167.955 923.231 168.685 925.318 168.685ZM972.625 159.503C972.625 160.546 972.555 161.485 972.416 162.32H951.285C951.459 164.407 952.19 166.042 953.477 167.224C954.763 168.407 956.346 168.998 958.224 168.998C960.937 168.998 962.868 167.833 964.016 165.503H971.894C971.059 168.285 969.459 170.581 967.094 172.39C964.729 174.164 961.824 175.051 958.381 175.051C955.598 175.051 953.094 174.442 950.868 173.225C948.676 171.972 946.955 170.216 945.703 167.955C944.485 165.694 943.876 163.085 943.876 160.129C943.876 157.137 944.485 154.511 945.703 152.25C946.92 149.989 948.624 148.25 950.816 147.033C953.007 145.815 955.529 145.207 958.381 145.207C961.129 145.207 963.581 145.798 965.738 146.981C967.929 148.163 969.616 149.85 970.798 152.042C972.016 154.198 972.625 156.685 972.625 159.503ZM965.059 157.416C965.024 155.537 964.346 154.042 963.024 152.929C961.703 151.781 960.085 151.207 958.172 151.207C956.364 151.207 954.833 151.763 953.581 152.876C952.363 153.955 951.616 155.468 951.337 157.416H965.059ZM993.974 145.259C997.417 145.259 1000.2 146.355 1002.32 148.546C1004.44 150.703 1005.5 153.729 1005.5 157.624V174.581H998.2V158.616C998.2 156.32 997.626 154.563 996.478 153.346C995.33 152.094 993.765 151.468 991.782 151.468C989.765 151.468 988.165 152.094 986.982 153.346C985.835 154.563 985.261 156.32 985.261 158.616V174.581H977.956V145.676H985.261V149.276C986.235 148.024 987.469 147.05 988.965 146.355C990.495 145.624 992.165 145.259 993.974 145.259ZM1016.15 142.233C1014.87 142.233 1013.79 141.833 1012.92 141.033C1012.09 140.198 1011.67 139.172 1011.67 137.955C1011.67 136.737 1012.09 135.728 1012.92 134.928C1013.79 134.094 1014.87 133.676 1016.15 133.676C1017.44 133.676 1018.5 134.094 1019.34 134.928C1020.21 135.728 1020.64 136.737 1020.64 137.955C1020.64 139.172 1020.21 140.198 1019.34 141.033C1018.5 141.833 1017.44 142.233 1016.15 142.233ZM1019.75 145.676V174.581H1012.45V145.676H1019.75ZM1042.94 174.581L1036.99 165.607L1031.72 174.581H1023.89L1033.34 160.077L1023.79 145.676H1032.03L1037.93 154.598L1043.25 145.676H1051.08L1041.58 160.077L1051.18 174.581H1042.94Z" fill="url(#paint5_linear_417_799)"/>
<path d="M697.916 91.2406C697.229 91.8843 697.229 92.9529 697.916 93.6095L702.969 98.3472C703.67 99.0038 704.796 99.0038 705.496 98.3472C706.183 97.7035 706.183 96.6349 705.496 95.9783L700.443 91.2406C699.756 90.5969 698.616 90.5969 697.916 91.2406Z" fill="url(#paint6_linear_417_799)"/>
<path d="M715.095 89.3482C715.796 88.6916 715.796 87.636 715.095 86.9794C714.409 86.3357 713.269 86.3357 712.569 86.9794L705.496 93.6096C704.796 94.2662 704.92 94.1503 704.233 94.794C702.667 96.2617 700.525 96.03 699.825 95.3863L702.97 98.3345C703.656 98.9782 704.796 98.9782 705.496 98.3345L715.095 89.3482Z" fill="url(#paint7_linear_417_799)"/>
<path d="M725.23 87.0184C724.543 86.3747 723.404 86.3747 722.703 87.0184L717.663 91.7562C716.963 92.4127 716.963 93.4684 717.663 94.125C718.35 94.7687 719.49 94.7687 720.19 94.125L725.244 89.3873C725.917 88.7307 725.917 87.6621 725.23 87.0184Z" fill="url(#paint8_linear_417_799)"/>
<path d="M705.538 88.8983C706.224 88.2546 706.224 87.1861 705.538 86.5295L700.484 81.7918C699.784 81.1352 698.658 81.1352 697.957 81.7918C697.271 82.4355 697.271 83.504 697.957 84.1606L703.011 88.8983C703.711 89.5421 704.837 89.5421 705.538 88.8983Z" fill="url(#paint9_linear_417_799)"/>
<path d="M688.358 90.8032C687.658 91.4598 687.658 92.5155 688.358 93.172C689.045 93.8158 690.185 93.8158 690.885 93.172L697.957 86.5289C698.658 85.8723 698.534 85.9882 699.221 85.3445C700.786 83.8768 702.929 84.1086 703.629 84.7523L700.484 81.8041C699.798 81.1604 698.658 81.1604 697.957 81.8041L688.358 90.8032Z" fill="url(#paint10_linear_417_799)"/>
<path d="M678.292 93.1465C678.979 93.7902 680.119 93.7902 680.819 93.1465L685.873 88.4088C686.573 87.7522 686.573 86.6965 685.873 86.0399C685.186 85.3962 684.046 85.3962 683.346 86.0399L678.292 90.7776C677.606 91.4342 677.606 92.4899 678.292 93.1465Z" fill="url(#paint11_linear_417_799)"/>
<path d="M732.291 84.2037H735.641V96.0274H742.717V99H732.291V84.2037ZM744.682 84.2037H748.032V99H744.682V84.2037ZM758.575 90.8587H764.276V97.2697C763.507 97.9352 762.605 98.4528 761.57 98.8225C760.549 99.1775 759.381 99.3549 758.065 99.3549C756.852 99.3549 755.765 99.1701 754.804 98.8003C753.857 98.4158 753.051 97.8834 752.386 97.2031C751.72 96.5229 751.21 95.7095 750.855 94.763C750.515 93.8165 750.345 92.7739 750.345 91.6351C750.345 90.526 750.53 89.4981 750.899 88.5516C751.269 87.6052 751.794 86.7844 752.474 86.0893C753.155 85.3794 753.961 84.8248 754.892 84.4255C755.824 84.0262 756.859 83.8266 757.998 83.8266C759.344 83.8266 760.52 84.078 761.525 84.5808C762.546 85.0689 763.389 85.7565 764.054 86.6439L761.791 88.7957C761.318 88.2337 760.793 87.7752 760.216 87.4203C759.654 87.0654 758.959 86.8879 758.131 86.8879C757.451 86.8879 756.844 87.0136 756.312 87.265C755.78 87.5164 755.329 87.8566 754.959 88.2854C754.589 88.7143 754.308 89.2171 754.116 89.7939C753.924 90.3707 753.828 90.9844 753.828 91.6351C753.828 92.345 753.938 92.9883 754.16 93.5651C754.382 94.1418 754.693 94.6373 755.092 95.0514C755.491 95.4507 755.957 95.7612 756.49 95.9831C757.037 96.2049 757.628 96.3158 758.264 96.3158C758.856 96.3158 759.396 96.2493 759.884 96.1162C760.372 95.9683 760.808 95.739 761.192 95.4285V93.5651H758.575V90.8587ZM766.952 84.2037H770.302V89.8826H776.713V84.2037H780.063V99H776.713V92.9218H770.302V99H766.952V84.2037ZM786.756 87.1541H781.964V84.2037H794.897V87.1541H790.127V99H786.756V87.1541ZM796.805 84.2037H800.154V96.0274H807.231V99H796.805V84.2037ZM809.196 84.2037H812.546V99H809.196V84.2037ZM815.435 84.2037H818.63L825.041 93.8091V84.2037H828.346V99H825.307L818.741 89.2171V99H815.435V84.2037ZM831.228 84.2037H834.578V90.1045L839.524 84.2037H843.406L838.326 89.9714L844.094 99H840.035L836.086 92.5446L834.578 94.2306V99H831.228V84.2037Z" fill="white"/>
<path d="M845.631 95.4728H849.247V99H845.631V95.4728Z" fill="#6A81FF"/>
<g filter="url(#filter2_f_417_799)">
<circle cx="214.5" cy="214.5" r="214.5" transform="matrix(-1 0 0 1 1737 109)" fill="#6A7AFF"/>
</g>
</g>
<defs>
<filter id="filter0_f_417_799" x="27.4628" y="-99.5906" width="1005.16" height="964.991" filterUnits="userSpaceOnUse" color-interpolation-filters="sRGB">
<feFlood flood-opacity="0" result="BackgroundImageFix"/>
<feBlend mode="normal" in="SourceGraphic" in2="BackgroundImageFix" result="shape"/>
<feGaussianBlur stdDeviation="102.601" result="effect1_foregroundBlur_417_799"/>
</filter>
<filter id="filter1_f_417_799" x="-402.73" y="-534.73" width="878.536" height="878.536" filterUnits="userSpaceOnUse" color-interpolation-filters="sRGB">
<feFlood flood-opacity="0" result="BackgroundImageFix"/>
<feBlend mode="normal" in="SourceGraphic" in2="BackgroundImageFix" result="shape"/>
<feGaussianBlur stdDeviation="125.865" result="effect1_foregroundBlur_417_799"/>
</filter>
<filter id="filter2_f_417_799" x="977.687" y="-221.313" width="1089.63" height="1089.63" filterUnits="userSpaceOnUse" color-interpolation-filters="sRGB">
<feFlood flood-opacity="0" result="BackgroundImageFix"/>
<feBlend mode="normal" in="SourceGraphic" in2="BackgroundImageFix" result="shape"/>
<feGaussianBlur stdDeviation="165.157" result="effect1_foregroundBlur_417_799"/>
</filter>
<linearGradient id="paint0_linear_417_799" x1="1399.06" y1="111.964" x2="1533.29" y2="-59.0111" gradientUnits="userSpaceOnUse">
<stop offset="0.1173" stop-color="#6978FF"/>
<stop offset="0.1876" stop-color="#6087FF"/>
<stop offset="0.3484" stop-color="#4DA5FF"/>
<stop offset="0.5073" stop-color="#40BAFF"/>
<stop offset="0.6622" stop-color="#39C7FF"/>
<stop offset="0.8083" stop-color="#36CBFF"/>
<stop offset="1" stop-color="#67FFFC"/>
</linearGradient>
<linearGradient id="paint1_linear_417_799" x1="2149.61" y1="475.781" x2="1359.79" y2="125.381" gradientUnits="userSpaceOnUse">
<stop offset="0.497995" stop-color="#6978FF"/>
<stop offset="0.528171" stop-color="#6087FF"/>
<stop offset="0.580146" stop-color="#4DA5FF"/>
<stop offset="0.642549" stop-color="#40BAFF"/>
<stop offset="0.765115" stop-color="#39C7FF"/>
<stop offset="0.860122" stop-color="#36CBFF"/>
<stop offset="1" stop-color="#67FFFC"/>
</linearGradient>
<linearGradient id="paint2_linear_417_799" x1="-209.878" y1="-78.0567" x2="437.998" y2="767.623" gradientUnits="userSpaceOnUse">
<stop offset="0.497995" stop-color="#6978FF"/>
<stop offset="0.528171" stop-color="#6087FF"/>
<stop offset="0.580146" stop-color="#4DA5FF"/>
<stop offset="0.642549" stop-color="#40BAFF"/>
<stop offset="0.765115" stop-color="#39C7FF"/>
<stop offset="0.860122" stop-color="#36CBFF"/>
<stop offset="1" stop-color="#67FFFC"/>
</linearGradient>
<linearGradient id="paint3_linear_417_799" x1="-179.839" y1="-89.8419" x2="219.074" y2="179.716" gradientUnits="userSpaceOnUse">
<stop offset="0.1173" stop-color="#6978FF"/>
<stop offset="0.1876" stop-color="#6087FF"/>
<stop offset="0.3484" stop-color="#4DA5FF"/>
<stop offset="0.5073" stop-color="#40BAFF"/>
<stop offset="0.6622" stop-color="#39C7FF"/>
<stop offset="0.8083" stop-color="#36CBFF"/>
<stop offset="1" stop-color="#67FFFC"/>
</linearGradient>
<linearGradient id="paint4_linear_417_799" x1="380.328" y1="-243.309" x2="-591.154" y2="836.068" gradientUnits="userSpaceOnUse">
<stop offset="0.386" stop-color="#6978FF"/>
<stop offset="0.4432" stop-color="#6284FF"/>
<stop offset="0.6461" stop-color="#4AABFF"/>
<stop offset="0.8086" stop-color="#3BC2FF"/>
<stop offset="0.9094" stop-color="#36CBFF"/>
<stop offset="1" stop-color="#67FFFC"/>
</linearGradient>
<linearGradient id="paint5_linear_417_799" x1="1024.3" y1="135.191" x2="532" y2="135.191" gradientUnits="userSpaceOnUse">
<stop stop-color="#5C8FFF"/>
<stop offset="1" stop-color="#68FFFC"/>
</linearGradient>
<linearGradient id="paint6_linear_417_799" x1="693.164" y1="86.8806" x2="705.455" y2="99.8351" gradientUnits="userSpaceOnUse">
<stop offset="0.1173" stop-color="#6978FF"/>
<stop offset="0.1876" stop-color="#6087FF"/>
<stop offset="0.3484" stop-color="#4DA5FF"/>
<stop offset="0.5073" stop-color="#40BAFF"/>
<stop offset="0.6622" stop-color="#39C7FF"/>
<stop offset="0.8083" stop-color="#36CBFF"/>
<stop offset="1" stop-color="#67FFFC"/>
</linearGradient>
<linearGradient id="paint7_linear_417_799" x1="690.352" y1="108.859" x2="726.694" y2="69.0111" gradientUnits="userSpaceOnUse">
<stop offset="0.386" stop-color="#6978FF"/>
<stop offset="0.4432" stop-color="#6284FF"/>
<stop offset="0.6461" stop-color="#4AABFF"/>
<stop offset="0.8086" stop-color="#3BC2FF"/>
<stop offset="0.9094" stop-color="#36CBFF"/>
<stop offset="1" stop-color="#67FFFC"/>
</linearGradient>
<linearGradient id="paint8_linear_417_799" x1="724.306" y1="88.0706" x2="695.808" y2="116.291" gradientUnits="userSpaceOnUse">
<stop offset="0.0470588" stop-color="#6978FF"/>
<stop offset="0.1245" stop-color="#6087FF"/>
<stop offset="0.3016" stop-color="#4DA5FF"/>
<stop offset="0.4767" stop-color="#40BAFF"/>
<stop offset="0.6473" stop-color="#39C7FF"/>
<stop offset="0.8083" stop-color="#36CBFF"/>
<stop offset="1" stop-color="#67FFFC"/>
</linearGradient>
<linearGradient id="paint9_linear_417_799" x1="699.779" y1="82.8864" x2="704.041" y2="88.948" gradientUnits="userSpaceOnUse">
<stop offset="0.1173" stop-color="#6978FF"/>
<stop offset="0.1876" stop-color="#6087FF"/>
<stop offset="0.3484" stop-color="#4DA5FF"/>
<stop offset="0.5073" stop-color="#40BAFF"/>
<stop offset="0.6622" stop-color="#39C7FF"/>
<stop offset="0.8083" stop-color="#36CBFF"/>
<stop offset="1" stop-color="#67FFFC"/>
</linearGradient>
<linearGradient id="paint10_linear_417_799" x1="682.329" y1="102.844" x2="699.418" y2="81.399" gradientUnits="userSpaceOnUse">
<stop offset="0.3128" stop-color="#6978FF"/>
<stop offset="0.3633" stop-color="#6087FF"/>
<stop offset="0.4785" stop-color="#4DA5FF"/>
<stop offset="0.5925" stop-color="#40BAFF"/>
<stop offset="0.7035" stop-color="#39C7FF"/>
<stop offset="0.8083" stop-color="#36CBFF"/>
<stop offset="1" stop-color="#67FFFC"/>
</linearGradient>
<linearGradient id="paint11_linear_417_799" x1="700.229" y1="70.0936" x2="681.883" y2="92.5266" gradientUnits="userSpaceOnUse">
<stop offset="0.00761283" stop-color="#6978FF"/>
<stop offset="0.0891092" stop-color="#6087FF"/>
<stop offset="0.2754" stop-color="#4DA5FF"/>
<stop offset="0.4596" stop-color="#40BAFF"/>
<stop offset="0.639" stop-color="#39C7FF"/>
<stop offset="0.8083" stop-color="#36CBFF"/>
<stop offset="1" stop-color="#67FFFC"/>
</linearGradient>
<clipPath id="clip0_417_799">
<rect width="1584" height="268.213" fill="white"/>
</clipPath>
</defs>
</svg>
