<svg width="1584" height="269" viewBox="0 0 1584 269" fill="none" xmlns="http://www.w3.org/2000/svg">
<g clip-path="url(#clip0_417_799)">
<rect width="1584" height="268.213" fill="black"/>
<path d="M1528.73 -93.1951C1503.17 -108.351 1470.95 -101.044 1457.31 -76.9949L1359.73 99.3549C1346.21 123.795 1356.3 155.87 1382.37 171.33C1407.92 186.486 1440.14 179.178 1453.79 155.13L1551.36 -21.2203C1564.5 -45.572 1554.41 -77.6478 1528.73 -93.1951Z" fill="url(#paint0_linear_417_799)"/>
<path d="M1734.94 386.816C1760.86 402.201 1792.51 395.015 1805.96 370.693C1819.14 346.847 1808.99 314.536 1783.45 299.063L1521.3 143.793C1495.38 128.408 1499.96 131.123 1474.54 116.04C1416.6 81.6498 1404.47 19.3433 1417.53 -4.89179L1357.15 104.322C1343.97 128.168 1354.12 160.479 1379.66 175.951L1734.94 386.816Z" fill="url(#paint1_linear_417_799)"/>
<g filter="url(#filter0_f_417_799)">
<path d="M368.687 123.452C336.998 101.237 286.469 99.5406 255.305 119.646C224.751 139.357 225.178 173.795 256.251 195.989L576.865 420.341C608.554 442.556 602.962 438.636 634.03 460.416C704.864 510.073 694.575 574.427 664.027 594.553L803.961 504.276C834.514 484.564 834.087 450.127 803.014 427.932L368.687 123.452Z" fill="url(#paint2_linear_417_799)"/>
</g>
<path d="M-83.6474 -2.60309C-69.4779 -23.8415 -41.7745 -27.5092 -22.2327 -10.7338L153.416 142.54C173.008 159.696 177.14 190.903 162.687 212.567C148.517 233.805 120.814 237.473 101.272 220.697L-74.3765 67.4238C-93.5845 50.6042 -97.7665 19.0159 -83.6474 -2.60309Z" fill="url(#paint3_linear_417_799)"/>
<path d="M-34.7207 509.391C-49.1736 531.054 -76.5431 534.678 -96.1353 517.522C-115.343 500.702 -119.525 469.114 -105.406 447.495L40.5397 228.739C54.9925 207.076 52.4419 210.899 66.6113 189.66C98.9178 141.237 85.0499 82.6615 65.7915 65.4613L153.764 142.495C172.972 159.314 177.154 190.903 163.035 212.522L-34.7207 509.391Z" fill="url(#paint4_linear_417_799)"/>
<g filter="url(#filter1_f_417_799)">
<circle cx="187.539" cy="187.539" r="187.539" transform="matrix(-1 0 0 1 224.077 -283)" fill="#3BC4FF"/>
</g>
<path d="M618.067 149.12C617.232 147.589 616.085 146.424 614.624 145.624C613.163 144.824 611.458 144.424 609.511 144.424C607.354 144.424 605.441 144.911 603.771 145.885C602.102 146.859 600.797 148.25 599.858 150.059C598.919 151.868 598.45 153.955 598.45 156.32C598.45 158.755 598.919 160.877 599.858 162.685C600.832 164.494 602.171 165.885 603.876 166.859C605.58 167.833 607.563 168.32 609.824 168.32C612.606 168.32 614.885 167.59 616.658 166.129C618.432 164.633 619.598 162.564 620.154 159.92H607.632V154.337H627.354V160.703C626.867 163.242 625.824 165.59 624.224 167.746C622.624 169.903 620.554 171.642 618.015 172.964C615.511 174.251 612.693 174.894 609.563 174.894C606.05 174.894 602.867 174.111 600.015 172.546C597.197 170.946 594.971 168.738 593.336 165.92C591.736 163.103 590.936 159.903 590.936 156.32C590.936 152.737 591.736 149.537 593.336 146.72C594.971 143.868 597.197 141.659 600.015 140.094C602.867 138.494 606.032 137.694 609.511 137.694C613.615 137.694 617.18 138.702 620.206 140.72C623.232 142.702 625.319 145.502 626.467 149.12H618.067ZM659.628 159.503C659.628 160.546 659.559 161.485 659.42 162.32H638.289C638.463 164.407 639.193 166.042 640.48 167.224C641.767 168.407 643.35 168.998 645.228 168.998C647.941 168.998 649.872 167.833 651.019 165.503H658.898C658.063 168.285 656.463 170.581 654.098 172.39C651.733 174.164 648.828 175.051 645.385 175.051C642.602 175.051 640.098 174.442 637.872 173.225C635.68 171.972 633.958 170.216 632.706 167.955C631.489 165.694 630.88 163.085 630.88 160.129C630.88 157.137 631.489 154.511 632.706 152.25C633.924 149.989 635.628 148.25 637.819 147.033C640.011 145.815 642.532 145.207 645.385 145.207C648.133 145.207 650.585 145.798 652.741 146.981C654.933 148.163 656.62 149.85 657.802 152.042C659.02 154.198 659.628 156.685 659.628 159.503ZM652.063 157.416C652.028 155.537 651.35 154.042 650.028 152.929C648.706 151.781 647.089 151.207 645.176 151.207C643.367 151.207 641.837 151.763 640.585 152.876C639.367 153.955 638.619 155.468 638.341 157.416H652.063ZM673.464 151.676V165.659C673.464 166.633 673.69 167.346 674.143 167.798C674.63 168.216 675.43 168.424 676.543 168.424H679.934V174.581H675.343C669.186 174.581 666.108 171.59 666.108 165.607V151.676H662.664V145.676H666.108V138.528H673.464V145.676H679.934V151.676H673.464ZM693.692 151.676V165.659C693.692 166.633 693.918 167.346 694.37 167.798C694.857 168.216 695.657 168.424 696.77 168.424H700.162V174.581H695.57C689.414 174.581 686.336 171.59 686.336 165.607V151.676H682.892V145.676H686.336V138.528H693.692V145.676H700.162V151.676H693.692ZM709.12 142.233C707.833 142.233 706.755 141.833 705.885 141.033C705.05 140.198 704.633 139.172 704.633 137.955C704.633 136.737 705.05 135.728 705.885 134.928C706.755 134.094 707.833 133.676 709.12 133.676C710.407 133.676 711.468 134.094 712.303 134.928C713.172 135.728 713.607 136.737 713.607 137.955C713.607 139.172 713.172 140.198 712.303 141.033C711.468 141.833 710.407 142.233 709.12 142.233ZM712.72 145.676V174.581H705.416V145.676H712.72ZM735.954 145.259C739.398 145.259 742.181 146.355 744.302 148.546C746.424 150.703 747.485 153.729 747.485 157.624V174.581H740.18V158.616C740.18 156.32 739.607 154.563 738.459 153.346C737.311 152.094 735.746 151.468 733.763 151.468C731.746 151.468 730.146 152.094 728.963 153.346C727.815 154.563 727.241 156.32 727.241 158.616V174.581H719.937V145.676H727.241V149.276C728.215 148.024 729.45 147.05 730.946 146.355C732.476 145.624 734.146 145.259 735.954 145.259ZM765.753 145.207C767.909 145.207 769.805 145.642 771.44 146.511C773.075 147.346 774.362 148.442 775.301 149.798V145.676H782.657V174.79C782.657 177.468 782.118 179.851 781.04 181.938C779.962 184.059 778.344 185.729 776.188 186.946C774.031 188.199 771.423 188.825 768.362 188.825C764.257 188.825 760.883 187.868 758.24 185.955C755.631 184.042 754.153 181.433 753.805 178.129H761.057C761.44 179.451 762.257 180.494 763.509 181.259C764.796 182.059 766.344 182.459 768.153 182.459C770.275 182.459 771.996 181.816 773.318 180.529C774.64 179.277 775.301 177.364 775.301 174.79V170.303C774.362 171.659 773.057 172.79 771.388 173.694C769.753 174.598 767.875 175.051 765.753 175.051C763.318 175.051 761.092 174.425 759.075 173.172C757.057 171.92 755.457 170.164 754.275 167.903C753.127 165.607 752.553 162.981 752.553 160.024C752.553 157.103 753.127 154.511 754.275 152.25C755.457 149.989 757.04 148.25 759.022 147.033C761.04 145.815 763.283 145.207 765.753 145.207ZM775.301 160.129C775.301 158.355 774.953 156.842 774.257 155.59C773.562 154.303 772.623 153.329 771.44 152.668C770.257 151.972 768.988 151.624 767.631 151.624C766.275 151.624 765.023 151.955 763.875 152.616C762.727 153.276 761.788 154.25 761.057 155.537C760.362 156.79 760.014 158.285 760.014 160.024C760.014 161.764 760.362 163.294 761.057 164.616C761.788 165.903 762.727 166.894 763.875 167.59C765.057 168.285 766.309 168.633 767.631 168.633C768.988 168.633 770.257 168.303 771.44 167.642C772.623 166.946 773.562 165.972 774.257 164.72C774.953 163.433 775.301 161.903 775.301 160.129ZM814.798 174.946C812.259 174.946 809.963 174.511 807.911 173.642C805.893 172.772 804.293 171.52 803.111 169.885C801.928 168.251 801.319 166.32 801.285 164.094H809.111C809.215 165.59 809.737 166.772 810.676 167.642C811.65 168.511 812.972 168.946 814.641 168.946C816.346 168.946 817.685 168.546 818.659 167.746C819.633 166.911 820.12 165.833 820.12 164.511C820.12 163.433 819.789 162.546 819.128 161.85C818.467 161.155 817.633 160.616 816.624 160.233C815.65 159.816 814.293 159.363 812.554 158.877C810.189 158.181 808.259 157.503 806.763 156.842C805.302 156.146 804.032 155.12 802.954 153.763C801.911 152.372 801.389 150.529 801.389 148.233C801.389 146.076 801.928 144.198 803.006 142.598C804.085 140.998 805.598 139.781 807.546 138.946C809.493 138.076 811.72 137.641 814.224 137.641C817.98 137.641 821.024 138.563 823.354 140.407C825.72 142.215 827.024 144.755 827.268 148.024H819.233C819.163 146.772 818.624 145.746 817.615 144.946C816.641 144.111 815.337 143.694 813.702 143.694C812.276 143.694 811.128 144.059 810.259 144.789C809.424 145.52 809.006 146.581 809.006 147.972C809.006 148.946 809.319 149.763 809.946 150.424C810.606 151.05 811.406 151.572 812.346 151.989C813.32 152.372 814.676 152.824 816.415 153.346C818.78 154.042 820.711 154.737 822.207 155.433C823.702 156.129 824.989 157.172 826.068 158.563C827.146 159.955 827.685 161.781 827.685 164.042C827.685 165.99 827.181 167.798 826.172 169.468C825.163 171.138 823.685 172.477 821.737 173.485C819.789 174.459 817.476 174.946 814.798 174.946ZM842.522 151.676V165.659C842.522 166.633 842.748 167.346 843.2 167.798C843.687 168.216 844.487 168.424 845.6 168.424H848.992V174.581H844.4C838.244 174.581 835.165 171.59 835.165 165.607V151.676H831.722V145.676H835.165V138.528H842.522V145.676H848.992V151.676H842.522ZM852.367 160.024C852.367 157.103 852.941 154.511 854.089 152.25C855.272 149.989 856.854 148.25 858.837 147.033C860.854 145.815 863.098 145.207 865.567 145.207C867.724 145.207 869.602 145.642 871.202 146.511C872.837 147.381 874.141 148.476 875.115 149.798V145.676H882.472V174.581H875.115V170.355C874.176 171.711 872.872 172.842 871.202 173.746C869.567 174.616 867.672 175.051 865.515 175.051C863.08 175.051 860.854 174.425 858.837 173.172C856.854 171.92 855.272 170.164 854.089 167.903C852.941 165.607 852.367 162.981 852.367 160.024ZM875.115 160.129C875.115 158.355 874.767 156.842 874.072 155.59C873.376 154.303 872.437 153.329 871.254 152.668C870.072 151.972 868.802 151.624 867.446 151.624C866.089 151.624 864.837 151.955 863.689 152.616C862.541 153.276 861.602 154.25 860.872 155.537C860.176 156.79 859.828 158.285 859.828 160.024C859.828 161.764 860.176 163.294 860.872 164.616C861.602 165.903 862.541 166.894 863.689 167.59C864.872 168.285 866.124 168.633 867.446 168.633C868.802 168.633 870.072 168.303 871.254 167.642C872.437 166.946 873.376 165.972 874.072 164.72C874.767 163.433 875.115 161.903 875.115 160.129ZM896.91 150.163C897.85 148.633 899.067 147.433 900.563 146.563C902.093 145.694 903.832 145.259 905.78 145.259V152.929H903.85C901.554 152.929 899.815 153.468 898.632 154.546C897.484 155.624 896.91 157.503 896.91 160.181V174.581H889.606V145.676H896.91V150.163ZM919.204 151.676V165.659C919.204 166.633 919.43 167.346 919.883 167.798C920.37 168.216 921.17 168.424 922.283 168.424H925.674V174.581H921.083C914.926 174.581 911.848 171.59 911.848 165.607V151.676H908.404V145.676H911.848V138.528H919.204V145.676H925.674V151.676H919.204ZM957.798 159.503C957.798 160.546 957.728 161.485 957.589 162.32H936.458C936.632 164.407 937.363 166.042 938.65 167.224C939.937 168.407 941.519 168.998 943.397 168.998C946.111 168.998 948.041 167.833 949.189 165.503H957.067C956.232 168.285 954.632 170.581 952.267 172.39C949.902 174.164 946.998 175.051 943.554 175.051C940.771 175.051 938.267 174.442 936.041 173.225C933.85 171.972 932.128 170.216 930.876 167.955C929.658 165.694 929.049 163.085 929.049 160.129C929.049 157.137 929.658 154.511 930.876 152.25C932.093 149.989 933.797 148.25 935.989 147.033C938.18 145.815 940.702 145.207 943.554 145.207C946.302 145.207 948.754 145.798 950.911 146.981C953.102 148.163 954.789 149.85 955.972 152.042C957.189 154.198 957.798 156.685 957.798 159.503ZM950.232 157.416C950.198 155.537 949.519 154.042 948.198 152.929C946.876 151.781 945.258 151.207 943.345 151.207C941.537 151.207 940.006 151.763 938.754 152.876C937.537 153.955 936.789 155.468 936.51 157.416H950.232ZM961.251 160.024C961.251 157.103 961.825 154.511 962.973 152.25C964.155 149.989 965.755 148.25 967.773 147.033C969.79 145.815 972.034 145.207 974.503 145.207C976.382 145.207 978.173 145.624 979.877 146.459C981.582 147.259 982.938 148.337 983.947 149.694V135.972H991.356V174.581H983.947V170.303C983.043 171.729 981.773 172.877 980.138 173.746C978.503 174.616 976.608 175.051 974.451 175.051C972.016 175.051 969.79 174.425 967.773 173.172C965.755 171.92 964.155 170.164 962.973 167.903C961.825 165.607 961.251 162.981 961.251 160.024ZM983.999 160.129C983.999 158.355 983.651 156.842 982.956 155.59C982.26 154.303 981.321 153.329 980.138 152.668C978.955 151.972 977.686 151.624 976.329 151.624C974.973 151.624 973.721 151.955 972.573 152.616C971.425 153.276 970.486 154.25 969.755 155.537C969.06 156.79 968.712 158.285 968.712 160.024C968.712 161.764 969.06 163.294 969.755 164.616C970.486 165.903 971.425 166.894 972.573 167.59C973.755 168.285 975.008 168.633 976.329 168.633C977.686 168.633 978.955 168.303 980.138 167.642C981.321 166.946 982.26 165.972 982.956 164.72C983.651 163.433 983.999 161.903 983.999 160.129Z" fill="url(#paint5_linear_417_799)"/>
<path d="M697.916 91.2406C697.229 91.8843 697.229 92.9529 697.916 93.6095L702.969 98.3472C703.67 99.0038 704.796 99.0038 705.496 98.3472C706.183 97.7035 706.183 96.6349 705.496 95.9783L700.443 91.2406C699.756 90.5969 698.616 90.5969 697.916 91.2406Z" fill="url(#paint6_linear_417_799)"/>
<path d="M715.095 89.3482C715.796 88.6916 715.796 87.636 715.095 86.9794C714.409 86.3357 713.269 86.3357 712.569 86.9794L705.496 93.6096C704.796 94.2662 704.92 94.1503 704.233 94.794C702.667 96.2617 700.525 96.03 699.825 95.3863L702.97 98.3345C703.656 98.9782 704.796 98.9782 705.496 98.3345L715.095 89.3482Z" fill="url(#paint7_linear_417_799)"/>
<path d="M725.23 87.0184C724.543 86.3747 723.404 86.3747 722.703 87.0184L717.663 91.7562C716.963 92.4127 716.963 93.4684 717.663 94.125C718.35 94.7687 719.49 94.7687 720.19 94.125L725.244 89.3873C725.917 88.7307 725.917 87.6621 725.23 87.0184Z" fill="url(#paint8_linear_417_799)"/>
<path d="M705.538 88.8983C706.224 88.2546 706.224 87.1861 705.538 86.5295L700.484 81.7918C699.784 81.1352 698.658 81.1352 697.957 81.7918C697.271 82.4355 697.271 83.504 697.957 84.1606L703.011 88.8983C703.711 89.5421 704.837 89.5421 705.538 88.8983Z" fill="url(#paint9_linear_417_799)"/>
<path d="M688.358 90.8032C687.658 91.4598 687.658 92.5155 688.358 93.172C689.045 93.8158 690.185 93.8158 690.885 93.172L697.957 86.5289C698.658 85.8723 698.534 85.9882 699.221 85.3445C700.786 83.8768 702.929 84.1086 703.629 84.7523L700.484 81.8041C699.798 81.1604 698.658 81.1604 697.957 81.8041L688.358 90.8032Z" fill="url(#paint10_linear_417_799)"/>
<path d="M678.292 93.1465C678.979 93.7902 680.119 93.7902 680.819 93.1465L685.873 88.4088C686.573 87.7522 686.573 86.6965 685.873 86.0399C685.186 85.3962 684.046 85.3962 683.346 86.0399L678.292 90.7776C677.606 91.4342 677.606 92.4899 678.292 93.1465Z" fill="url(#paint11_linear_417_799)"/>
<path d="M732.291 84.2037H735.641V96.0274H742.717V99H732.291V84.2037ZM744.682 84.2037H748.032V99H744.682V84.2037ZM758.575 90.8587H764.276V97.2697C763.507 97.9352 762.605 98.4528 761.57 98.8225C760.549 99.1775 759.381 99.3549 758.065 99.3549C756.852 99.3549 755.765 99.1701 754.804 98.8003C753.857 98.4158 753.051 97.8834 752.386 97.2031C751.72 96.5229 751.21 95.7095 750.855 94.763C750.515 93.8165 750.345 92.7739 750.345 91.6351C750.345 90.526 750.53 89.4981 750.899 88.5516C751.269 87.6052 751.794 86.7844 752.474 86.0893C753.155 85.3794 753.961 84.8248 754.892 84.4255C755.824 84.0262 756.859 83.8266 757.998 83.8266C759.344 83.8266 760.52 84.078 761.525 84.5808C762.546 85.0689 763.389 85.7565 764.054 86.6439L761.791 88.7957C761.318 88.2337 760.793 87.7752 760.216 87.4203C759.654 87.0654 758.959 86.8879 758.131 86.8879C757.451 86.8879 756.844 87.0136 756.312 87.265C755.78 87.5164 755.329 87.8566 754.959 88.2854C754.589 88.7143 754.308 89.2171 754.116 89.7939C753.924 90.3707 753.828 90.9844 753.828 91.6351C753.828 92.345 753.938 92.9883 754.16 93.5651C754.382 94.1418 754.693 94.6373 755.092 95.0514C755.491 95.4507 755.957 95.7612 756.49 95.9831C757.037 96.2049 757.628 96.3158 758.264 96.3158C758.856 96.3158 759.396 96.2493 759.884 96.1162C760.372 95.9683 760.808 95.739 761.192 95.4285V93.5651H758.575V90.8587ZM766.952 84.2037H770.302V89.8826H776.713V84.2037H780.063V99H776.713V92.9218H770.302V99H766.952V84.2037ZM786.756 87.1541H781.964V84.2037H794.897V87.1541H790.127V99H786.756V87.1541ZM796.805 84.2037H800.154V96.0274H807.231V99H796.805V84.2037ZM809.196 84.2037H812.546V99H809.196V84.2037ZM815.435 84.2037H818.63L825.041 93.8091V84.2037H828.346V99H825.307L818.741 89.2171V99H815.435V84.2037ZM831.228 84.2037H834.578V90.1045L839.524 84.2037H843.406L838.326 89.9714L844.094 99H840.035L836.086 92.5446L834.578 94.2306V99H831.228V84.2037Z" fill="white"/>
<path d="M845.631 95.4728H849.247V99H845.631V95.4728Z" fill="#6A81FF"/>
<g filter="url(#filter2_f_417_799)">
<circle cx="214.5" cy="214.5" r="214.5" transform="matrix(-1 0 0 1 1737 109)" fill="#6A7AFF"/>
</g>
</g>
<defs>
<filter id="filter0_f_417_799" x="27.4628" y="-99.5906" width="1005.16" height="964.991" filterUnits="userSpaceOnUse" color-interpolation-filters="sRGB">
<feFlood flood-opacity="0" result="BackgroundImageFix"/>
<feBlend mode="normal" in="SourceGraphic" in2="BackgroundImageFix" result="shape"/>
<feGaussianBlur stdDeviation="102.601" result="effect1_foregroundBlur_417_799"/>
</filter>
<filter id="filter1_f_417_799" x="-402.73" y="-534.73" width="878.536" height="878.536" filterUnits="userSpaceOnUse" color-interpolation-filters="sRGB">
<feFlood flood-opacity="0" result="BackgroundImageFix"/>
<feBlend mode="normal" in="SourceGraphic" in2="BackgroundImageFix" result="shape"/>
<feGaussianBlur stdDeviation="125.865" result="effect1_foregroundBlur_417_799"/>
</filter>
<filter id="filter2_f_417_799" x="977.687" y="-221.313" width="1089.63" height="1089.63" filterUnits="userSpaceOnUse" color-interpolation-filters="sRGB">
<feFlood flood-opacity="0" result="BackgroundImageFix"/>
<feBlend mode="normal" in="SourceGraphic" in2="BackgroundImageFix" result="shape"/>
<feGaussianBlur stdDeviation="165.157" result="effect1_foregroundBlur_417_799"/>
</filter>
<linearGradient id="paint0_linear_417_799" x1="1399.06" y1="111.964" x2="1533.29" y2="-59.0111" gradientUnits="userSpaceOnUse">
<stop offset="0.1173" stop-color="#6978FF"/>
<stop offset="0.1876" stop-color="#6087FF"/>
<stop offset="0.3484" stop-color="#4DA5FF"/>
<stop offset="0.5073" stop-color="#40BAFF"/>
<stop offset="0.6622" stop-color="#39C7FF"/>
<stop offset="0.8083" stop-color="#36CBFF"/>
<stop offset="1" stop-color="#67FFFC"/>
</linearGradient>
<linearGradient id="paint1_linear_417_799" x1="2149.61" y1="475.781" x2="1359.79" y2="125.381" gradientUnits="userSpaceOnUse">
<stop offset="0.497995" stop-color="#6978FF"/>
<stop offset="0.528171" stop-color="#6087FF"/>
<stop offset="0.580146" stop-color="#4DA5FF"/>
<stop offset="0.642549" stop-color="#40BAFF"/>
<stop offset="0.765115" stop-color="#39C7FF"/>
<stop offset="0.860122" stop-color="#36CBFF"/>
<stop offset="1" stop-color="#67FFFC"/>
</linearGradient>
<linearGradient id="paint2_linear_417_799" x1="-209.878" y1="-78.0567" x2="437.998" y2="767.623" gradientUnits="userSpaceOnUse">
<stop offset="0.497995" stop-color="#6978FF"/>
<stop offset="0.528171" stop-color="#6087FF"/>
<stop offset="0.580146" stop-color="#4DA5FF"/>
<stop offset="0.642549" stop-color="#40BAFF"/>
<stop offset="0.765115" stop-color="#39C7FF"/>
<stop offset="0.860122" stop-color="#36CBFF"/>
<stop offset="1" stop-color="#67FFFC"/>
</linearGradient>
<linearGradient id="paint3_linear_417_799" x1="-179.839" y1="-89.8419" x2="219.074" y2="179.716" gradientUnits="userSpaceOnUse">
<stop offset="0.1173" stop-color="#6978FF"/>
<stop offset="0.1876" stop-color="#6087FF"/>
<stop offset="0.3484" stop-color="#4DA5FF"/>
<stop offset="0.5073" stop-color="#40BAFF"/>
<stop offset="0.6622" stop-color="#39C7FF"/>
<stop offset="0.8083" stop-color="#36CBFF"/>
<stop offset="1" stop-color="#67FFFC"/>
</linearGradient>
<linearGradient id="paint4_linear_417_799" x1="380.328" y1="-243.309" x2="-591.154" y2="836.068" gradientUnits="userSpaceOnUse">
<stop offset="0.386" stop-color="#6978FF"/>
<stop offset="0.4432" stop-color="#6284FF"/>
<stop offset="0.6461" stop-color="#4AABFF"/>
<stop offset="0.8086" stop-color="#3BC2FF"/>
<stop offset="0.9094" stop-color="#36CBFF"/>
<stop offset="1" stop-color="#67FFFC"/>
</linearGradient>
<linearGradient id="paint5_linear_417_799" x1="973.371" y1="135.191" x2="589" y2="135.191" gradientUnits="userSpaceOnUse">
<stop stop-color="#5C8FFF"/>
<stop offset="1" stop-color="#68FFFC"/>
</linearGradient>
<linearGradient id="paint6_linear_417_799" x1="693.164" y1="86.8806" x2="705.455" y2="99.8351" gradientUnits="userSpaceOnUse">
<stop offset="0.1173" stop-color="#6978FF"/>
<stop offset="0.1876" stop-color="#6087FF"/>
<stop offset="0.3484" stop-color="#4DA5FF"/>
<stop offset="0.5073" stop-color="#40BAFF"/>
<stop offset="0.6622" stop-color="#39C7FF"/>
<stop offset="0.8083" stop-color="#36CBFF"/>
<stop offset="1" stop-color="#67FFFC"/>
</linearGradient>
<linearGradient id="paint7_linear_417_799" x1="690.352" y1="108.859" x2="726.694" y2="69.0111" gradientUnits="userSpaceOnUse">
<stop offset="0.386" stop-color="#6978FF"/>
<stop offset="0.4432" stop-color="#6284FF"/>
<stop offset="0.6461" stop-color="#4AABFF"/>
<stop offset="0.8086" stop-color="#3BC2FF"/>
<stop offset="0.9094" stop-color="#36CBFF"/>
<stop offset="1" stop-color="#67FFFC"/>
</linearGradient>
<linearGradient id="paint8_linear_417_799" x1="724.306" y1="88.0706" x2="695.808" y2="116.291" gradientUnits="userSpaceOnUse">
<stop offset="0.0470588" stop-color="#6978FF"/>
<stop offset="0.1245" stop-color="#6087FF"/>
<stop offset="0.3016" stop-color="#4DA5FF"/>
<stop offset="0.4767" stop-color="#40BAFF"/>
<stop offset="0.6473" stop-color="#39C7FF"/>
<stop offset="0.8083" stop-color="#36CBFF"/>
<stop offset="1" stop-color="#67FFFC"/>
</linearGradient>
<linearGradient id="paint9_linear_417_799" x1="699.779" y1="82.8864" x2="704.041" y2="88.948" gradientUnits="userSpaceOnUse">
<stop offset="0.1173" stop-color="#6978FF"/>
<stop offset="0.1876" stop-color="#6087FF"/>
<stop offset="0.3484" stop-color="#4DA5FF"/>
<stop offset="0.5073" stop-color="#40BAFF"/>
<stop offset="0.6622" stop-color="#39C7FF"/>
<stop offset="0.8083" stop-color="#36CBFF"/>
<stop offset="1" stop-color="#67FFFC"/>
</linearGradient>
<linearGradient id="paint10_linear_417_799" x1="682.329" y1="102.844" x2="699.418" y2="81.399" gradientUnits="userSpaceOnUse">
<stop offset="0.3128" stop-color="#6978FF"/>
<stop offset="0.3633" stop-color="#6087FF"/>
<stop offset="0.4785" stop-color="#4DA5FF"/>
<stop offset="0.5925" stop-color="#40BAFF"/>
<stop offset="0.7035" stop-color="#39C7FF"/>
<stop offset="0.8083" stop-color="#36CBFF"/>
<stop offset="1" stop-color="#67FFFC"/>
</linearGradient>
<linearGradient id="paint11_linear_417_799" x1="700.229" y1="70.0936" x2="681.883" y2="92.5266" gradientUnits="userSpaceOnUse">
<stop offset="0.00761283" stop-color="#6978FF"/>
<stop offset="0.0891092" stop-color="#6087FF"/>
<stop offset="0.2754" stop-color="#4DA5FF"/>
<stop offset="0.4596" stop-color="#40BAFF"/>
<stop offset="0.639" stop-color="#39C7FF"/>
<stop offset="0.8083" stop-color="#36CBFF"/>
<stop offset="1" stop-color="#67FFFC"/>
</linearGradient>
<clipPath id="clip0_417_799">
<rect width="1584" height="268.213" fill="white"/>
</clipPath>
</defs>
</svg>
