<svg width="1584" height="269" viewBox="0 0 1584 269" fill="none" xmlns="http://www.w3.org/2000/svg">
<g clip-path="url(#clip0_417_799)">
<rect width="1584" height="268.213" fill="black"/>
<path d="M1528.73 -93.1951C1503.17 -108.351 1470.95 -101.044 1457.31 -76.9949L1359.73 99.3549C1346.21 123.795 1356.3 155.87 1382.37 171.33C1407.92 186.486 1440.14 179.178 1453.79 155.13L1551.36 -21.2203C1564.5 -45.572 1554.41 -77.6478 1528.73 -93.1951Z" fill="url(#paint0_linear_417_799)"/>
<path d="M1734.94 386.816C1760.86 402.201 1792.51 395.015 1805.96 370.693C1819.14 346.847 1808.99 314.536 1783.45 299.063L1521.3 143.793C1495.38 128.408 1499.96 131.123 1474.54 116.04C1416.6 81.6498 1404.47 19.3433 1417.53 -4.89179L1357.15 104.322C1343.97 128.168 1354.12 160.479 1379.66 175.951L1734.94 386.816Z" fill="url(#paint1_linear_417_799)"/>
<g filter="url(#filter0_f_417_799)">
<path d="M368.687 123.452C336.998 101.237 286.469 99.5406 255.305 119.646C224.751 139.357 225.178 173.795 256.251 195.989L576.865 420.341C608.554 442.556 602.962 438.636 634.03 460.416C704.864 510.073 694.575 574.427 664.027 594.553L803.961 504.276C834.514 484.564 834.087 450.127 803.014 427.932L368.687 123.452Z" fill="url(#paint2_linear_417_799)"/>
</g>
<path d="M-83.6474 -2.60309C-69.4779 -23.8415 -41.7745 -27.5092 -22.2327 -10.7338L153.416 142.54C173.008 159.696 177.14 190.903 162.687 212.567C148.517 233.805 120.814 237.473 101.272 220.697L-74.3765 67.4238C-93.5845 50.6042 -97.7665 19.0159 -83.6474 -2.60309Z" fill="url(#paint3_linear_417_799)"/>
<path d="M-34.7207 509.391C-49.1736 531.054 -76.5431 534.678 -96.1353 517.522C-115.343 500.702 -119.525 469.114 -105.406 447.495L40.5397 228.739C54.9925 207.076 52.4419 210.899 66.6113 189.66C98.9178 141.237 85.0499 82.6615 65.7915 65.4613L153.764 142.495C172.972 159.314 177.154 190.903 163.035 212.522L-34.7207 509.391Z" fill="url(#paint4_linear_417_799)"/>
<g filter="url(#filter1_f_417_799)">
<circle cx="187.539" cy="187.539" r="187.539" transform="matrix(-1 0 0 1 224.077 -283)" fill="#3BC4FF"/>
</g>
<path d="M588.587 138.163V174.581H581.283V150.894L571.526 174.581H565.996L556.187 150.894V174.581H548.882V138.163H557.178L568.761 165.242L580.344 138.163H588.587ZM599.513 142.233C598.226 142.233 597.148 141.833 596.278 141.033C595.444 140.198 595.026 139.172 595.026 137.955C595.026 136.737 595.444 135.728 596.278 134.928C597.148 134.094 598.226 133.676 599.513 133.676C600.8 133.676 601.861 134.094 602.696 134.928C603.566 135.728 604 136.737 604 137.955C604 139.172 603.566 140.198 602.696 141.033C601.861 141.833 600.8 142.233 599.513 142.233ZM603.113 145.676V174.581H595.809V145.676H603.113ZM621.391 175.051C619.026 175.051 616.904 174.633 615.026 173.798C613.148 172.929 611.652 171.764 610.539 170.303C609.461 168.842 608.869 167.224 608.765 165.451H616.122C616.261 166.564 616.8 167.485 617.739 168.216C618.713 168.946 619.913 169.311 621.339 169.311C622.73 169.311 623.809 169.033 624.574 168.477C625.374 167.92 625.774 167.207 625.774 166.337C625.774 165.398 625.287 164.703 624.313 164.25C623.374 163.764 621.861 163.242 619.774 162.685C617.617 162.164 615.843 161.624 614.452 161.068C613.095 160.511 611.913 159.659 610.904 158.511C609.93 157.363 609.443 155.816 609.443 153.868C609.443 152.268 609.895 150.807 610.8 149.485C611.739 148.163 613.061 147.12 614.765 146.355C616.504 145.589 618.539 145.207 620.869 145.207C624.313 145.207 627.061 146.076 629.113 147.816C631.165 149.52 632.296 151.833 632.504 154.755H625.513C625.409 153.607 624.922 152.703 624.052 152.042C623.217 151.346 622.087 150.998 620.661 150.998C619.339 150.998 618.313 151.242 617.582 151.729C616.887 152.216 616.539 152.894 616.539 153.763C616.539 154.737 617.026 155.485 618 156.007C618.974 156.494 620.487 156.998 622.539 157.52C624.626 158.042 626.348 158.581 627.704 159.137C629.061 159.694 630.226 160.563 631.2 161.746C632.209 162.894 632.73 164.424 632.765 166.337C632.765 168.007 632.296 169.503 631.356 170.824C630.452 172.146 629.13 173.19 627.391 173.955C625.687 174.685 623.687 175.051 621.391 175.051ZM649.822 175.051C647.457 175.051 645.335 174.633 643.457 173.798C641.579 172.929 640.083 171.764 638.97 170.303C637.892 168.842 637.3 167.224 637.196 165.451H644.553C644.692 166.564 645.231 167.485 646.17 168.216C647.144 168.946 648.344 169.311 649.77 169.311C651.161 169.311 652.24 169.033 653.005 168.477C653.805 167.92 654.205 167.207 654.205 166.337C654.205 165.398 653.718 164.703 652.744 164.25C651.805 163.764 650.292 163.242 648.205 162.685C646.048 162.164 644.274 161.624 642.883 161.068C641.526 160.511 640.344 159.659 639.335 158.511C638.361 157.363 637.874 155.816 637.874 153.868C637.874 152.268 638.326 150.807 639.231 149.485C640.17 148.163 641.492 147.12 643.196 146.355C644.935 145.589 646.97 145.207 649.3 145.207C652.744 145.207 655.492 146.076 657.544 147.816C659.596 149.52 660.727 151.833 660.935 154.755H653.944C653.84 153.607 653.353 152.703 652.483 152.042C651.648 151.346 650.518 150.998 649.092 150.998C647.77 150.998 646.744 151.242 646.013 151.729C645.318 152.216 644.97 152.894 644.97 153.763C644.97 154.737 645.457 155.485 646.431 156.007C647.405 156.494 648.918 156.998 650.97 157.52C653.057 158.042 654.779 158.581 656.135 159.137C657.492 159.694 658.657 160.563 659.631 161.746C660.64 162.894 661.161 164.424 661.196 166.337C661.196 168.007 660.727 169.503 659.788 170.824C658.883 172.146 657.561 173.19 655.822 173.955C654.118 174.685 652.118 175.051 649.822 175.051ZM670.897 142.233C669.61 142.233 668.531 141.833 667.662 141.033C666.827 140.198 666.41 139.172 666.41 137.955C666.41 136.737 666.827 135.728 667.662 134.928C668.531 134.094 669.61 133.676 670.897 133.676C672.184 133.676 673.244 134.094 674.079 134.928C674.949 135.728 675.384 136.737 675.384 137.955C675.384 139.172 674.949 140.198 674.079 141.033C673.244 141.833 672.184 142.233 670.897 142.233ZM674.497 145.676V174.581H667.192V145.676H674.497ZM694.548 175.051C691.766 175.051 689.261 174.442 687.035 173.225C684.809 171.972 683.053 170.216 681.766 167.955C680.513 165.694 679.887 163.085 679.887 160.129C679.887 157.172 680.531 154.563 681.818 152.303C683.14 150.042 684.931 148.302 687.192 147.085C689.453 145.833 691.974 145.207 694.757 145.207C697.54 145.207 700.062 145.833 702.322 147.085C704.583 148.302 706.357 150.042 707.644 152.303C708.966 154.563 709.627 157.172 709.627 160.129C709.627 163.085 708.949 165.694 707.592 167.955C706.27 170.216 704.462 171.972 702.166 173.225C699.905 174.442 697.366 175.051 694.548 175.051ZM694.548 168.685C695.87 168.685 697.105 168.372 698.253 167.746C699.435 167.085 700.375 166.111 701.07 164.824C701.766 163.537 702.114 161.972 702.114 160.129C702.114 157.381 701.383 155.276 699.922 153.816C698.496 152.32 696.74 151.572 694.653 151.572C692.566 151.572 690.809 152.32 689.383 153.816C687.992 155.276 687.296 157.381 687.296 160.129C687.296 162.877 687.974 164.998 689.331 166.494C690.722 167.955 692.461 168.685 694.548 168.685ZM731.003 145.259C734.446 145.259 737.229 146.355 739.35 148.546C741.472 150.703 742.533 153.729 742.533 157.624V174.581H735.229V158.616C735.229 156.32 734.655 154.563 733.507 153.346C732.359 152.094 730.794 151.468 728.811 151.468C726.794 151.468 725.194 152.094 724.011 153.346C722.863 154.563 722.289 156.32 722.289 158.616V174.581H714.985V145.676H722.289V149.276C723.263 148.024 724.498 147.05 725.994 146.355C727.524 145.624 729.194 145.259 731.003 145.259ZM774.486 174.946C771.946 174.946 769.651 174.511 767.598 173.642C765.581 172.772 763.981 171.52 762.798 169.885C761.616 168.251 761.007 166.32 760.972 164.094H768.798C768.903 165.59 769.425 166.772 770.364 167.642C771.338 168.511 772.659 168.946 774.329 168.946C776.033 168.946 777.373 168.546 778.346 167.746C779.32 166.911 779.807 165.833 779.807 164.511C779.807 163.433 779.477 162.546 778.816 161.85C778.155 161.155 777.32 160.616 776.312 160.233C775.338 159.816 773.981 159.363 772.242 158.877C769.877 158.181 767.946 157.503 766.451 156.842C764.99 156.146 763.72 155.12 762.642 153.763C761.598 152.372 761.077 150.529 761.077 148.233C761.077 146.076 761.616 144.198 762.694 142.598C763.772 140.998 765.285 139.781 767.233 138.946C769.181 138.076 771.407 137.641 773.912 137.641C777.668 137.641 780.712 138.563 783.042 140.407C785.407 142.215 786.712 144.755 786.955 148.024H778.92C778.851 146.772 778.312 145.746 777.303 144.946C776.329 144.111 775.025 143.694 773.39 143.694C771.964 143.694 770.816 144.059 769.946 144.789C769.112 145.52 768.694 146.581 768.694 147.972C768.694 148.946 769.007 149.763 769.633 150.424C770.294 151.05 771.094 151.572 772.033 151.989C773.007 152.372 774.364 152.824 776.103 153.346C778.468 154.042 780.399 154.737 781.894 155.433C783.39 156.129 784.677 157.172 785.755 158.563C786.834 159.955 787.373 161.781 787.373 164.042C787.373 165.99 786.868 167.798 785.86 169.468C784.851 171.138 783.373 172.477 781.425 173.485C779.477 174.459 777.164 174.946 774.486 174.946ZM802.21 151.676V165.659C802.21 166.633 802.436 167.346 802.888 167.798C803.375 168.216 804.175 168.424 805.288 168.424H808.679V174.581H804.088C797.931 174.581 794.853 171.59 794.853 165.607V151.676H791.41V145.676H794.853V138.528H802.21V145.676H808.679V151.676H802.21ZM812.055 160.024C812.055 157.103 812.629 154.511 813.777 152.25C814.959 149.989 816.542 148.25 818.525 147.033C820.542 145.815 822.785 145.207 825.255 145.207C827.412 145.207 829.29 145.642 830.89 146.511C832.525 147.381 833.829 148.476 834.803 149.798V145.676H842.16V174.581H834.803V170.355C833.864 171.711 832.559 172.842 830.89 173.746C829.255 174.616 827.359 175.051 825.203 175.051C822.768 175.051 820.542 174.425 818.525 173.172C816.542 171.92 814.959 170.164 813.777 167.903C812.629 165.607 812.055 162.981 812.055 160.024ZM834.803 160.129C834.803 158.355 834.455 156.842 833.759 155.59C833.064 154.303 832.125 153.329 830.942 152.668C829.759 151.972 828.49 151.624 827.133 151.624C825.777 151.624 824.525 151.955 823.377 152.616C822.229 153.276 821.29 154.25 820.559 155.537C819.864 156.79 819.516 158.285 819.516 160.024C819.516 161.764 819.864 163.294 820.559 164.616C821.29 165.903 822.229 166.894 823.377 167.59C824.559 168.285 825.812 168.633 827.133 168.633C828.49 168.633 829.759 168.303 830.942 167.642C832.125 166.946 833.064 165.972 833.759 164.72C834.455 163.433 834.803 161.903 834.803 160.129ZM857.798 151.676V165.659C857.798 166.633 858.024 167.346 858.476 167.798C858.963 168.216 859.763 168.424 860.876 168.424H864.268V174.581H859.676C853.52 174.581 850.441 171.59 850.441 165.607V151.676H846.998V145.676H850.441V138.528H857.798V145.676H864.268V151.676H857.798ZM896.391 159.503C896.391 160.546 896.322 161.485 896.183 162.32H875.052C875.226 164.407 875.956 166.042 877.243 167.224C878.53 168.407 880.113 168.998 881.991 168.998C884.704 168.998 886.635 167.833 887.783 165.503H895.661C894.826 168.285 893.226 170.581 890.861 172.39C888.496 174.164 885.591 175.051 882.148 175.051C879.365 175.051 876.861 174.442 874.635 173.225C872.443 171.972 870.721 170.216 869.469 167.955C868.252 165.694 867.643 163.085 867.643 160.129C867.643 157.137 868.252 154.511 869.469 152.25C870.687 149.989 872.391 148.25 874.582 147.033C876.774 145.815 879.295 145.207 882.148 145.207C884.896 145.207 887.348 145.798 889.504 146.981C891.696 148.163 893.383 149.85 894.565 152.042C895.783 154.198 896.391 156.685 896.391 159.503ZM888.826 157.416C888.791 155.537 888.113 154.042 886.791 152.929C885.469 151.781 883.852 151.207 881.939 151.207C880.13 151.207 878.6 151.763 877.348 152.876C876.13 153.955 875.382 155.468 875.104 157.416H888.826ZM937.619 145.259C941.167 145.259 944.019 146.355 946.176 148.546C948.367 150.703 949.463 153.729 949.463 157.624V174.581H942.158V158.616C942.158 156.355 941.584 154.633 940.436 153.45C939.289 152.233 937.723 151.624 935.741 151.624C933.758 151.624 932.175 152.233 930.993 153.45C929.845 154.633 929.271 156.355 929.271 158.616V174.581H921.967V158.616C921.967 156.355 921.393 154.633 920.245 153.45C919.097 152.233 917.532 151.624 915.549 151.624C913.532 151.624 911.932 152.233 910.749 153.45C909.601 154.633 909.027 156.355 909.027 158.616V174.581H901.723V145.676H909.027V149.172C909.966 147.955 911.167 146.998 912.627 146.302C914.123 145.607 915.758 145.259 917.532 145.259C919.793 145.259 921.81 145.746 923.584 146.72C925.358 147.659 926.732 149.016 927.706 150.789C928.645 149.12 930.002 147.781 931.775 146.772C933.584 145.763 935.532 145.259 937.619 145.259ZM983.264 159.503C983.264 160.546 983.194 161.485 983.055 162.32H961.925C962.098 164.407 962.829 166.042 964.116 167.224C965.403 168.407 966.986 168.998 968.864 168.998C971.577 168.998 973.507 167.833 974.655 165.503H982.534C981.699 168.285 980.099 170.581 977.733 172.39C975.368 174.164 972.464 175.051 969.02 175.051C966.238 175.051 963.733 174.442 961.507 173.225C959.316 171.972 957.594 170.216 956.342 167.955C955.124 165.694 954.516 163.085 954.516 160.129C954.516 157.137 955.124 154.511 956.342 152.25C957.559 149.989 959.264 148.25 961.455 147.033C963.646 145.815 966.168 145.207 969.02 145.207C971.768 145.207 974.22 145.798 976.377 146.981C978.568 148.163 980.255 149.85 981.438 152.042C982.655 154.198 983.264 156.685 983.264 159.503ZM975.699 157.416C975.664 155.537 974.986 154.042 973.664 152.929C972.342 151.781 970.725 151.207 968.812 151.207C967.003 151.207 965.472 151.763 964.22 152.876C963.003 153.955 962.255 155.468 961.977 157.416H975.699ZM1004.61 145.259C1008.06 145.259 1010.84 146.355 1012.96 148.546C1015.08 150.703 1016.14 153.729 1016.14 157.624V174.581H1008.84V158.616C1008.84 156.32 1008.27 154.563 1007.12 153.346C1005.97 152.094 1004.4 151.468 1002.42 151.468C1000.4 151.468 998.804 152.094 997.622 153.346C996.474 154.563 995.9 156.32 995.9 158.616V174.581H988.596V145.676H995.9V149.276C996.874 148.024 998.109 147.05 999.604 146.355C1001.13 145.624 1002.8 145.259 1004.61 145.259ZM1031.59 151.676V165.659C1031.59 166.633 1031.82 167.346 1032.27 167.798C1032.76 168.216 1033.56 168.424 1034.67 168.424H1038.06V174.581H1033.47C1027.32 174.581 1024.24 171.59 1024.24 165.607V151.676H1020.79V145.676H1024.24V138.528H1031.59V145.676H1038.06V151.676H1031.59Z" fill="url(#paint5_linear_417_799)"/>
<path d="M697.916 91.2406C697.229 91.8843 697.229 92.9529 697.916 93.6095L702.969 98.3472C703.67 99.0038 704.796 99.0038 705.496 98.3472C706.183 97.7035 706.183 96.6349 705.496 95.9783L700.443 91.2406C699.756 90.5969 698.616 90.5969 697.916 91.2406Z" fill="url(#paint6_linear_417_799)"/>
<path d="M715.095 89.3482C715.796 88.6916 715.796 87.636 715.095 86.9794C714.409 86.3357 713.269 86.3357 712.569 86.9794L705.496 93.6096C704.796 94.2662 704.92 94.1503 704.233 94.794C702.667 96.2617 700.525 96.03 699.825 95.3863L702.97 98.3345C703.656 98.9782 704.796 98.9782 705.496 98.3345L715.095 89.3482Z" fill="url(#paint7_linear_417_799)"/>
<path d="M725.23 87.0184C724.543 86.3747 723.404 86.3747 722.703 87.0184L717.663 91.7562C716.963 92.4127 716.963 93.4684 717.663 94.125C718.35 94.7687 719.49 94.7687 720.19 94.125L725.244 89.3873C725.917 88.7307 725.917 87.6621 725.23 87.0184Z" fill="url(#paint8_linear_417_799)"/>
<path d="M705.538 88.8983C706.224 88.2546 706.224 87.1861 705.538 86.5295L700.484 81.7918C699.784 81.1352 698.658 81.1352 697.957 81.7918C697.271 82.4355 697.271 83.504 697.957 84.1606L703.011 88.8983C703.711 89.5421 704.837 89.5421 705.538 88.8983Z" fill="url(#paint9_linear_417_799)"/>
<path d="M688.358 90.8032C687.658 91.4598 687.658 92.5155 688.358 93.172C689.045 93.8158 690.185 93.8158 690.885 93.172L697.957 86.5289C698.658 85.8723 698.534 85.9882 699.221 85.3445C700.786 83.8768 702.929 84.1086 703.629 84.7523L700.484 81.8041C699.798 81.1604 698.658 81.1604 697.957 81.8041L688.358 90.8032Z" fill="url(#paint10_linear_417_799)"/>
<path d="M678.292 93.1465C678.979 93.7902 680.119 93.7902 680.819 93.1465L685.873 88.4088C686.573 87.7522 686.573 86.6965 685.873 86.0399C685.186 85.3962 684.046 85.3962 683.346 86.0399L678.292 90.7776C677.606 91.4342 677.606 92.4899 678.292 93.1465Z" fill="url(#paint11_linear_417_799)"/>
<path d="M732.291 84.2037H735.641V96.0274H742.717V99H732.291V84.2037ZM744.682 84.2037H748.032V99H744.682V84.2037ZM758.575 90.8587H764.276V97.2697C763.507 97.9352 762.605 98.4528 761.57 98.8225C760.549 99.1775 759.381 99.3549 758.065 99.3549C756.852 99.3549 755.765 99.1701 754.804 98.8003C753.857 98.4158 753.051 97.8834 752.386 97.2031C751.72 96.5229 751.21 95.7095 750.855 94.763C750.515 93.8165 750.345 92.7739 750.345 91.6351C750.345 90.526 750.53 89.4981 750.899 88.5516C751.269 87.6052 751.794 86.7844 752.474 86.0893C753.155 85.3794 753.961 84.8248 754.892 84.4255C755.824 84.0262 756.859 83.8266 757.998 83.8266C759.344 83.8266 760.52 84.078 761.525 84.5808C762.546 85.0689 763.389 85.7565 764.054 86.6439L761.791 88.7957C761.318 88.2337 760.793 87.7752 760.216 87.4203C759.654 87.0654 758.959 86.8879 758.131 86.8879C757.451 86.8879 756.844 87.0136 756.312 87.265C755.78 87.5164 755.329 87.8566 754.959 88.2854C754.589 88.7143 754.308 89.2171 754.116 89.7939C753.924 90.3707 753.828 90.9844 753.828 91.6351C753.828 92.345 753.938 92.9883 754.16 93.5651C754.382 94.1418 754.693 94.6373 755.092 95.0514C755.491 95.4507 755.957 95.7612 756.49 95.9831C757.037 96.2049 757.628 96.3158 758.264 96.3158C758.856 96.3158 759.396 96.2493 759.884 96.1162C760.372 95.9683 760.808 95.739 761.192 95.4285V93.5651H758.575V90.8587ZM766.952 84.2037H770.302V89.8826H776.713V84.2037H780.063V99H776.713V92.9218H770.302V99H766.952V84.2037ZM786.756 87.1541H781.964V84.2037H794.897V87.1541H790.127V99H786.756V87.1541ZM796.805 84.2037H800.154V96.0274H807.231V99H796.805V84.2037ZM809.196 84.2037H812.546V99H809.196V84.2037ZM815.435 84.2037H818.63L825.041 93.8091V84.2037H828.346V99H825.307L818.741 89.2171V99H815.435V84.2037ZM831.228 84.2037H834.578V90.1045L839.524 84.2037H843.406L838.326 89.9714L844.094 99H840.035L836.086 92.5446L834.578 94.2306V99H831.228V84.2037Z" fill="white"/>
<path d="M845.631 95.4728H849.247V99H845.631V95.4728Z" fill="#6A81FF"/>
<g filter="url(#filter2_f_417_799)">
<circle cx="214.5" cy="214.5" r="214.5" transform="matrix(-1 0 0 1 1737 109)" fill="#6A7AFF"/>
</g>
</g>
<defs>
<filter id="filter0_f_417_799" x="27.4628" y="-99.5906" width="1005.16" height="964.991" filterUnits="userSpaceOnUse" color-interpolation-filters="sRGB">
<feFlood flood-opacity="0" result="BackgroundImageFix"/>
<feBlend mode="normal" in="SourceGraphic" in2="BackgroundImageFix" result="shape"/>
<feGaussianBlur stdDeviation="102.601" result="effect1_foregroundBlur_417_799"/>
</filter>
<filter id="filter1_f_417_799" x="-402.73" y="-534.73" width="878.536" height="878.536" filterUnits="userSpaceOnUse" color-interpolation-filters="sRGB">
<feFlood flood-opacity="0" result="BackgroundImageFix"/>
<feBlend mode="normal" in="SourceGraphic" in2="BackgroundImageFix" result="shape"/>
<feGaussianBlur stdDeviation="125.865" result="effect1_foregroundBlur_417_799"/>
</filter>
<filter id="filter2_f_417_799" x="977.687" y="-221.313" width="1089.63" height="1089.63" filterUnits="userSpaceOnUse" color-interpolation-filters="sRGB">
<feFlood flood-opacity="0" result="BackgroundImageFix"/>
<feBlend mode="normal" in="SourceGraphic" in2="BackgroundImageFix" result="shape"/>
<feGaussianBlur stdDeviation="165.157" result="effect1_foregroundBlur_417_799"/>
</filter>
<linearGradient id="paint0_linear_417_799" x1="1399.06" y1="111.964" x2="1533.29" y2="-59.0111" gradientUnits="userSpaceOnUse">
<stop offset="0.1173" stop-color="#6978FF"/>
<stop offset="0.1876" stop-color="#6087FF"/>
<stop offset="0.3484" stop-color="#4DA5FF"/>
<stop offset="0.5073" stop-color="#40BAFF"/>
<stop offset="0.6622" stop-color="#39C7FF"/>
<stop offset="0.8083" stop-color="#36CBFF"/>
<stop offset="1" stop-color="#67FFFC"/>
</linearGradient>
<linearGradient id="paint1_linear_417_799" x1="2149.61" y1="475.781" x2="1359.79" y2="125.381" gradientUnits="userSpaceOnUse">
<stop offset="0.497995" stop-color="#6978FF"/>
<stop offset="0.528171" stop-color="#6087FF"/>
<stop offset="0.580146" stop-color="#4DA5FF"/>
<stop offset="0.642549" stop-color="#40BAFF"/>
<stop offset="0.765115" stop-color="#39C7FF"/>
<stop offset="0.860122" stop-color="#36CBFF"/>
<stop offset="1" stop-color="#67FFFC"/>
</linearGradient>
<linearGradient id="paint2_linear_417_799" x1="-209.878" y1="-78.0567" x2="437.998" y2="767.623" gradientUnits="userSpaceOnUse">
<stop offset="0.497995" stop-color="#6978FF"/>
<stop offset="0.528171" stop-color="#6087FF"/>
<stop offset="0.580146" stop-color="#4DA5FF"/>
<stop offset="0.642549" stop-color="#40BAFF"/>
<stop offset="0.765115" stop-color="#39C7FF"/>
<stop offset="0.860122" stop-color="#36CBFF"/>
<stop offset="1" stop-color="#67FFFC"/>
</linearGradient>
<linearGradient id="paint3_linear_417_799" x1="-179.839" y1="-89.8419" x2="219.074" y2="179.716" gradientUnits="userSpaceOnUse">
<stop offset="0.1173" stop-color="#6978FF"/>
<stop offset="0.1876" stop-color="#6087FF"/>
<stop offset="0.3484" stop-color="#4DA5FF"/>
<stop offset="0.5073" stop-color="#40BAFF"/>
<stop offset="0.6622" stop-color="#39C7FF"/>
<stop offset="0.8083" stop-color="#36CBFF"/>
<stop offset="1" stop-color="#67FFFC"/>
</linearGradient>
<linearGradient id="paint4_linear_417_799" x1="380.328" y1="-243.309" x2="-591.154" y2="836.068" gradientUnits="userSpaceOnUse">
<stop offset="0.386" stop-color="#6978FF"/>
<stop offset="0.4432" stop-color="#6284FF"/>
<stop offset="0.6461" stop-color="#4AABFF"/>
<stop offset="0.8086" stop-color="#3BC2FF"/>
<stop offset="0.9094" stop-color="#36CBFF"/>
<stop offset="1" stop-color="#67FFFC"/>
</linearGradient>
<linearGradient id="paint5_linear_417_799" x1="1013.63" y1="135.191" x2="545" y2="135.191" gradientUnits="userSpaceOnUse">
<stop stop-color="#5C8FFF"/>
<stop offset="1" stop-color="#68FFFC"/>
</linearGradient>
<linearGradient id="paint6_linear_417_799" x1="693.164" y1="86.8806" x2="705.455" y2="99.8351" gradientUnits="userSpaceOnUse">
<stop offset="0.1173" stop-color="#6978FF"/>
<stop offset="0.1876" stop-color="#6087FF"/>
<stop offset="0.3484" stop-color="#4DA5FF"/>
<stop offset="0.5073" stop-color="#40BAFF"/>
<stop offset="0.6622" stop-color="#39C7FF"/>
<stop offset="0.8083" stop-color="#36CBFF"/>
<stop offset="1" stop-color="#67FFFC"/>
</linearGradient>
<linearGradient id="paint7_linear_417_799" x1="690.352" y1="108.859" x2="726.694" y2="69.0111" gradientUnits="userSpaceOnUse">
<stop offset="0.386" stop-color="#6978FF"/>
<stop offset="0.4432" stop-color="#6284FF"/>
<stop offset="0.6461" stop-color="#4AABFF"/>
<stop offset="0.8086" stop-color="#3BC2FF"/>
<stop offset="0.9094" stop-color="#36CBFF"/>
<stop offset="1" stop-color="#67FFFC"/>
</linearGradient>
<linearGradient id="paint8_linear_417_799" x1="724.306" y1="88.0706" x2="695.808" y2="116.291" gradientUnits="userSpaceOnUse">
<stop offset="0.0470588" stop-color="#6978FF"/>
<stop offset="0.1245" stop-color="#6087FF"/>
<stop offset="0.3016" stop-color="#4DA5FF"/>
<stop offset="0.4767" stop-color="#40BAFF"/>
<stop offset="0.6473" stop-color="#39C7FF"/>
<stop offset="0.8083" stop-color="#36CBFF"/>
<stop offset="1" stop-color="#67FFFC"/>
</linearGradient>
<linearGradient id="paint9_linear_417_799" x1="699.779" y1="82.8864" x2="704.041" y2="88.948" gradientUnits="userSpaceOnUse">
<stop offset="0.1173" stop-color="#6978FF"/>
<stop offset="0.1876" stop-color="#6087FF"/>
<stop offset="0.3484" stop-color="#4DA5FF"/>
<stop offset="0.5073" stop-color="#40BAFF"/>
<stop offset="0.6622" stop-color="#39C7FF"/>
<stop offset="0.8083" stop-color="#36CBFF"/>
<stop offset="1" stop-color="#67FFFC"/>
</linearGradient>
<linearGradient id="paint10_linear_417_799" x1="682.329" y1="102.844" x2="699.418" y2="81.399" gradientUnits="userSpaceOnUse">
<stop offset="0.3128" stop-color="#6978FF"/>
<stop offset="0.3633" stop-color="#6087FF"/>
<stop offset="0.4785" stop-color="#4DA5FF"/>
<stop offset="0.5925" stop-color="#40BAFF"/>
<stop offset="0.7035" stop-color="#39C7FF"/>
<stop offset="0.8083" stop-color="#36CBFF"/>
<stop offset="1" stop-color="#67FFFC"/>
</linearGradient>
<linearGradient id="paint11_linear_417_799" x1="700.229" y1="70.0936" x2="681.883" y2="92.5266" gradientUnits="userSpaceOnUse">
<stop offset="0.00761283" stop-color="#6978FF"/>
<stop offset="0.0891092" stop-color="#6087FF"/>
<stop offset="0.2754" stop-color="#4DA5FF"/>
<stop offset="0.4596" stop-color="#40BAFF"/>
<stop offset="0.639" stop-color="#39C7FF"/>
<stop offset="0.8083" stop-color="#36CBFF"/>
<stop offset="1" stop-color="#67FFFC"/>
</linearGradient>
<clipPath id="clip0_417_799">
<rect width="1584" height="268.213" fill="white"/>
</clipPath>
</defs>
</svg>
