<svg width="1584" height="269" viewBox="0 0 1584 269" fill="none" xmlns="http://www.w3.org/2000/svg">
<g clip-path="url(#clip0_417_799)">
<rect width="1584" height="268.213" fill="black"/>
<path d="M1528.73 -93.1951C1503.17 -108.351 1470.95 -101.044 1457.31 -76.9949L1359.73 99.3549C1346.21 123.795 1356.3 155.87 1382.37 171.33C1407.92 186.486 1440.14 179.178 1453.79 155.13L1551.36 -21.2203C1564.5 -45.572 1554.41 -77.6478 1528.73 -93.1951Z" fill="url(#paint0_linear_417_799)"/>
<path d="M1734.94 386.816C1760.86 402.201 1792.51 395.015 1805.96 370.693C1819.14 346.847 1808.99 314.536 1783.45 299.063L1521.3 143.793C1495.38 128.408 1499.96 131.123 1474.54 116.04C1416.6 81.6498 1404.47 19.3433 1417.53 -4.89179L1357.15 104.322C1343.97 128.168 1354.12 160.479 1379.66 175.951L1734.94 386.816Z" fill="url(#paint1_linear_417_799)"/>
<g filter="url(#filter0_f_417_799)">
<path d="M368.687 123.452C336.998 101.237 286.469 99.5406 255.305 119.646C224.751 139.357 225.178 173.795 256.251 195.989L576.865 420.341C608.554 442.556 602.962 438.636 634.03 460.416C704.864 510.073 694.575 574.427 664.027 594.553L803.961 504.276C834.514 484.564 834.087 450.127 803.014 427.932L368.687 123.452Z" fill="url(#paint2_linear_417_799)"/>
</g>
<path d="M-83.6474 -2.60309C-69.4779 -23.8415 -41.7745 -27.5092 -22.2327 -10.7338L153.416 142.54C173.008 159.696 177.14 190.903 162.687 212.567C148.517 233.805 120.814 237.473 101.272 220.697L-74.3765 67.4238C-93.5845 50.6042 -97.7665 19.0159 -83.6474 -2.60309Z" fill="url(#paint3_linear_417_799)"/>
<path d="M-34.7207 509.391C-49.1736 531.054 -76.5431 534.678 -96.1353 517.522C-115.343 500.702 -119.525 469.114 -105.406 447.495L40.5397 228.739C54.9925 207.076 52.4419 210.899 66.6113 189.66C98.9178 141.237 85.0499 82.6615 65.7915 65.4613L153.764 142.495C172.972 159.314 177.154 190.903 163.035 212.522L-34.7207 509.391Z" fill="url(#paint4_linear_417_799)"/>
<g filter="url(#filter1_f_417_799)">
<circle cx="187.539" cy="187.539" r="187.539" transform="matrix(-1 0 0 1 224.077 -283)" fill="#3BC4FF"/>
</g>
<path d="M604.482 149.433C604.482 151.381 604.012 153.207 603.073 154.911C602.169 156.616 600.725 157.99 598.743 159.033C596.795 160.077 594.325 160.598 591.334 160.598H585.229V174.581H577.925V138.163H591.334C594.151 138.163 596.551 138.65 598.534 139.624C600.516 140.598 601.995 141.937 602.969 143.642C603.977 145.346 604.482 147.276 604.482 149.433ZM591.021 154.703C593.038 154.703 594.534 154.25 595.508 153.346C596.482 152.407 596.969 151.103 596.969 149.433C596.969 145.885 594.986 144.111 591.021 144.111H585.229V154.703H591.021ZM636.538 159.503C636.538 160.546 636.468 161.485 636.329 162.32H615.198C615.372 164.407 616.103 166.042 617.39 167.224C618.677 168.407 620.259 168.998 622.137 168.998C624.851 168.998 626.781 167.833 627.929 165.503H635.807C634.972 168.285 633.372 170.581 631.007 172.39C628.642 174.164 625.738 175.051 622.294 175.051C619.511 175.051 617.007 174.442 614.781 173.225C612.59 171.972 610.868 170.216 609.616 167.955C608.398 165.694 607.789 163.085 607.789 160.129C607.789 157.137 608.398 154.511 609.616 152.25C610.833 149.989 612.537 148.25 614.729 147.033C616.92 145.815 619.442 145.207 622.294 145.207C625.042 145.207 627.494 145.798 629.651 146.981C631.842 148.163 633.529 149.85 634.712 152.042C635.929 154.198 636.538 156.685 636.538 159.503ZM628.972 157.416C628.938 155.537 628.259 154.042 626.938 152.929C625.616 151.781 623.998 151.207 622.085 151.207C620.277 151.207 618.746 151.763 617.494 152.876C616.277 153.955 615.529 155.468 615.25 157.416H628.972ZM653.191 145.207C655.348 145.207 657.243 145.642 658.878 146.511C660.513 147.346 661.8 148.442 662.739 149.798V145.676H670.096V174.79C670.096 177.468 669.557 179.851 668.478 181.938C667.4 184.059 665.783 185.729 663.626 186.946C661.469 188.199 658.861 188.825 655.8 188.825C651.695 188.825 648.321 187.868 645.678 185.955C643.069 184.042 641.591 181.433 641.243 178.129H648.495C648.878 179.451 649.695 180.494 650.948 181.259C652.235 182.059 653.782 182.459 655.591 182.459C657.713 182.459 659.435 181.816 660.756 180.529C662.078 179.277 662.739 177.364 662.739 174.79V170.303C661.8 171.659 660.496 172.79 658.826 173.694C657.191 174.598 655.313 175.051 653.191 175.051C650.756 175.051 648.53 174.425 646.513 173.172C644.495 171.92 642.895 170.164 641.713 167.903C640.565 165.607 639.991 162.981 639.991 160.024C639.991 157.103 640.565 154.511 641.713 152.25C642.895 149.989 644.478 148.25 646.461 147.033C648.478 145.815 650.722 145.207 653.191 145.207ZM662.739 160.129C662.739 158.355 662.391 156.842 661.696 155.59C661 154.303 660.061 153.329 658.878 152.668C657.696 151.972 656.426 151.624 655.069 151.624C653.713 151.624 652.461 151.955 651.313 152.616C650.165 153.276 649.226 154.25 648.495 155.537C647.8 156.79 647.452 158.285 647.452 160.024C647.452 161.764 647.8 163.294 648.495 164.616C649.226 165.903 650.165 166.894 651.313 167.59C652.495 168.285 653.748 168.633 655.069 168.633C656.426 168.633 657.696 168.303 658.878 167.642C660.061 166.946 661 165.972 661.696 164.72C662.391 163.433 662.739 161.903 662.739 160.129ZM675.351 160.024C675.351 157.103 675.925 154.511 677.073 152.25C678.256 149.989 679.838 148.25 681.821 147.033C683.838 145.815 686.082 145.207 688.552 145.207C690.708 145.207 692.586 145.642 694.186 146.511C695.821 147.381 697.126 148.476 698.1 149.798V145.676H705.456V174.581H698.1V170.355C697.16 171.711 695.856 172.842 694.186 173.746C692.552 174.616 690.656 175.051 688.499 175.051C686.065 175.051 683.838 174.425 681.821 173.172C679.838 171.92 678.256 170.164 677.073 167.903C675.925 165.607 675.351 162.981 675.351 160.024ZM698.1 160.129C698.1 158.355 697.752 156.842 697.056 155.59C696.36 154.303 695.421 153.329 694.239 152.668C693.056 151.972 691.786 151.624 690.43 151.624C689.073 151.624 687.821 151.955 686.673 152.616C685.525 153.276 684.586 154.25 683.856 155.537C683.16 156.79 682.812 158.285 682.812 160.024C682.812 161.764 683.16 163.294 683.856 164.616C684.586 165.903 685.525 166.894 686.673 167.59C687.856 168.285 689.108 168.633 690.43 168.633C691.786 168.633 693.056 168.303 694.239 167.642C695.421 166.946 696.36 165.972 697.056 164.72C697.752 163.433 698.1 161.903 698.1 160.129ZM723.651 175.051C721.286 175.051 719.164 174.633 717.286 173.798C715.408 172.929 713.912 171.764 712.799 170.303C711.721 168.842 711.129 167.224 711.025 165.451H718.382C718.521 166.564 719.06 167.485 719.999 168.216C720.973 168.946 722.173 169.311 723.599 169.311C724.99 169.311 726.069 169.033 726.834 168.477C727.634 167.92 728.034 167.207 728.034 166.337C728.034 165.398 727.547 164.703 726.573 164.25C725.634 163.764 724.121 163.242 722.034 162.685C719.877 162.164 718.103 161.624 716.712 161.068C715.355 160.511 714.173 159.659 713.164 158.511C712.19 157.363 711.703 155.816 711.703 153.868C711.703 152.268 712.155 150.807 713.06 149.485C713.999 148.163 715.321 147.12 717.025 146.355C718.764 145.589 720.799 145.207 723.129 145.207C726.573 145.207 729.321 146.076 731.373 147.816C733.425 149.52 734.556 151.833 734.764 154.755H727.773C727.669 153.607 727.182 152.703 726.312 152.042C725.477 151.346 724.347 150.998 722.921 150.998C721.599 150.998 720.573 151.242 719.842 151.729C719.147 152.216 718.799 152.894 718.799 153.763C718.799 154.737 719.286 155.485 720.26 156.007C721.234 156.494 722.747 156.998 724.799 157.52C726.886 158.042 728.608 158.581 729.964 159.137C731.321 159.694 732.486 160.563 733.46 161.746C734.469 162.894 734.99 164.424 735.025 166.337C735.025 168.007 734.556 169.503 733.617 170.824C732.712 172.146 731.39 173.19 729.651 173.955C727.947 174.685 725.947 175.051 723.651 175.051ZM768.309 145.676V174.581H760.952V170.929C760.013 172.181 758.778 173.172 757.248 173.903C755.752 174.598 754.117 174.946 752.343 174.946C750.082 174.946 748.082 174.477 746.343 173.538C744.604 172.564 743.23 171.155 742.221 169.311C741.247 167.433 740.76 165.207 740.76 162.633V145.676H748.065V161.59C748.065 163.885 748.639 165.659 749.787 166.911C750.934 168.129 752.5 168.738 754.482 168.738C756.5 168.738 758.082 168.129 759.23 166.911C760.378 165.659 760.952 163.885 760.952 161.59V145.676H768.309ZM786.577 175.051C784.211 175.051 782.09 174.633 780.211 173.798C778.333 172.929 776.837 171.764 775.724 170.303C774.646 168.842 774.055 167.224 773.95 165.451H781.307C781.446 166.564 781.985 167.485 782.924 168.216C783.898 168.946 785.098 169.311 786.524 169.311C787.916 169.311 788.994 169.033 789.759 168.477C790.559 167.92 790.959 167.207 790.959 166.337C790.959 165.398 790.472 164.703 789.498 164.25C788.559 163.764 787.046 163.242 784.959 162.685C782.803 162.164 781.029 161.624 779.637 161.068C778.281 160.511 777.098 159.659 776.089 158.511C775.116 157.363 774.629 155.816 774.629 153.868C774.629 152.268 775.081 150.807 775.985 149.485C776.924 148.163 778.246 147.12 779.95 146.355C781.69 145.589 783.724 145.207 786.055 145.207C789.498 145.207 792.246 146.076 794.298 147.816C796.351 149.52 797.481 151.833 797.69 154.755H790.698C790.594 153.607 790.107 152.703 789.237 152.042C788.403 151.346 787.272 150.998 785.846 150.998C784.524 150.998 783.498 151.242 782.768 151.729C782.072 152.216 781.724 152.894 781.724 153.763C781.724 154.737 782.211 155.485 783.185 156.007C784.159 156.494 785.672 156.998 787.724 157.52C789.811 158.042 791.533 158.581 792.89 159.137C794.246 159.694 795.411 160.563 796.385 161.746C797.394 162.894 797.916 164.424 797.951 166.337C797.951 168.007 797.481 169.503 796.542 170.824C795.638 172.146 794.316 173.19 792.577 173.955C790.872 174.685 788.872 175.051 786.577 175.051ZM841.162 138.163V144.059H831.457V174.581H824.153V144.059H814.448V138.163H841.162ZM873.361 159.503C873.361 160.546 873.292 161.485 873.152 162.32H852.022C852.196 164.407 852.926 166.042 854.213 167.224C855.5 168.407 857.083 168.998 858.961 168.998C861.674 168.998 863.605 167.833 864.752 165.503H872.631C871.796 168.285 870.196 170.581 867.831 172.39C865.465 174.164 862.561 175.051 859.118 175.051C856.335 175.051 853.83 174.442 851.604 173.225C849.413 171.972 847.691 170.216 846.439 167.955C845.222 165.694 844.613 163.085 844.613 160.129C844.613 157.137 845.222 154.511 846.439 152.25C847.657 149.989 849.361 148.25 851.552 147.033C853.744 145.815 856.265 145.207 859.118 145.207C861.865 145.207 864.318 145.798 866.474 146.981C868.665 148.163 870.352 149.85 871.535 152.042C872.752 154.198 873.361 156.685 873.361 159.503ZM865.796 157.416C865.761 155.537 865.083 154.042 863.761 152.929C862.439 151.781 860.822 151.207 858.909 151.207C857.1 151.207 855.57 151.763 854.317 152.876C853.1 153.955 852.352 155.468 852.074 157.416H865.796ZM889.754 175.051C887.389 175.051 885.267 174.633 883.388 173.798C881.51 172.929 880.015 171.764 878.901 170.303C877.823 168.842 877.232 167.224 877.128 165.451H884.484C884.623 166.564 885.162 167.485 886.102 168.216C887.075 168.946 888.275 169.311 889.702 169.311C891.093 169.311 892.171 169.033 892.936 168.477C893.736 167.92 894.136 167.207 894.136 166.337C894.136 165.398 893.649 164.703 892.676 164.25C891.736 163.764 890.223 163.242 888.136 162.685C885.98 162.164 884.206 161.624 882.815 161.068C881.458 160.511 880.275 159.659 879.267 158.511C878.293 157.363 877.806 155.816 877.806 153.868C877.806 152.268 878.258 150.807 879.162 149.485C880.101 148.163 881.423 147.12 883.128 146.355C884.867 145.589 886.902 145.207 889.232 145.207C892.676 145.207 895.423 146.076 897.476 147.816C899.528 149.52 900.658 151.833 900.867 154.755H893.876C893.771 153.607 893.284 152.703 892.415 152.042C891.58 151.346 890.449 150.998 889.023 150.998C887.702 150.998 886.675 151.242 885.945 151.729C885.249 152.216 884.902 152.894 884.902 153.763C884.902 154.737 885.388 155.485 886.362 156.007C887.336 156.494 888.849 156.998 890.902 157.52C892.989 158.042 894.71 158.581 896.067 159.137C897.423 159.694 898.589 160.563 899.563 161.746C900.571 162.894 901.093 164.424 901.128 166.337C901.128 168.007 900.658 169.503 899.719 170.824C898.815 172.146 897.493 173.19 895.754 173.955C894.049 174.685 892.049 175.051 889.754 175.051ZM915.628 151.676V165.659C915.628 166.633 915.854 167.346 916.307 167.798C916.793 168.216 917.593 168.424 918.707 168.424H922.098V174.581H917.507C911.35 174.581 908.272 171.59 908.272 165.607V151.676H904.828V145.676H908.272V138.528H915.628V145.676H922.098V151.676H915.628ZM943.369 145.259C946.813 145.259 949.595 146.355 951.717 148.546C953.839 150.703 954.9 153.729 954.9 157.624V174.581H947.595V158.616C947.595 156.32 947.021 154.563 945.874 153.346C944.726 152.094 943.161 151.468 941.178 151.468C939.16 151.468 937.56 152.094 936.378 153.346C935.23 154.563 934.656 156.32 934.656 158.616V174.581H927.352V145.676H934.656V149.276C935.63 148.024 936.865 147.05 938.36 146.355C939.891 145.624 941.56 145.259 943.369 145.259ZM988.716 159.503C988.716 160.546 988.646 161.485 988.507 162.32H967.376C967.55 164.407 968.281 166.042 969.568 167.224C970.855 168.407 972.437 168.998 974.316 168.998C977.029 168.998 978.959 167.833 980.107 165.503H987.985C987.151 168.285 985.551 170.581 983.185 172.39C980.82 174.164 977.916 175.051 974.472 175.051C971.689 175.051 969.185 174.442 966.959 173.225C964.768 171.972 963.046 170.216 961.794 167.955C960.576 165.694 959.968 163.085 959.968 160.129C959.968 157.137 960.576 154.511 961.794 152.25C963.011 149.989 964.715 148.25 966.907 147.033C969.098 145.815 971.62 145.207 974.472 145.207C977.22 145.207 979.672 145.798 981.829 146.981C984.02 148.163 985.707 149.85 986.89 152.042C988.107 154.198 988.716 156.685 988.716 159.503ZM981.15 157.416C981.116 155.537 980.437 154.042 979.116 152.929C977.794 151.781 976.177 151.207 974.263 151.207C972.455 151.207 970.924 151.763 969.672 152.876C968.455 153.955 967.707 155.468 967.429 157.416H981.15ZM1002.55 151.676V165.659C1002.55 166.633 1002.78 167.346 1003.23 167.798C1003.72 168.216 1004.52 168.424 1005.63 168.424H1009.02V174.581H1004.43C998.274 174.581 995.195 171.59 995.195 165.607V151.676H991.752V145.676H995.195V138.528H1002.55V145.676H1009.02V151.676H1002.55Z" fill="url(#paint5_linear_417_799)"/>
<path d="M697.916 91.2406C697.229 91.8843 697.229 92.9529 697.916 93.6095L702.969 98.3472C703.67 99.0038 704.796 99.0038 705.496 98.3472C706.183 97.7035 706.183 96.6349 705.496 95.9783L700.443 91.2406C699.756 90.5969 698.616 90.5969 697.916 91.2406Z" fill="url(#paint6_linear_417_799)"/>
<path d="M715.095 89.3482C715.796 88.6916 715.796 87.636 715.095 86.9794C714.409 86.3357 713.269 86.3357 712.569 86.9794L705.496 93.6096C704.796 94.2662 704.92 94.1503 704.233 94.794C702.667 96.2617 700.525 96.03 699.825 95.3863L702.97 98.3345C703.656 98.9782 704.796 98.9782 705.496 98.3345L715.095 89.3482Z" fill="url(#paint7_linear_417_799)"/>
<path d="M725.23 87.0184C724.543 86.3747 723.404 86.3747 722.703 87.0184L717.663 91.7562C716.963 92.4127 716.963 93.4684 717.663 94.125C718.35 94.7687 719.49 94.7687 720.19 94.125L725.244 89.3873C725.917 88.7307 725.917 87.6621 725.23 87.0184Z" fill="url(#paint8_linear_417_799)"/>
<path d="M705.538 88.8983C706.224 88.2546 706.224 87.1861 705.538 86.5295L700.484 81.7918C699.784 81.1352 698.658 81.1352 697.957 81.7918C697.271 82.4355 697.271 83.504 697.957 84.1606L703.011 88.8983C703.711 89.5421 704.837 89.5421 705.538 88.8983Z" fill="url(#paint9_linear_417_799)"/>
<path d="M688.358 90.8032C687.658 91.4598 687.658 92.5155 688.358 93.172C689.045 93.8158 690.185 93.8158 690.885 93.172L697.957 86.5289C698.658 85.8723 698.534 85.9882 699.221 85.3445C700.786 83.8768 702.929 84.1086 703.629 84.7523L700.484 81.8041C699.798 81.1604 698.658 81.1604 697.957 81.8041L688.358 90.8032Z" fill="url(#paint10_linear_417_799)"/>
<path d="M678.292 93.1465C678.979 93.7902 680.119 93.7902 680.819 93.1465L685.873 88.4088C686.573 87.7522 686.573 86.6965 685.873 86.0399C685.186 85.3962 684.046 85.3962 683.346 86.0399L678.292 90.7776C677.606 91.4342 677.606 92.4899 678.292 93.1465Z" fill="url(#paint11_linear_417_799)"/>
<path d="M732.291 84.2037H735.641V96.0274H742.717V99H732.291V84.2037ZM744.682 84.2037H748.032V99H744.682V84.2037ZM758.575 90.8587H764.276V97.2697C763.507 97.9352 762.605 98.4528 761.57 98.8225C760.549 99.1775 759.381 99.3549 758.065 99.3549C756.852 99.3549 755.765 99.1701 754.804 98.8003C753.857 98.4158 753.051 97.8834 752.386 97.2031C751.72 96.5229 751.21 95.7095 750.855 94.763C750.515 93.8165 750.345 92.7739 750.345 91.6351C750.345 90.526 750.53 89.4981 750.899 88.5516C751.269 87.6052 751.794 86.7844 752.474 86.0893C753.155 85.3794 753.961 84.8248 754.892 84.4255C755.824 84.0262 756.859 83.8266 757.998 83.8266C759.344 83.8266 760.52 84.078 761.525 84.5808C762.546 85.0689 763.389 85.7565 764.054 86.6439L761.791 88.7957C761.318 88.2337 760.793 87.7752 760.216 87.4203C759.654 87.0654 758.959 86.8879 758.131 86.8879C757.451 86.8879 756.844 87.0136 756.312 87.265C755.78 87.5164 755.329 87.8566 754.959 88.2854C754.589 88.7143 754.308 89.2171 754.116 89.7939C753.924 90.3707 753.828 90.9844 753.828 91.6351C753.828 92.345 753.938 92.9883 754.16 93.5651C754.382 94.1418 754.693 94.6373 755.092 95.0514C755.491 95.4507 755.957 95.7612 756.49 95.9831C757.037 96.2049 757.628 96.3158 758.264 96.3158C758.856 96.3158 759.396 96.2493 759.884 96.1162C760.372 95.9683 760.808 95.739 761.192 95.4285V93.5651H758.575V90.8587ZM766.952 84.2037H770.302V89.8826H776.713V84.2037H780.063V99H776.713V92.9218H770.302V99H766.952V84.2037ZM786.756 87.1541H781.964V84.2037H794.897V87.1541H790.127V99H786.756V87.1541ZM796.805 84.2037H800.154V96.0274H807.231V99H796.805V84.2037ZM809.196 84.2037H812.546V99H809.196V84.2037ZM815.435 84.2037H818.63L825.041 93.8091V84.2037H828.346V99H825.307L818.741 89.2171V99H815.435V84.2037ZM831.228 84.2037H834.578V90.1045L839.524 84.2037H843.406L838.326 89.9714L844.094 99H840.035L836.086 92.5446L834.578 94.2306V99H831.228V84.2037Z" fill="white"/>
<path d="M845.631 95.4728H849.247V99H845.631V95.4728Z" fill="#6A81FF"/>
<g filter="url(#filter2_f_417_799)">
<circle cx="214.5" cy="214.5" r="214.5" transform="matrix(-1 0 0 1 1737 109)" fill="#6A7AFF"/>
</g>
</g>
<defs>
<filter id="filter0_f_417_799" x="27.4628" y="-99.5906" width="1005.16" height="964.991" filterUnits="userSpaceOnUse" color-interpolation-filters="sRGB">
<feFlood flood-opacity="0" result="BackgroundImageFix"/>
<feBlend mode="normal" in="SourceGraphic" in2="BackgroundImageFix" result="shape"/>
<feGaussianBlur stdDeviation="102.601" result="effect1_foregroundBlur_417_799"/>
</filter>
<filter id="filter1_f_417_799" x="-402.73" y="-534.73" width="878.536" height="878.536" filterUnits="userSpaceOnUse" color-interpolation-filters="sRGB">
<feFlood flood-opacity="0" result="BackgroundImageFix"/>
<feBlend mode="normal" in="SourceGraphic" in2="BackgroundImageFix" result="shape"/>
<feGaussianBlur stdDeviation="125.865" result="effect1_foregroundBlur_417_799"/>
</filter>
<filter id="filter2_f_417_799" x="977.687" y="-221.313" width="1089.63" height="1089.63" filterUnits="userSpaceOnUse" color-interpolation-filters="sRGB">
<feFlood flood-opacity="0" result="BackgroundImageFix"/>
<feBlend mode="normal" in="SourceGraphic" in2="BackgroundImageFix" result="shape"/>
<feGaussianBlur stdDeviation="165.157" result="effect1_foregroundBlur_417_799"/>
</filter>
<linearGradient id="paint0_linear_417_799" x1="1399.06" y1="111.964" x2="1533.29" y2="-59.0111" gradientUnits="userSpaceOnUse">
<stop offset="0.1173" stop-color="#6978FF"/>
<stop offset="0.1876" stop-color="#6087FF"/>
<stop offset="0.3484" stop-color="#4DA5FF"/>
<stop offset="0.5073" stop-color="#40BAFF"/>
<stop offset="0.6622" stop-color="#39C7FF"/>
<stop offset="0.8083" stop-color="#36CBFF"/>
<stop offset="1" stop-color="#67FFFC"/>
</linearGradient>
<linearGradient id="paint1_linear_417_799" x1="2149.61" y1="475.781" x2="1359.79" y2="125.381" gradientUnits="userSpaceOnUse">
<stop offset="0.497995" stop-color="#6978FF"/>
<stop offset="0.528171" stop-color="#6087FF"/>
<stop offset="0.580146" stop-color="#4DA5FF"/>
<stop offset="0.642549" stop-color="#40BAFF"/>
<stop offset="0.765115" stop-color="#39C7FF"/>
<stop offset="0.860122" stop-color="#36CBFF"/>
<stop offset="1" stop-color="#67FFFC"/>
</linearGradient>
<linearGradient id="paint2_linear_417_799" x1="-209.878" y1="-78.0567" x2="437.998" y2="767.623" gradientUnits="userSpaceOnUse">
<stop offset="0.497995" stop-color="#6978FF"/>
<stop offset="0.528171" stop-color="#6087FF"/>
<stop offset="0.580146" stop-color="#4DA5FF"/>
<stop offset="0.642549" stop-color="#40BAFF"/>
<stop offset="0.765115" stop-color="#39C7FF"/>
<stop offset="0.860122" stop-color="#36CBFF"/>
<stop offset="1" stop-color="#67FFFC"/>
</linearGradient>
<linearGradient id="paint3_linear_417_799" x1="-179.839" y1="-89.8419" x2="219.074" y2="179.716" gradientUnits="userSpaceOnUse">
<stop offset="0.1173" stop-color="#6978FF"/>
<stop offset="0.1876" stop-color="#6087FF"/>
<stop offset="0.3484" stop-color="#4DA5FF"/>
<stop offset="0.5073" stop-color="#40BAFF"/>
<stop offset="0.6622" stop-color="#39C7FF"/>
<stop offset="0.8083" stop-color="#36CBFF"/>
<stop offset="1" stop-color="#67FFFC"/>
</linearGradient>
<linearGradient id="paint4_linear_417_799" x1="380.328" y1="-243.309" x2="-591.154" y2="836.068" gradientUnits="userSpaceOnUse">
<stop offset="0.386" stop-color="#6978FF"/>
<stop offset="0.4432" stop-color="#6284FF"/>
<stop offset="0.6461" stop-color="#4AABFF"/>
<stop offset="0.8086" stop-color="#3BC2FF"/>
<stop offset="0.9094" stop-color="#36CBFF"/>
<stop offset="1" stop-color="#67FFFC"/>
</linearGradient>
<linearGradient id="paint5_linear_417_799" x1="987.72" y1="135.191" x2="574" y2="135.191" gradientUnits="userSpaceOnUse">
<stop stop-color="#5C8FFF"/>
<stop offset="1" stop-color="#68FFFC"/>
</linearGradient>
<linearGradient id="paint6_linear_417_799" x1="693.164" y1="86.8806" x2="705.455" y2="99.8351" gradientUnits="userSpaceOnUse">
<stop offset="0.1173" stop-color="#6978FF"/>
<stop offset="0.1876" stop-color="#6087FF"/>
<stop offset="0.3484" stop-color="#4DA5FF"/>
<stop offset="0.5073" stop-color="#40BAFF"/>
<stop offset="0.6622" stop-color="#39C7FF"/>
<stop offset="0.8083" stop-color="#36CBFF"/>
<stop offset="1" stop-color="#67FFFC"/>
</linearGradient>
<linearGradient id="paint7_linear_417_799" x1="690.352" y1="108.859" x2="726.694" y2="69.0111" gradientUnits="userSpaceOnUse">
<stop offset="0.386" stop-color="#6978FF"/>
<stop offset="0.4432" stop-color="#6284FF"/>
<stop offset="0.6461" stop-color="#4AABFF"/>
<stop offset="0.8086" stop-color="#3BC2FF"/>
<stop offset="0.9094" stop-color="#36CBFF"/>
<stop offset="1" stop-color="#67FFFC"/>
</linearGradient>
<linearGradient id="paint8_linear_417_799" x1="724.306" y1="88.0706" x2="695.808" y2="116.291" gradientUnits="userSpaceOnUse">
<stop offset="0.0470588" stop-color="#6978FF"/>
<stop offset="0.1245" stop-color="#6087FF"/>
<stop offset="0.3016" stop-color="#4DA5FF"/>
<stop offset="0.4767" stop-color="#40BAFF"/>
<stop offset="0.6473" stop-color="#39C7FF"/>
<stop offset="0.8083" stop-color="#36CBFF"/>
<stop offset="1" stop-color="#67FFFC"/>
</linearGradient>
<linearGradient id="paint9_linear_417_799" x1="699.779" y1="82.8864" x2="704.041" y2="88.948" gradientUnits="userSpaceOnUse">
<stop offset="0.1173" stop-color="#6978FF"/>
<stop offset="0.1876" stop-color="#6087FF"/>
<stop offset="0.3484" stop-color="#4DA5FF"/>
<stop offset="0.5073" stop-color="#40BAFF"/>
<stop offset="0.6622" stop-color="#39C7FF"/>
<stop offset="0.8083" stop-color="#36CBFF"/>
<stop offset="1" stop-color="#67FFFC"/>
</linearGradient>
<linearGradient id="paint10_linear_417_799" x1="682.329" y1="102.844" x2="699.418" y2="81.399" gradientUnits="userSpaceOnUse">
<stop offset="0.3128" stop-color="#6978FF"/>
<stop offset="0.3633" stop-color="#6087FF"/>
<stop offset="0.4785" stop-color="#4DA5FF"/>
<stop offset="0.5925" stop-color="#40BAFF"/>
<stop offset="0.7035" stop-color="#39C7FF"/>
<stop offset="0.8083" stop-color="#36CBFF"/>
<stop offset="1" stop-color="#67FFFC"/>
</linearGradient>
<linearGradient id="paint11_linear_417_799" x1="700.229" y1="70.0936" x2="681.883" y2="92.5266" gradientUnits="userSpaceOnUse">
<stop offset="0.00761283" stop-color="#6978FF"/>
<stop offset="0.0891092" stop-color="#6087FF"/>
<stop offset="0.2754" stop-color="#4DA5FF"/>
<stop offset="0.4596" stop-color="#40BAFF"/>
<stop offset="0.639" stop-color="#39C7FF"/>
<stop offset="0.8083" stop-color="#36CBFF"/>
<stop offset="1" stop-color="#67FFFC"/>
</linearGradient>
<clipPath id="clip0_417_799">
<rect width="1584" height="268.213" fill="white"/>
</clipPath>
</defs>
</svg>
