<svg width="1584" height="269" viewBox="0 0 1584 269" fill="none" xmlns="http://www.w3.org/2000/svg">
<g clip-path="url(#clip0_417_799)">
<rect width="1584" height="268.213" fill="black"/>
<path d="M1528.73 -93.1951C1503.17 -108.351 1470.95 -101.044 1457.31 -76.9949L1359.73 99.3549C1346.21 123.795 1356.3 155.87 1382.37 171.33C1407.92 186.486 1440.14 179.178 1453.79 155.13L1551.36 -21.2203C1564.5 -45.572 1554.41 -77.6478 1528.73 -93.1951Z" fill="url(#paint0_linear_417_799)"/>
<path d="M1734.94 386.816C1760.86 402.201 1792.51 395.015 1805.96 370.693C1819.14 346.847 1808.99 314.536 1783.45 299.063L1521.3 143.793C1495.38 128.408 1499.96 131.123 1474.54 116.04C1416.6 81.6498 1404.47 19.3433 1417.53 -4.89179L1357.15 104.322C1343.97 128.168 1354.12 160.479 1379.66 175.951L1734.94 386.816Z" fill="url(#paint1_linear_417_799)"/>
<g filter="url(#filter0_f_417_799)">
<path d="M368.687 123.452C336.998 101.237 286.469 99.5406 255.305 119.646C224.751 139.357 225.178 173.795 256.251 195.989L576.865 420.341C608.554 442.556 602.962 438.636 634.03 460.416C704.864 510.073 694.575 574.427 664.027 594.553L803.961 504.276C834.514 484.564 834.087 450.127 803.014 427.932L368.687 123.452Z" fill="url(#paint2_linear_417_799)"/>
</g>
<path d="M-83.6474 -2.60309C-69.4779 -23.8415 -41.7745 -27.5092 -22.2327 -10.7338L153.416 142.54C173.008 159.696 177.14 190.903 162.687 212.567C148.517 233.805 120.814 237.473 101.272 220.697L-74.3765 67.4238C-93.5845 50.6042 -97.7665 19.0159 -83.6474 -2.60309Z" fill="url(#paint3_linear_417_799)"/>
<path d="M-34.7207 509.391C-49.1736 531.054 -76.5431 534.678 -96.1353 517.522C-115.343 500.702 -119.525 469.114 -105.406 447.495L40.5397 228.739C54.9925 207.076 52.4419 210.899 66.6113 189.66C98.9178 141.237 85.0499 82.6615 65.7915 65.4613L153.764 142.495C172.972 159.314 177.154 190.903 163.035 212.522L-34.7207 509.391Z" fill="url(#paint4_linear_417_799)"/>
<g filter="url(#filter1_f_417_799)">
<circle cx="187.539" cy="187.539" r="187.539" transform="matrix(-1 0 0 1 224.077 -283)" fill="#3BC4FF"/>
</g>
<path d="M602.377 149.433C602.377 151.381 601.907 153.207 600.968 154.911C600.064 156.616 598.62 157.99 596.638 159.033C594.69 160.077 592.22 160.598 589.229 160.598H583.124V174.581H575.82V138.163H589.229C592.046 138.163 594.446 138.65 596.429 139.624C598.411 140.598 599.89 141.937 600.864 143.642C601.872 145.346 602.377 147.276 602.377 149.433ZM588.916 154.703C590.933 154.703 592.429 154.25 593.403 153.346C594.377 152.407 594.864 151.103 594.864 149.433C594.864 145.885 592.881 144.111 588.916 144.111H583.124V154.703H588.916ZM623.841 145.259C626.033 145.259 627.98 145.746 629.685 146.72C631.389 147.659 632.711 149.068 633.65 150.946C634.624 152.789 635.111 155.016 635.111 157.624V174.581H627.807V158.616C627.807 156.32 627.233 154.563 626.085 153.346C624.937 152.094 623.372 151.468 621.389 151.468C619.372 151.468 617.772 152.094 616.589 153.346C615.441 154.563 614.867 156.32 614.867 158.616V174.581H607.563V135.972H614.867V149.276C615.806 148.024 617.059 147.05 618.624 146.355C620.189 145.624 621.928 145.259 623.841 145.259ZM654.892 175.051C652.109 175.051 649.605 174.442 647.379 173.225C645.153 171.972 643.396 170.216 642.109 167.955C640.857 165.694 640.231 163.085 640.231 160.129C640.231 157.172 640.874 154.563 642.161 152.303C643.483 150.042 645.275 148.302 647.535 147.085C649.796 145.833 652.318 145.207 655.101 145.207C657.883 145.207 660.405 145.833 662.666 147.085C664.927 148.302 666.701 150.042 667.988 152.303C669.31 154.563 669.97 157.172 669.97 160.129C669.97 163.085 669.292 165.694 667.936 167.955C666.614 170.216 664.805 171.972 662.51 173.225C660.249 174.442 657.709 175.051 654.892 175.051ZM654.892 168.685C656.214 168.685 657.449 168.372 658.596 167.746C659.779 167.085 660.718 166.111 661.414 164.824C662.11 163.537 662.457 161.972 662.457 160.129C662.457 157.381 661.727 155.276 660.266 153.816C658.84 152.32 657.083 151.572 654.996 151.572C652.909 151.572 651.153 152.32 649.727 153.816C648.335 155.276 647.64 157.381 647.64 160.129C647.64 162.877 648.318 164.998 649.675 166.494C651.066 167.955 652.805 168.685 654.892 168.685ZM702.198 159.503C702.198 160.546 702.129 161.485 701.99 162.32H680.859C681.033 164.407 681.763 166.042 683.05 167.224C684.337 168.407 685.92 168.998 687.798 168.998C690.511 168.998 692.442 167.833 693.59 165.503H701.468C700.633 168.285 699.033 170.581 696.668 172.39C694.303 174.164 691.398 175.051 687.955 175.051C685.172 175.051 682.668 174.442 680.442 173.225C678.25 171.972 676.529 170.216 675.276 167.955C674.059 165.694 673.45 163.085 673.45 160.129C673.45 157.137 674.059 154.511 675.276 152.25C676.494 149.989 678.198 148.25 680.389 147.033C682.581 145.815 685.103 145.207 687.955 145.207C690.703 145.207 693.155 145.798 695.311 146.981C697.503 148.163 699.19 149.85 700.372 152.042C701.59 154.198 702.198 156.685 702.198 159.503ZM694.633 157.416C694.598 155.537 693.92 154.042 692.598 152.929C691.277 151.781 689.659 151.207 687.746 151.207C685.937 151.207 684.407 151.763 683.155 152.876C681.937 153.955 681.189 155.468 680.911 157.416H694.633ZM723.548 145.259C726.991 145.259 729.774 146.355 731.896 148.546C734.017 150.703 735.078 153.729 735.078 157.624V174.581H727.774V158.616C727.774 156.32 727.2 154.563 726.052 153.346C724.904 152.094 723.339 151.468 721.356 151.468C719.339 151.468 717.739 152.094 716.556 153.346C715.408 154.563 714.834 156.32 714.834 158.616V174.581H707.53V145.676H714.834V149.276C715.808 148.024 717.043 147.05 718.539 146.355C720.069 145.624 721.739 145.259 723.548 145.259ZM745.729 142.233C744.442 142.233 743.363 141.833 742.494 141.033C741.659 140.198 741.242 139.172 741.242 137.955C741.242 136.737 741.659 135.728 742.494 134.928C743.363 134.094 744.442 133.676 745.729 133.676C747.016 133.676 748.077 134.094 748.911 134.928C749.781 135.728 750.216 136.737 750.216 137.955C750.216 139.172 749.781 140.198 748.911 141.033C748.077 141.833 747.016 142.233 745.729 142.233ZM749.329 145.676V174.581H742.024V145.676H749.329ZM772.511 174.581L766.563 165.607L761.293 174.581H753.467L762.911 160.077L753.363 145.676H761.606L767.502 154.598L772.824 145.676H780.65L771.154 160.077L780.755 174.581H772.511ZM836.859 138.163V174.581H829.554V150.894L819.798 174.581H814.267L804.458 150.894V174.581H797.154V138.163H805.45L817.033 165.242L828.615 138.163H836.859ZM842.202 160.024C842.202 157.103 842.776 154.511 843.924 152.25C845.107 149.989 846.689 148.25 848.672 147.033C850.689 145.815 852.933 145.207 855.402 145.207C857.559 145.207 859.437 145.642 861.037 146.511C862.672 147.381 863.976 148.476 864.95 149.798V145.676H872.307V174.581H864.95V170.355C864.011 171.711 862.707 172.842 861.037 173.746C859.402 174.616 857.507 175.051 855.35 175.051C852.915 175.051 850.689 174.425 848.672 173.172C846.689 171.92 845.107 170.164 843.924 167.903C842.776 165.607 842.202 162.981 842.202 160.024ZM864.95 160.129C864.95 158.355 864.603 156.842 863.907 155.59C863.211 154.303 862.272 153.329 861.089 152.668C859.907 151.972 858.637 151.624 857.281 151.624C855.924 151.624 854.672 151.955 853.524 152.616C852.376 153.276 851.437 154.25 850.707 155.537C850.011 156.79 849.663 158.285 849.663 160.024C849.663 161.764 850.011 163.294 850.707 164.616C851.437 165.903 852.376 166.894 853.524 167.59C854.707 168.285 855.959 168.633 857.281 168.633C858.637 168.633 859.907 168.303 861.089 167.642C862.272 166.946 863.211 165.972 863.907 164.72C864.603 163.433 864.95 161.903 864.95 160.129ZM883.145 142.233C881.858 142.233 880.78 141.833 879.911 141.033C879.076 140.198 878.658 139.172 878.658 137.955C878.658 136.737 879.076 135.728 879.911 134.928C880.78 134.094 881.858 133.676 883.145 133.676C884.432 133.676 885.493 134.094 886.328 134.928C887.198 135.728 887.632 136.737 887.632 137.955C887.632 139.172 887.198 140.198 886.328 141.033C885.493 141.833 884.432 142.233 883.145 142.233ZM886.745 145.676V174.581H879.441V145.676H886.745ZM909.98 145.259C913.423 145.259 916.206 146.355 918.328 148.546C920.45 150.703 921.51 153.729 921.51 157.624V174.581H914.206V158.616C914.206 156.32 913.632 154.563 912.484 153.346C911.336 152.094 909.771 151.468 907.789 151.468C905.771 151.468 904.171 152.094 902.988 153.346C901.841 154.563 901.267 156.32 901.267 158.616V174.581H893.962V145.676H901.267V149.276C902.241 148.024 903.475 147.05 904.971 146.355C906.502 145.624 908.171 145.259 909.98 145.259ZM944.474 145.259C947.918 145.259 950.7 146.355 952.822 148.546C954.944 150.703 956.005 153.729 956.005 157.624V174.581H948.7V158.616C948.7 156.32 948.126 154.563 946.979 153.346C945.831 152.094 944.265 151.468 942.283 151.468C940.265 151.468 938.665 152.094 937.483 153.346C936.335 154.563 935.761 156.32 935.761 158.616V174.581H928.457V145.676H935.761V149.276C936.735 148.024 937.97 147.05 939.465 146.355C940.996 145.624 942.665 145.259 944.474 145.259ZM989.821 159.503C989.821 160.546 989.751 161.485 989.612 162.32H968.481C968.655 164.407 969.386 166.042 970.673 167.224C971.96 168.407 973.542 168.998 975.421 168.998C978.134 168.998 980.064 167.833 981.212 165.503H989.09C988.256 168.285 986.656 170.581 984.29 172.39C981.925 174.164 979.021 175.051 975.577 175.051C972.794 175.051 970.29 174.442 968.064 173.225C965.873 171.972 964.151 170.216 962.899 167.955C961.681 165.694 961.073 163.085 961.073 160.129C961.073 157.137 961.681 154.511 962.899 152.25C964.116 149.989 965.82 148.25 968.012 147.033C970.203 145.815 972.725 145.207 975.577 145.207C978.325 145.207 980.777 145.798 982.934 146.981C985.125 148.163 986.812 149.85 987.995 152.042C989.212 154.198 989.821 156.685 989.821 159.503ZM982.255 157.416C982.221 155.537 981.542 154.042 980.221 152.929C978.899 151.781 977.281 151.207 975.368 151.207C973.56 151.207 972.029 151.763 970.777 152.876C969.56 153.955 968.812 155.468 968.534 157.416H982.255ZM1003.66 151.676V165.659C1003.66 166.633 1003.88 167.346 1004.34 167.798C1004.82 168.216 1005.62 168.424 1006.74 168.424H1010.13V174.581H1005.54C999.378 174.581 996.3 171.59 996.3 165.607V151.676H992.857V145.676H996.3V138.528H1003.66V145.676H1010.13V151.676H1003.66Z" fill="url(#paint5_linear_417_799)"/>
<path d="M697.916 91.2406C697.229 91.8843 697.229 92.9529 697.916 93.6095L702.969 98.3472C703.67 99.0038 704.796 99.0038 705.496 98.3472C706.183 97.7035 706.183 96.6349 705.496 95.9783L700.443 91.2406C699.756 90.5969 698.616 90.5969 697.916 91.2406Z" fill="url(#paint6_linear_417_799)"/>
<path d="M715.095 89.3482C715.796 88.6916 715.796 87.636 715.095 86.9794C714.409 86.3357 713.269 86.3357 712.569 86.9794L705.496 93.6096C704.796 94.2662 704.92 94.1503 704.233 94.794C702.667 96.2617 700.525 96.03 699.825 95.3863L702.97 98.3345C703.656 98.9782 704.796 98.9782 705.496 98.3345L715.095 89.3482Z" fill="url(#paint7_linear_417_799)"/>
<path d="M725.23 87.0184C724.543 86.3747 723.404 86.3747 722.703 87.0184L717.663 91.7562C716.963 92.4127 716.963 93.4684 717.663 94.125C718.35 94.7687 719.49 94.7687 720.19 94.125L725.244 89.3873C725.917 88.7307 725.917 87.6621 725.23 87.0184Z" fill="url(#paint8_linear_417_799)"/>
<path d="M705.538 88.8983C706.224 88.2546 706.224 87.1861 705.538 86.5295L700.484 81.7918C699.784 81.1352 698.658 81.1352 697.957 81.7918C697.271 82.4355 697.271 83.504 697.957 84.1606L703.011 88.8983C703.711 89.5421 704.837 89.5421 705.538 88.8983Z" fill="url(#paint9_linear_417_799)"/>
<path d="M688.358 90.8032C687.658 91.4598 687.658 92.5155 688.358 93.172C689.045 93.8158 690.185 93.8158 690.885 93.172L697.957 86.5289C698.658 85.8723 698.534 85.9882 699.221 85.3445C700.786 83.8768 702.929 84.1086 703.629 84.7523L700.484 81.8041C699.798 81.1604 698.658 81.1604 697.957 81.8041L688.358 90.8032Z" fill="url(#paint10_linear_417_799)"/>
<path d="M678.292 93.1465C678.979 93.7902 680.119 93.7902 680.819 93.1465L685.873 88.4088C686.573 87.7522 686.573 86.6965 685.873 86.0399C685.186 85.3962 684.046 85.3962 683.346 86.0399L678.292 90.7776C677.606 91.4342 677.606 92.4899 678.292 93.1465Z" fill="url(#paint11_linear_417_799)"/>
<path d="M732.291 84.2037H735.641V96.0274H742.717V99H732.291V84.2037ZM744.682 84.2037H748.032V99H744.682V84.2037ZM758.575 90.8587H764.276V97.2697C763.507 97.9352 762.605 98.4528 761.57 98.8225C760.549 99.1775 759.381 99.3549 758.065 99.3549C756.852 99.3549 755.765 99.1701 754.804 98.8003C753.857 98.4158 753.051 97.8834 752.386 97.2031C751.72 96.5229 751.21 95.7095 750.855 94.763C750.515 93.8165 750.345 92.7739 750.345 91.6351C750.345 90.526 750.53 89.4981 750.899 88.5516C751.269 87.6052 751.794 86.7844 752.474 86.0893C753.155 85.3794 753.961 84.8248 754.892 84.4255C755.824 84.0262 756.859 83.8266 757.998 83.8266C759.344 83.8266 760.52 84.078 761.525 84.5808C762.546 85.0689 763.389 85.7565 764.054 86.6439L761.791 88.7957C761.318 88.2337 760.793 87.7752 760.216 87.4203C759.654 87.0654 758.959 86.8879 758.131 86.8879C757.451 86.8879 756.844 87.0136 756.312 87.265C755.78 87.5164 755.329 87.8566 754.959 88.2854C754.589 88.7143 754.308 89.2171 754.116 89.7939C753.924 90.3707 753.828 90.9844 753.828 91.6351C753.828 92.345 753.938 92.9883 754.16 93.5651C754.382 94.1418 754.693 94.6373 755.092 95.0514C755.491 95.4507 755.957 95.7612 756.49 95.9831C757.037 96.2049 757.628 96.3158 758.264 96.3158C758.856 96.3158 759.396 96.2493 759.884 96.1162C760.372 95.9683 760.808 95.739 761.192 95.4285V93.5651H758.575V90.8587ZM766.952 84.2037H770.302V89.8826H776.713V84.2037H780.063V99H776.713V92.9218H770.302V99H766.952V84.2037ZM786.756 87.1541H781.964V84.2037H794.897V87.1541H790.127V99H786.756V87.1541ZM796.805 84.2037H800.154V96.0274H807.231V99H796.805V84.2037ZM809.196 84.2037H812.546V99H809.196V84.2037ZM815.435 84.2037H818.63L825.041 93.8091V84.2037H828.346V99H825.307L818.741 89.2171V99H815.435V84.2037ZM831.228 84.2037H834.578V90.1045L839.524 84.2037H843.406L838.326 89.9714L844.094 99H840.035L836.086 92.5446L834.578 94.2306V99H831.228V84.2037Z" fill="white"/>
<path d="M845.631 95.4728H849.247V99H845.631V95.4728Z" fill="#6A81FF"/>
<g filter="url(#filter2_f_417_799)">
<circle cx="214.5" cy="214.5" r="214.5" transform="matrix(-1 0 0 1 1737 109)" fill="#6A7AFF"/>
</g>
</g>
<defs>
<filter id="filter0_f_417_799" x="27.4628" y="-99.5906" width="1005.16" height="964.991" filterUnits="userSpaceOnUse" color-interpolation-filters="sRGB">
<feFlood flood-opacity="0" result="BackgroundImageFix"/>
<feBlend mode="normal" in="SourceGraphic" in2="BackgroundImageFix" result="shape"/>
<feGaussianBlur stdDeviation="102.601" result="effect1_foregroundBlur_417_799"/>
</filter>
<filter id="filter1_f_417_799" x="-402.73" y="-534.73" width="878.536" height="878.536" filterUnits="userSpaceOnUse" color-interpolation-filters="sRGB">
<feFlood flood-opacity="0" result="BackgroundImageFix"/>
<feBlend mode="normal" in="SourceGraphic" in2="BackgroundImageFix" result="shape"/>
<feGaussianBlur stdDeviation="125.865" result="effect1_foregroundBlur_417_799"/>
</filter>
<filter id="filter2_f_417_799" x="977.687" y="-221.313" width="1089.63" height="1089.63" filterUnits="userSpaceOnUse" color-interpolation-filters="sRGB">
<feFlood flood-opacity="0" result="BackgroundImageFix"/>
<feBlend mode="normal" in="SourceGraphic" in2="BackgroundImageFix" result="shape"/>
<feGaussianBlur stdDeviation="165.157" result="effect1_foregroundBlur_417_799"/>
</filter>
<linearGradient id="paint0_linear_417_799" x1="1399.06" y1="111.964" x2="1533.29" y2="-59.0111" gradientUnits="userSpaceOnUse">
<stop offset="0.1173" stop-color="#6978FF"/>
<stop offset="0.1876" stop-color="#6087FF"/>
<stop offset="0.3484" stop-color="#4DA5FF"/>
<stop offset="0.5073" stop-color="#40BAFF"/>
<stop offset="0.6622" stop-color="#39C7FF"/>
<stop offset="0.8083" stop-color="#36CBFF"/>
<stop offset="1" stop-color="#67FFFC"/>
</linearGradient>
<linearGradient id="paint1_linear_417_799" x1="2149.61" y1="475.781" x2="1359.79" y2="125.381" gradientUnits="userSpaceOnUse">
<stop offset="0.497995" stop-color="#6978FF"/>
<stop offset="0.528171" stop-color="#6087FF"/>
<stop offset="0.580146" stop-color="#4DA5FF"/>
<stop offset="0.642549" stop-color="#40BAFF"/>
<stop offset="0.765115" stop-color="#39C7FF"/>
<stop offset="0.860122" stop-color="#36CBFF"/>
<stop offset="1" stop-color="#67FFFC"/>
</linearGradient>
<linearGradient id="paint2_linear_417_799" x1="-209.878" y1="-78.0567" x2="437.998" y2="767.623" gradientUnits="userSpaceOnUse">
<stop offset="0.497995" stop-color="#6978FF"/>
<stop offset="0.528171" stop-color="#6087FF"/>
<stop offset="0.580146" stop-color="#4DA5FF"/>
<stop offset="0.642549" stop-color="#40BAFF"/>
<stop offset="0.765115" stop-color="#39C7FF"/>
<stop offset="0.860122" stop-color="#36CBFF"/>
<stop offset="1" stop-color="#67FFFC"/>
</linearGradient>
<linearGradient id="paint3_linear_417_799" x1="-179.839" y1="-89.8419" x2="219.074" y2="179.716" gradientUnits="userSpaceOnUse">
<stop offset="0.1173" stop-color="#6978FF"/>
<stop offset="0.1876" stop-color="#6087FF"/>
<stop offset="0.3484" stop-color="#4DA5FF"/>
<stop offset="0.5073" stop-color="#40BAFF"/>
<stop offset="0.6622" stop-color="#39C7FF"/>
<stop offset="0.8083" stop-color="#36CBFF"/>
<stop offset="1" stop-color="#67FFFC"/>
</linearGradient>
<linearGradient id="paint4_linear_417_799" x1="380.328" y1="-243.309" x2="-591.154" y2="836.068" gradientUnits="userSpaceOnUse">
<stop offset="0.386" stop-color="#6978FF"/>
<stop offset="0.4432" stop-color="#6284FF"/>
<stop offset="0.6461" stop-color="#4AABFF"/>
<stop offset="0.8086" stop-color="#3BC2FF"/>
<stop offset="0.9094" stop-color="#36CBFF"/>
<stop offset="1" stop-color="#67FFFC"/>
</linearGradient>
<linearGradient id="paint5_linear_417_799" x1="988.56" y1="135.191" x2="572" y2="135.191" gradientUnits="userSpaceOnUse">
<stop stop-color="#5C8FFF"/>
<stop offset="1" stop-color="#68FFFC"/>
</linearGradient>
<linearGradient id="paint6_linear_417_799" x1="693.164" y1="86.8806" x2="705.455" y2="99.8351" gradientUnits="userSpaceOnUse">
<stop offset="0.1173" stop-color="#6978FF"/>
<stop offset="0.1876" stop-color="#6087FF"/>
<stop offset="0.3484" stop-color="#4DA5FF"/>
<stop offset="0.5073" stop-color="#40BAFF"/>
<stop offset="0.6622" stop-color="#39C7FF"/>
<stop offset="0.8083" stop-color="#36CBFF"/>
<stop offset="1" stop-color="#67FFFC"/>
</linearGradient>
<linearGradient id="paint7_linear_417_799" x1="690.352" y1="108.859" x2="726.694" y2="69.0111" gradientUnits="userSpaceOnUse">
<stop offset="0.386" stop-color="#6978FF"/>
<stop offset="0.4432" stop-color="#6284FF"/>
<stop offset="0.6461" stop-color="#4AABFF"/>
<stop offset="0.8086" stop-color="#3BC2FF"/>
<stop offset="0.9094" stop-color="#36CBFF"/>
<stop offset="1" stop-color="#67FFFC"/>
</linearGradient>
<linearGradient id="paint8_linear_417_799" x1="724.306" y1="88.0706" x2="695.808" y2="116.291" gradientUnits="userSpaceOnUse">
<stop offset="0.0470588" stop-color="#6978FF"/>
<stop offset="0.1245" stop-color="#6087FF"/>
<stop offset="0.3016" stop-color="#4DA5FF"/>
<stop offset="0.4767" stop-color="#40BAFF"/>
<stop offset="0.6473" stop-color="#39C7FF"/>
<stop offset="0.8083" stop-color="#36CBFF"/>
<stop offset="1" stop-color="#67FFFC"/>
</linearGradient>
<linearGradient id="paint9_linear_417_799" x1="699.779" y1="82.8864" x2="704.041" y2="88.948" gradientUnits="userSpaceOnUse">
<stop offset="0.1173" stop-color="#6978FF"/>
<stop offset="0.1876" stop-color="#6087FF"/>
<stop offset="0.3484" stop-color="#4DA5FF"/>
<stop offset="0.5073" stop-color="#40BAFF"/>
<stop offset="0.6622" stop-color="#39C7FF"/>
<stop offset="0.8083" stop-color="#36CBFF"/>
<stop offset="1" stop-color="#67FFFC"/>
</linearGradient>
<linearGradient id="paint10_linear_417_799" x1="682.329" y1="102.844" x2="699.418" y2="81.399" gradientUnits="userSpaceOnUse">
<stop offset="0.3128" stop-color="#6978FF"/>
<stop offset="0.3633" stop-color="#6087FF"/>
<stop offset="0.4785" stop-color="#4DA5FF"/>
<stop offset="0.5925" stop-color="#40BAFF"/>
<stop offset="0.7035" stop-color="#39C7FF"/>
<stop offset="0.8083" stop-color="#36CBFF"/>
<stop offset="1" stop-color="#67FFFC"/>
</linearGradient>
<linearGradient id="paint11_linear_417_799" x1="700.229" y1="70.0936" x2="681.883" y2="92.5266" gradientUnits="userSpaceOnUse">
<stop offset="0.00761283" stop-color="#6978FF"/>
<stop offset="0.0891092" stop-color="#6087FF"/>
<stop offset="0.2754" stop-color="#4DA5FF"/>
<stop offset="0.4596" stop-color="#40BAFF"/>
<stop offset="0.639" stop-color="#39C7FF"/>
<stop offset="0.8083" stop-color="#36CBFF"/>
<stop offset="1" stop-color="#67FFFC"/>
</linearGradient>
<clipPath id="clip0_417_799">
<rect width="1584" height="268.213" fill="white"/>
</clipPath>
</defs>
</svg>
