<svg width="1584" height="269" viewBox="0 0 1584 269" fill="none" xmlns="http://www.w3.org/2000/svg">
<g clip-path="url(#clip0_417_799)">
<rect width="1584" height="268.213" fill="black"/>
<path d="M1528.73 -93.1951C1503.17 -108.351 1470.95 -101.044 1457.31 -76.9949L1359.73 99.3549C1346.21 123.795 1356.3 155.87 1382.37 171.33C1407.92 186.486 1440.14 179.178 1453.79 155.13L1551.36 -21.2203C1564.5 -45.572 1554.41 -77.6478 1528.73 -93.1951Z" fill="url(#paint0_linear_417_799)"/>
<path d="M1734.94 386.816C1760.86 402.201 1792.51 395.015 1805.96 370.693C1819.14 346.847 1808.99 314.536 1783.45 299.063L1521.3 143.793C1495.38 128.408 1499.96 131.123 1474.54 116.04C1416.6 81.6498 1404.47 19.3433 1417.53 -4.89179L1357.15 104.322C1343.97 128.168 1354.12 160.479 1379.66 175.951L1734.94 386.816Z" fill="url(#paint1_linear_417_799)"/>
<g filter="url(#filter0_f_417_799)">
<path d="M368.687 123.452C336.998 101.237 286.469 99.5406 255.305 119.646C224.751 139.357 225.178 173.795 256.251 195.989L576.865 420.341C608.554 442.556 602.962 438.636 634.03 460.416C704.864 510.073 694.575 574.427 664.027 594.553L803.961 504.276C834.514 484.564 834.087 450.127 803.014 427.932L368.687 123.452Z" fill="url(#paint2_linear_417_799)"/>
</g>
<path d="M-83.6474 -2.60309C-69.4779 -23.8415 -41.7745 -27.5092 -22.2327 -10.7338L153.416 142.54C173.008 159.696 177.14 190.903 162.687 212.567C148.517 233.805 120.814 237.473 101.272 220.697L-74.3765 67.4238C-93.5845 50.6042 -97.7665 19.0159 -83.6474 -2.60309Z" fill="url(#paint3_linear_417_799)"/>
<path d="M-34.7207 509.391C-49.1736 531.054 -76.5431 534.678 -96.1353 517.522C-115.343 500.702 -119.525 469.114 -105.406 447.495L40.5397 228.739C54.9925 207.076 52.4419 210.899 66.6113 189.66C98.9178 141.237 85.0499 82.6615 65.7915 65.4613L153.764 142.495C172.972 159.314 177.154 190.903 163.035 212.522L-34.7207 509.391Z" fill="url(#paint4_linear_417_799)"/>
<g filter="url(#filter1_f_417_799)">
<circle cx="187.539" cy="187.539" r="187.539" transform="matrix(-1 0 0 1 224.077 -283)" fill="#3BC4FF"/>
</g>
<path d="M570.628 174.946C568.089 174.946 565.793 174.511 563.741 173.642C561.723 172.772 560.123 171.52 558.941 169.885C557.758 168.251 557.149 166.32 557.115 164.094H564.941C565.045 165.59 565.567 166.772 566.506 167.642C567.48 168.511 568.802 168.946 570.471 168.946C572.176 168.946 573.515 168.546 574.489 167.746C575.463 166.911 575.95 165.833 575.95 164.511C575.95 163.433 575.619 162.546 574.958 161.85C574.297 161.155 573.463 160.616 572.454 160.233C571.48 159.816 570.123 159.363 568.384 158.877C566.019 158.181 564.089 157.503 562.593 156.842C561.132 156.146 559.862 155.12 558.784 153.763C557.741 152.372 557.219 150.529 557.219 148.233C557.219 146.076 557.758 144.198 558.836 142.598C559.915 140.998 561.428 139.781 563.376 138.946C565.323 138.076 567.549 137.641 570.054 137.641C573.81 137.641 576.854 138.563 579.184 140.407C581.55 142.215 582.854 144.755 583.097 148.024H575.063C574.993 146.772 574.454 145.746 573.445 144.946C572.471 144.111 571.167 143.694 569.532 143.694C568.106 143.694 566.958 144.059 566.089 144.789C565.254 145.52 564.836 146.581 564.836 147.972C564.836 148.946 565.149 149.763 565.776 150.424C566.436 151.05 567.236 151.572 568.176 151.989C569.149 152.372 570.506 152.824 572.245 153.346C574.61 154.042 576.541 154.737 578.037 155.433C579.532 156.129 580.819 157.172 581.897 158.563C582.976 159.955 583.515 161.781 583.515 164.042C583.515 165.99 583.011 167.798 582.002 169.468C580.993 171.138 579.515 172.477 577.567 173.485C575.619 174.459 573.306 174.946 570.628 174.946ZM616.717 159.503C616.717 160.546 616.648 161.485 616.509 162.32H595.378C595.552 164.407 596.282 166.042 597.569 167.224C598.856 168.407 600.439 168.998 602.317 168.998C605.03 168.998 606.961 167.833 608.109 165.503H615.987C615.152 168.285 613.552 170.581 611.187 172.39C608.822 174.164 605.917 175.051 602.474 175.051C599.691 175.051 597.187 174.442 594.961 173.225C592.769 171.972 591.048 170.216 589.795 167.955C588.578 165.694 587.969 163.085 587.969 160.129C587.969 157.137 588.578 154.511 589.795 152.25C591.013 149.989 592.717 148.25 594.908 147.033C597.1 145.815 599.622 145.207 602.474 145.207C605.222 145.207 607.674 145.798 609.83 146.981C612.022 148.163 613.709 149.85 614.891 152.042C616.109 154.198 616.717 156.685 616.717 159.503ZM609.152 157.416C609.117 155.537 608.439 154.042 607.117 152.929C605.796 151.781 604.178 151.207 602.265 151.207C600.456 151.207 598.926 151.763 597.674 152.876C596.456 153.955 595.709 155.468 595.43 157.416H609.152ZM629.353 149.85C630.293 148.529 631.58 147.433 633.214 146.563C634.884 145.659 636.78 145.207 638.901 145.207C641.371 145.207 643.597 145.815 645.58 147.033C647.597 148.25 649.18 149.989 650.328 152.25C651.51 154.476 652.102 157.068 652.102 160.024C652.102 162.981 651.51 165.607 650.328 167.903C649.18 170.164 647.597 171.92 645.58 173.172C643.597 174.425 641.371 175.051 638.901 175.051C636.78 175.051 634.901 174.616 633.267 173.746C631.667 172.877 630.362 171.781 629.353 170.459V188.355H622.049V145.676H629.353V149.85ZM644.641 160.024C644.641 158.285 644.275 156.79 643.545 155.537C642.849 154.25 641.91 153.276 640.728 152.616C639.58 151.955 638.327 151.624 636.971 151.624C635.649 151.624 634.397 151.972 633.214 152.668C632.067 153.329 631.127 154.303 630.397 155.59C629.701 156.876 629.353 158.39 629.353 160.129C629.353 161.868 629.701 163.381 630.397 164.668C631.127 165.955 632.067 166.946 633.214 167.642C634.397 168.303 635.649 168.633 636.971 168.633C638.327 168.633 639.58 168.285 640.728 167.59C641.91 166.894 642.849 165.903 643.545 164.616C644.275 163.329 644.641 161.798 644.641 160.024ZM670.244 175.051C667.462 175.051 664.957 174.442 662.731 173.225C660.505 171.972 658.749 170.216 657.462 167.955C656.21 165.694 655.583 163.085 655.583 160.129C655.583 157.172 656.227 154.563 657.514 152.303C658.836 150.042 660.627 148.302 662.888 147.085C665.149 145.833 667.671 145.207 670.453 145.207C673.236 145.207 675.758 145.833 678.018 147.085C680.279 148.302 682.053 150.042 683.34 152.303C684.662 154.563 685.323 157.172 685.323 160.129C685.323 163.085 684.645 165.694 683.288 167.955C681.966 170.216 680.158 171.972 677.862 173.225C675.601 174.442 673.062 175.051 670.244 175.051ZM670.244 168.685C671.566 168.685 672.801 168.372 673.949 167.746C675.131 167.085 676.071 166.111 676.766 164.824C677.462 163.537 677.81 161.972 677.81 160.129C677.81 157.381 677.079 155.276 675.618 153.816C674.192 152.32 672.436 151.572 670.349 151.572C668.262 151.572 666.505 152.32 665.079 153.816C663.688 155.276 662.992 157.381 662.992 160.129C662.992 162.877 663.67 164.998 665.027 166.494C666.418 167.955 668.157 168.685 670.244 168.685ZM697.985 135.972V174.581H690.681V135.972H697.985ZM708.907 142.233C707.62 142.233 706.541 141.833 705.672 141.033C704.837 140.198 704.42 139.172 704.42 137.955C704.42 136.737 704.837 135.728 705.672 134.928C706.541 134.094 707.62 133.676 708.907 133.676C710.194 133.676 711.254 134.094 712.089 134.928C712.959 135.728 713.394 136.737 713.394 137.955C713.394 139.172 712.959 140.198 712.089 141.033C711.254 141.833 710.194 142.233 708.907 142.233ZM712.507 145.676V174.581H705.202V145.676H712.507ZM717.845 160.024C717.845 157.103 718.419 154.511 719.567 152.25C720.75 149.989 722.332 148.25 724.315 147.033C726.332 145.815 728.576 145.207 731.045 145.207C733.202 145.207 735.08 145.642 736.68 146.511C738.315 147.381 739.619 148.476 740.593 149.798V145.676H747.95V174.581H740.593V170.355C739.654 171.711 738.35 172.842 736.68 173.746C735.045 174.616 733.15 175.051 730.993 175.051C728.558 175.051 726.332 174.425 724.315 173.172C722.332 171.92 720.75 170.164 719.567 167.903C718.419 165.607 717.845 162.981 717.845 160.024ZM740.593 160.129C740.593 158.355 740.245 156.842 739.55 155.59C738.854 154.303 737.915 153.329 736.732 152.668C735.55 151.972 734.28 151.624 732.924 151.624C731.567 151.624 730.315 151.955 729.167 152.616C728.019 153.276 727.08 154.25 726.35 155.537C725.654 156.79 725.306 158.285 725.306 160.024C725.306 161.764 725.654 163.294 726.35 164.616C727.08 165.903 728.019 166.894 729.167 167.59C730.35 168.285 731.602 168.633 732.924 168.633C734.28 168.633 735.55 168.303 736.732 167.642C737.915 166.946 738.854 165.972 739.55 164.72C740.245 163.433 740.593 161.903 740.593 160.129ZM783.482 174.581L777.534 165.607L772.264 174.581H764.438L773.881 160.077L764.334 145.676H772.577L778.473 154.598L783.795 145.676H791.621L782.125 160.077L791.725 174.581H783.482ZM834.681 149.433C834.681 151.381 834.212 153.207 833.273 154.911C832.368 156.616 830.925 157.99 828.942 159.033C826.994 160.077 824.525 160.598 821.534 160.598H815.429V174.581H808.125V138.163H821.534C824.351 138.163 826.751 138.65 828.734 139.624C830.716 140.598 832.195 141.937 833.168 143.642C834.177 145.346 834.681 147.276 834.681 149.433ZM821.22 154.703C823.238 154.703 824.734 154.25 825.707 153.346C826.681 152.407 827.168 151.103 827.168 149.433C827.168 145.885 825.186 144.111 821.22 144.111H815.429V154.703H821.22ZM866.737 159.503C866.737 160.546 866.668 161.485 866.529 162.32H845.398C845.572 164.407 846.302 166.042 847.589 167.224C848.876 168.407 850.459 168.998 852.337 168.998C855.05 168.998 856.981 167.833 858.129 165.503H866.007C865.172 168.285 863.572 170.581 861.207 172.39C858.842 174.164 855.937 175.051 852.494 175.051C849.711 175.051 847.207 174.442 844.981 173.225C842.789 171.972 841.068 170.216 839.815 167.955C838.598 165.694 837.989 163.085 837.989 160.129C837.989 157.137 838.598 154.511 839.815 152.25C841.033 149.989 842.737 148.25 844.928 147.033C847.12 145.815 849.642 145.207 852.494 145.207C855.242 145.207 857.694 145.798 859.85 146.981C862.042 148.163 863.729 149.85 864.911 152.042C866.129 154.198 866.737 156.685 866.737 159.503ZM859.172 157.416C859.137 155.537 858.459 154.042 857.137 152.929C855.816 151.781 854.198 151.207 852.285 151.207C850.476 151.207 848.946 151.763 847.694 152.876C846.476 153.955 845.729 155.468 845.45 157.416H859.172ZM883.391 145.207C885.547 145.207 887.443 145.642 889.078 146.511C890.713 147.346 892 148.442 892.939 149.798V145.676H900.295V174.79C900.295 177.468 899.756 179.851 898.678 181.938C897.6 184.059 895.982 185.729 893.826 186.946C891.669 188.199 889.061 188.825 886 188.825C881.895 188.825 878.521 187.868 875.878 185.955C873.269 184.042 871.791 181.433 871.443 178.129H878.695C879.078 179.451 879.895 180.494 881.147 181.259C882.434 182.059 883.982 182.459 885.791 182.459C887.913 182.459 889.634 181.816 890.956 180.529C892.278 179.277 892.939 177.364 892.939 174.79V170.303C892 171.659 890.695 172.79 889.026 173.694C887.391 174.598 885.513 175.051 883.391 175.051C880.956 175.051 878.73 174.425 876.713 173.172C874.695 171.92 873.095 170.164 871.913 167.903C870.765 165.607 870.191 162.981 870.191 160.024C870.191 157.103 870.765 154.511 871.913 152.25C873.095 149.989 874.678 148.25 876.66 147.033C878.678 145.815 880.921 145.207 883.391 145.207ZM892.939 160.129C892.939 158.355 892.591 156.842 891.895 155.59C891.2 154.303 890.261 153.329 889.078 152.668C887.895 151.972 886.626 151.624 885.269 151.624C883.913 151.624 882.66 151.955 881.513 152.616C880.365 153.276 879.426 154.25 878.695 155.537C878 156.79 877.652 158.285 877.652 160.024C877.652 161.764 878 163.294 878.695 164.616C879.426 165.903 880.365 166.894 881.513 167.59C882.695 168.285 883.947 168.633 885.269 168.633C886.626 168.633 887.895 168.303 889.078 167.642C890.261 166.946 891.2 165.972 891.895 164.72C892.591 163.433 892.939 161.903 892.939 160.129ZM905.551 160.024C905.551 157.103 906.125 154.511 907.273 152.25C908.456 149.989 910.038 148.25 912.021 147.033C914.038 145.815 916.282 145.207 918.751 145.207C920.908 145.207 922.786 145.642 924.386 146.511C926.021 147.381 927.325 148.476 928.299 149.798V145.676H935.656V174.581H928.299V170.355C927.36 171.711 926.056 172.842 924.386 173.746C922.751 174.616 920.856 175.051 918.699 175.051C916.264 175.051 914.038 174.425 912.021 173.172C910.038 171.92 908.456 170.164 907.273 167.903C906.125 165.607 905.551 162.981 905.551 160.024ZM928.299 160.129C928.299 158.355 927.951 156.842 927.256 155.59C926.56 154.303 925.621 153.329 924.438 152.668C923.256 151.972 921.986 151.624 920.63 151.624C919.273 151.624 918.021 151.955 916.873 152.616C915.725 153.276 914.786 154.25 914.056 155.537C913.36 156.79 913.012 158.285 913.012 160.024C913.012 161.764 913.36 163.294 914.056 164.616C914.786 165.903 915.725 166.894 916.873 167.59C918.056 168.285 919.308 168.633 920.63 168.633C921.986 168.633 923.256 168.303 924.438 167.642C925.621 166.946 926.56 165.972 927.256 164.72C927.951 163.433 928.299 161.903 928.299 160.129ZM953.851 175.051C951.486 175.051 949.364 174.633 947.486 173.798C945.607 172.929 944.112 171.764 942.999 170.303C941.92 168.842 941.329 167.224 941.225 165.451H948.581C948.72 166.564 949.26 167.485 950.199 168.216C951.173 168.946 952.373 169.311 953.799 169.311C955.19 169.311 956.268 169.033 957.034 168.477C957.834 167.92 958.234 167.207 958.234 166.337C958.234 165.398 957.747 164.703 956.773 164.25C955.834 163.764 954.321 163.242 952.234 162.685C950.077 162.164 948.303 161.624 946.912 161.068C945.555 160.511 944.373 159.659 943.364 158.511C942.39 157.363 941.903 155.816 941.903 153.868C941.903 152.268 942.355 150.807 943.26 149.485C944.199 148.163 945.52 147.12 947.225 146.355C948.964 145.589 950.999 145.207 953.329 145.207C956.773 145.207 959.521 146.076 961.573 147.816C963.625 149.52 964.755 151.833 964.964 154.755H957.973C957.868 153.607 957.381 152.703 956.512 152.042C955.677 151.346 954.547 150.998 953.121 150.998C951.799 150.998 950.773 151.242 950.042 151.729C949.347 152.216 948.999 152.894 948.999 153.763C948.999 154.737 949.486 155.485 950.46 156.007C951.434 156.494 952.947 156.998 954.999 157.52C957.086 158.042 958.808 158.581 960.164 159.137C961.521 159.694 962.686 160.563 963.66 161.746C964.669 162.894 965.19 164.424 965.225 166.337C965.225 168.007 964.755 169.503 963.816 170.824C962.912 172.146 961.59 173.19 959.851 173.955C958.147 174.685 956.147 175.051 953.851 175.051ZM998.508 145.676V174.581H991.152V170.929C990.213 172.181 988.978 173.172 987.447 173.903C985.952 174.598 984.317 174.946 982.543 174.946C980.282 174.946 978.282 174.477 976.543 173.538C974.804 172.564 973.43 171.155 972.421 169.311C971.447 167.433 970.96 165.207 970.96 162.633V145.676H978.265V161.59C978.265 163.885 978.839 165.659 979.986 166.911C981.134 168.129 982.699 168.738 984.682 168.738C986.7 168.738 988.282 168.129 989.43 166.911C990.578 165.659 991.152 163.885 991.152 161.59V145.676H998.508ZM1016.78 175.051C1014.41 175.051 1012.29 174.633 1010.41 173.798C1008.53 172.929 1007.04 171.764 1005.92 170.303C1004.85 168.842 1004.25 167.224 1004.15 165.451H1011.51C1011.65 166.564 1012.18 167.485 1013.12 168.216C1014.1 168.946 1015.3 169.311 1016.72 169.311C1018.12 169.311 1019.19 169.033 1019.96 168.477C1020.76 167.92 1021.16 167.207 1021.16 166.337C1021.16 165.398 1020.67 164.703 1019.7 164.25C1018.76 163.764 1017.25 163.242 1015.16 162.685C1013 162.164 1011.23 161.624 1009.84 161.068C1008.48 160.511 1007.3 159.659 1006.29 158.511C1005.32 157.363 1004.83 155.816 1004.83 153.868C1004.83 152.268 1005.28 150.807 1006.18 149.485C1007.12 148.163 1008.45 147.12 1010.15 146.355C1011.89 145.589 1013.92 145.207 1016.25 145.207C1019.7 145.207 1022.45 146.076 1024.5 147.816C1026.55 149.52 1027.68 151.833 1027.89 154.755H1020.9C1020.79 153.607 1020.31 152.703 1019.44 152.042C1018.6 151.346 1017.47 150.998 1016.05 150.998C1014.72 150.998 1013.7 151.242 1012.97 151.729C1012.27 152.216 1011.92 152.894 1011.92 153.763C1011.92 154.737 1012.41 155.485 1013.38 156.007C1014.36 156.494 1015.87 156.998 1017.92 157.52C1020.01 158.042 1021.73 158.581 1023.09 159.137C1024.45 159.694 1025.61 160.563 1026.59 161.746C1027.59 162.894 1028.12 164.424 1028.15 166.337C1028.15 168.007 1027.68 169.503 1026.74 170.824C1025.84 172.146 1024.52 173.19 1022.78 173.955C1021.07 174.685 1019.07 175.051 1016.78 175.051Z" fill="url(#paint5_linear_417_799)"/>
<path d="M697.916 91.2406C697.229 91.8843 697.229 92.9529 697.916 93.6095L702.969 98.3472C703.67 99.0038 704.796 99.0038 705.496 98.3472C706.183 97.7035 706.183 96.6349 705.496 95.9783L700.443 91.2406C699.756 90.5969 698.616 90.5969 697.916 91.2406Z" fill="url(#paint6_linear_417_799)"/>
<path d="M715.095 89.3482C715.796 88.6916 715.796 87.636 715.095 86.9794C714.409 86.3357 713.269 86.3357 712.569 86.9794L705.496 93.6096C704.796 94.2662 704.92 94.1503 704.233 94.794C702.667 96.2617 700.525 96.03 699.825 95.3863L702.97 98.3345C703.656 98.9782 704.796 98.9782 705.496 98.3345L715.095 89.3482Z" fill="url(#paint7_linear_417_799)"/>
<path d="M725.23 87.0184C724.543 86.3747 723.404 86.3747 722.703 87.0184L717.663 91.7562C716.963 92.4127 716.963 93.4684 717.663 94.125C718.35 94.7687 719.49 94.7687 720.19 94.125L725.244 89.3873C725.917 88.7307 725.917 87.6621 725.23 87.0184Z" fill="url(#paint8_linear_417_799)"/>
<path d="M705.538 88.8983C706.224 88.2546 706.224 87.1861 705.538 86.5295L700.484 81.7918C699.784 81.1352 698.658 81.1352 697.957 81.7918C697.271 82.4355 697.271 83.504 697.957 84.1606L703.011 88.8983C703.711 89.5421 704.837 89.5421 705.538 88.8983Z" fill="url(#paint9_linear_417_799)"/>
<path d="M688.358 90.8032C687.658 91.4598 687.658 92.5155 688.358 93.172C689.045 93.8158 690.185 93.8158 690.885 93.172L697.957 86.5289C698.658 85.8723 698.534 85.9882 699.221 85.3445C700.786 83.8768 702.929 84.1086 703.629 84.7523L700.484 81.8041C699.798 81.1604 698.658 81.1604 697.957 81.8041L688.358 90.8032Z" fill="url(#paint10_linear_417_799)"/>
<path d="M678.292 93.1465C678.979 93.7902 680.119 93.7902 680.819 93.1465L685.873 88.4088C686.573 87.7522 686.573 86.6965 685.873 86.0399C685.186 85.3962 684.046 85.3962 683.346 86.0399L678.292 90.7776C677.606 91.4342 677.606 92.4899 678.292 93.1465Z" fill="url(#paint11_linear_417_799)"/>
<path d="M732.291 84.2037H735.641V96.0274H742.717V99H732.291V84.2037ZM744.682 84.2037H748.032V99H744.682V84.2037ZM758.575 90.8587H764.276V97.2697C763.507 97.9352 762.605 98.4528 761.57 98.8225C760.549 99.1775 759.381 99.3549 758.065 99.3549C756.852 99.3549 755.765 99.1701 754.804 98.8003C753.857 98.4158 753.051 97.8834 752.386 97.2031C751.72 96.5229 751.21 95.7095 750.855 94.763C750.515 93.8165 750.345 92.7739 750.345 91.6351C750.345 90.526 750.53 89.4981 750.899 88.5516C751.269 87.6052 751.794 86.7844 752.474 86.0893C753.155 85.3794 753.961 84.8248 754.892 84.4255C755.824 84.0262 756.859 83.8266 757.998 83.8266C759.344 83.8266 760.52 84.078 761.525 84.5808C762.546 85.0689 763.389 85.7565 764.054 86.6439L761.791 88.7957C761.318 88.2337 760.793 87.7752 760.216 87.4203C759.654 87.0654 758.959 86.8879 758.131 86.8879C757.451 86.8879 756.844 87.0136 756.312 87.265C755.78 87.5164 755.329 87.8566 754.959 88.2854C754.589 88.7143 754.308 89.2171 754.116 89.7939C753.924 90.3707 753.828 90.9844 753.828 91.6351C753.828 92.345 753.938 92.9883 754.16 93.5651C754.382 94.1418 754.693 94.6373 755.092 95.0514C755.491 95.4507 755.957 95.7612 756.49 95.9831C757.037 96.2049 757.628 96.3158 758.264 96.3158C758.856 96.3158 759.396 96.2493 759.884 96.1162C760.372 95.9683 760.808 95.739 761.192 95.4285V93.5651H758.575V90.8587ZM766.952 84.2037H770.302V89.8826H776.713V84.2037H780.063V99H776.713V92.9218H770.302V99H766.952V84.2037ZM786.756 87.1541H781.964V84.2037H794.897V87.1541H790.127V99H786.756V87.1541ZM796.805 84.2037H800.154V96.0274H807.231V99H796.805V84.2037ZM809.196 84.2037H812.546V99H809.196V84.2037ZM815.435 84.2037H818.63L825.041 93.8091V84.2037H828.346V99H825.307L818.741 89.2171V99H815.435V84.2037ZM831.228 84.2037H834.578V90.1045L839.524 84.2037H843.406L838.326 89.9714L844.094 99H840.035L836.086 92.5446L834.578 94.2306V99H831.228V84.2037Z" fill="white"/>
<path d="M845.631 95.4728H849.247V99H845.631V95.4728Z" fill="#6A81FF"/>
<g filter="url(#filter2_f_417_799)">
<circle cx="214.5" cy="214.5" r="214.5" transform="matrix(-1 0 0 1 1737 109)" fill="#6A7AFF"/>
</g>
</g>
<defs>
<filter id="filter0_f_417_799" x="27.4628" y="-99.5906" width="1005.16" height="964.991" filterUnits="userSpaceOnUse" color-interpolation-filters="sRGB">
<feFlood flood-opacity="0" result="BackgroundImageFix"/>
<feBlend mode="normal" in="SourceGraphic" in2="BackgroundImageFix" result="shape"/>
<feGaussianBlur stdDeviation="102.601" result="effect1_foregroundBlur_417_799"/>
</filter>
<filter id="filter1_f_417_799" x="-402.73" y="-534.73" width="878.536" height="878.536" filterUnits="userSpaceOnUse" color-interpolation-filters="sRGB">
<feFlood flood-opacity="0" result="BackgroundImageFix"/>
<feBlend mode="normal" in="SourceGraphic" in2="BackgroundImageFix" result="shape"/>
<feGaussianBlur stdDeviation="125.865" result="effect1_foregroundBlur_417_799"/>
</filter>
<filter id="filter2_f_417_799" x="977.687" y="-221.313" width="1089.63" height="1089.63" filterUnits="userSpaceOnUse" color-interpolation-filters="sRGB">
<feFlood flood-opacity="0" result="BackgroundImageFix"/>
<feBlend mode="normal" in="SourceGraphic" in2="BackgroundImageFix" result="shape"/>
<feGaussianBlur stdDeviation="165.157" result="effect1_foregroundBlur_417_799"/>
</filter>
<linearGradient id="paint0_linear_417_799" x1="1399.06" y1="111.964" x2="1533.29" y2="-59.0111" gradientUnits="userSpaceOnUse">
<stop offset="0.1173" stop-color="#6978FF"/>
<stop offset="0.1876" stop-color="#6087FF"/>
<stop offset="0.3484" stop-color="#4DA5FF"/>
<stop offset="0.5073" stop-color="#40BAFF"/>
<stop offset="0.6622" stop-color="#39C7FF"/>
<stop offset="0.8083" stop-color="#36CBFF"/>
<stop offset="1" stop-color="#67FFFC"/>
</linearGradient>
<linearGradient id="paint1_linear_417_799" x1="2149.61" y1="475.781" x2="1359.79" y2="125.381" gradientUnits="userSpaceOnUse">
<stop offset="0.497995" stop-color="#6978FF"/>
<stop offset="0.528171" stop-color="#6087FF"/>
<stop offset="0.580146" stop-color="#4DA5FF"/>
<stop offset="0.642549" stop-color="#40BAFF"/>
<stop offset="0.765115" stop-color="#39C7FF"/>
<stop offset="0.860122" stop-color="#36CBFF"/>
<stop offset="1" stop-color="#67FFFC"/>
</linearGradient>
<linearGradient id="paint2_linear_417_799" x1="-209.878" y1="-78.0567" x2="437.998" y2="767.623" gradientUnits="userSpaceOnUse">
<stop offset="0.497995" stop-color="#6978FF"/>
<stop offset="0.528171" stop-color="#6087FF"/>
<stop offset="0.580146" stop-color="#4DA5FF"/>
<stop offset="0.642549" stop-color="#40BAFF"/>
<stop offset="0.765115" stop-color="#39C7FF"/>
<stop offset="0.860122" stop-color="#36CBFF"/>
<stop offset="1" stop-color="#67FFFC"/>
</linearGradient>
<linearGradient id="paint3_linear_417_799" x1="-179.839" y1="-89.8419" x2="219.074" y2="179.716" gradientUnits="userSpaceOnUse">
<stop offset="0.1173" stop-color="#6978FF"/>
<stop offset="0.1876" stop-color="#6087FF"/>
<stop offset="0.3484" stop-color="#4DA5FF"/>
<stop offset="0.5073" stop-color="#40BAFF"/>
<stop offset="0.6622" stop-color="#39C7FF"/>
<stop offset="0.8083" stop-color="#36CBFF"/>
<stop offset="1" stop-color="#67FFFC"/>
</linearGradient>
<linearGradient id="paint4_linear_417_799" x1="380.328" y1="-243.309" x2="-591.154" y2="836.068" gradientUnits="userSpaceOnUse">
<stop offset="0.386" stop-color="#6978FF"/>
<stop offset="0.4432" stop-color="#6284FF"/>
<stop offset="0.6461" stop-color="#4AABFF"/>
<stop offset="0.8086" stop-color="#3BC2FF"/>
<stop offset="0.9094" stop-color="#36CBFF"/>
<stop offset="1" stop-color="#67FFFC"/>
</linearGradient>
<linearGradient id="paint5_linear_417_799" x1="1005.59" y1="135.191" x2="554" y2="135.191" gradientUnits="userSpaceOnUse">
<stop stop-color="#5C8FFF"/>
<stop offset="1" stop-color="#68FFFC"/>
</linearGradient>
<linearGradient id="paint6_linear_417_799" x1="693.164" y1="86.8806" x2="705.455" y2="99.8351" gradientUnits="userSpaceOnUse">
<stop offset="0.1173" stop-color="#6978FF"/>
<stop offset="0.1876" stop-color="#6087FF"/>
<stop offset="0.3484" stop-color="#4DA5FF"/>
<stop offset="0.5073" stop-color="#40BAFF"/>
<stop offset="0.6622" stop-color="#39C7FF"/>
<stop offset="0.8083" stop-color="#36CBFF"/>
<stop offset="1" stop-color="#67FFFC"/>
</linearGradient>
<linearGradient id="paint7_linear_417_799" x1="690.352" y1="108.859" x2="726.694" y2="69.0111" gradientUnits="userSpaceOnUse">
<stop offset="0.386" stop-color="#6978FF"/>
<stop offset="0.4432" stop-color="#6284FF"/>
<stop offset="0.6461" stop-color="#4AABFF"/>
<stop offset="0.8086" stop-color="#3BC2FF"/>
<stop offset="0.9094" stop-color="#36CBFF"/>
<stop offset="1" stop-color="#67FFFC"/>
</linearGradient>
<linearGradient id="paint8_linear_417_799" x1="724.306" y1="88.0706" x2="695.808" y2="116.291" gradientUnits="userSpaceOnUse">
<stop offset="0.0470588" stop-color="#6978FF"/>
<stop offset="0.1245" stop-color="#6087FF"/>
<stop offset="0.3016" stop-color="#4DA5FF"/>
<stop offset="0.4767" stop-color="#40BAFF"/>
<stop offset="0.6473" stop-color="#39C7FF"/>
<stop offset="0.8083" stop-color="#36CBFF"/>
<stop offset="1" stop-color="#67FFFC"/>
</linearGradient>
<linearGradient id="paint9_linear_417_799" x1="699.779" y1="82.8864" x2="704.041" y2="88.948" gradientUnits="userSpaceOnUse">
<stop offset="0.1173" stop-color="#6978FF"/>
<stop offset="0.1876" stop-color="#6087FF"/>
<stop offset="0.3484" stop-color="#4DA5FF"/>
<stop offset="0.5073" stop-color="#40BAFF"/>
<stop offset="0.6622" stop-color="#39C7FF"/>
<stop offset="0.8083" stop-color="#36CBFF"/>
<stop offset="1" stop-color="#67FFFC"/>
</linearGradient>
<linearGradient id="paint10_linear_417_799" x1="682.329" y1="102.844" x2="699.418" y2="81.399" gradientUnits="userSpaceOnUse">
<stop offset="0.3128" stop-color="#6978FF"/>
<stop offset="0.3633" stop-color="#6087FF"/>
<stop offset="0.4785" stop-color="#4DA5FF"/>
<stop offset="0.5925" stop-color="#40BAFF"/>
<stop offset="0.7035" stop-color="#39C7FF"/>
<stop offset="0.8083" stop-color="#36CBFF"/>
<stop offset="1" stop-color="#67FFFC"/>
</linearGradient>
<linearGradient id="paint11_linear_417_799" x1="700.229" y1="70.0936" x2="681.883" y2="92.5266" gradientUnits="userSpaceOnUse">
<stop offset="0.00761283" stop-color="#6978FF"/>
<stop offset="0.0891092" stop-color="#6087FF"/>
<stop offset="0.2754" stop-color="#4DA5FF"/>
<stop offset="0.4596" stop-color="#40BAFF"/>
<stop offset="0.639" stop-color="#39C7FF"/>
<stop offset="0.8083" stop-color="#36CBFF"/>
<stop offset="1" stop-color="#67FFFC"/>
</linearGradient>
<clipPath id="clip0_417_799">
<rect width="1584" height="268.213" fill="white"/>
</clipPath>
</defs>
</svg>
