<svg width="1584" height="269" viewBox="0 0 1584 269" fill="none" xmlns="http://www.w3.org/2000/svg">
<g clip-path="url(#clip0_417_799)">
<rect width="1584" height="268.213" fill="black"/>
<path d="M1528.73 -93.1951C1503.17 -108.351 1470.95 -101.044 1457.31 -76.9949L1359.73 99.3549C1346.21 123.795 1356.3 155.87 1382.37 171.33C1407.92 186.486 1440.14 179.178 1453.79 155.13L1551.36 -21.2203C1564.5 -45.572 1554.41 -77.6478 1528.73 -93.1951Z" fill="url(#paint0_linear_417_799)"/>
<path d="M1734.94 386.816C1760.86 402.201 1792.51 395.015 1805.96 370.693C1819.14 346.847 1808.99 314.536 1783.45 299.063L1521.3 143.793C1495.38 128.408 1499.96 131.123 1474.54 116.04C1416.6 81.6498 1404.47 19.3433 1417.53 -4.89179L1357.15 104.322C1343.97 128.168 1354.12 160.479 1379.66 175.951L1734.94 386.816Z" fill="url(#paint1_linear_417_799)"/>
<g filter="url(#filter0_f_417_799)">
<path d="M368.687 123.452C336.998 101.237 286.469 99.5406 255.305 119.646C224.751 139.357 225.178 173.795 256.251 195.989L576.865 420.341C608.554 442.556 602.962 438.636 634.03 460.416C704.864 510.073 694.575 574.427 664.027 594.553L803.961 504.276C834.514 484.564 834.087 450.127 803.014 427.932L368.687 123.452Z" fill="url(#paint2_linear_417_799)"/>
</g>
<path d="M-83.6474 -2.60309C-69.4779 -23.8415 -41.7745 -27.5092 -22.2327 -10.7338L153.416 142.54C173.008 159.696 177.14 190.903 162.687 212.567C148.517 233.805 120.814 237.473 101.272 220.697L-74.3765 67.4238C-93.5845 50.6042 -97.7665 19.0159 -83.6474 -2.60309Z" fill="url(#paint3_linear_417_799)"/>
<path d="M-34.7207 509.391C-49.1736 531.054 -76.5431 534.678 -96.1353 517.522C-115.343 500.702 -119.525 469.114 -105.406 447.495L40.5397 228.739C54.9925 207.076 52.4419 210.899 66.6113 189.66C98.9178 141.237 85.0499 82.6615 65.7915 65.4613L153.764 142.495C172.972 159.314 177.154 190.903 163.035 212.522L-34.7207 509.391Z" fill="url(#paint4_linear_417_799)"/>
<g filter="url(#filter1_f_417_799)">
<circle cx="187.539" cy="187.539" r="187.539" transform="matrix(-1 0 0 1 224.077 -283)" fill="#3BC4FF"/>
</g>
<path d="M584.696 138.163V144.059H574.992V174.581H567.687V144.059H557.983V138.163H584.696ZM616.896 159.503C616.896 160.546 616.826 161.485 616.687 162.32H595.556C595.73 164.407 596.461 166.042 597.748 167.224C599.035 168.407 600.617 168.998 602.496 168.998C605.209 168.998 607.139 167.833 608.287 165.503H616.165C615.331 168.285 613.731 170.581 611.365 172.39C609 174.164 606.096 175.051 602.652 175.051C599.869 175.051 597.365 174.442 595.139 173.225C592.948 171.972 591.226 170.216 589.974 167.955C588.756 165.694 588.148 163.085 588.148 160.129C588.148 157.137 588.756 154.511 589.974 152.25C591.191 149.989 592.895 148.25 595.087 147.033C597.278 145.815 599.8 145.207 602.652 145.207C605.4 145.207 607.852 145.798 610.009 146.981C612.2 148.163 613.887 149.85 615.07 152.042C616.287 154.198 616.896 156.685 616.896 159.503ZM609.33 157.416C609.296 155.537 608.617 154.042 607.296 152.929C605.974 151.781 604.356 151.207 602.443 151.207C600.635 151.207 599.104 151.763 597.852 152.876C596.635 153.955 595.887 155.468 595.609 157.416H609.33ZM620.349 160.129C620.349 157.137 620.958 154.529 622.175 152.303C623.393 150.042 625.08 148.302 627.236 147.085C629.393 145.833 631.862 145.207 634.645 145.207C638.228 145.207 641.184 146.111 643.515 147.92C645.88 149.694 647.462 152.198 648.262 155.433H640.384C639.967 154.181 639.254 153.207 638.245 152.511C637.271 151.781 636.054 151.416 634.593 151.416C632.506 151.416 630.854 152.181 629.636 153.711C628.419 155.207 627.81 157.346 627.81 160.129C627.81 162.877 628.419 165.016 629.636 166.546C630.854 168.042 632.506 168.79 634.593 168.79C637.549 168.79 639.48 167.468 640.384 164.824H648.262C647.462 167.955 645.88 170.442 643.515 172.285C641.149 174.129 638.193 175.051 634.645 175.051C631.862 175.051 629.393 174.442 627.236 173.225C625.08 171.972 623.393 170.233 622.175 168.007C620.958 165.746 620.349 163.12 620.349 160.129ZM669.892 145.259C672.083 145.259 674.031 145.746 675.736 146.72C677.44 147.659 678.762 149.068 679.701 150.946C680.675 152.789 681.162 155.016 681.162 157.624V174.581H673.857V158.616C673.857 156.32 673.283 154.563 672.136 153.346C670.988 152.094 669.422 151.468 667.44 151.468C665.422 151.468 663.822 152.094 662.64 153.346C661.492 154.563 660.918 156.32 660.918 158.616V174.581H653.614V135.972H660.918V149.276C661.857 148.024 663.109 147.05 664.675 146.355C666.24 145.624 667.979 145.259 669.892 145.259ZM704.125 145.259C707.569 145.259 710.352 146.355 712.473 148.546C714.595 150.703 715.656 153.729 715.656 157.624V174.581H708.352V158.616C708.352 156.32 707.778 154.563 706.63 153.346C705.482 152.094 703.917 151.468 701.934 151.468C699.917 151.468 698.317 152.094 697.134 153.346C695.986 154.563 695.412 156.32 695.412 158.616V174.581H688.108V145.676H695.412V149.276C696.386 148.024 697.621 147.05 699.117 146.355C700.647 145.624 702.317 145.259 704.125 145.259ZM735.437 175.051C732.655 175.051 730.15 174.442 727.924 173.225C725.698 171.972 723.941 170.216 722.654 167.955C721.402 165.694 720.776 163.085 720.776 160.129C720.776 157.172 721.42 154.563 722.707 152.303C724.028 150.042 725.82 148.302 728.081 147.085C730.341 145.833 732.863 145.207 735.646 145.207C738.428 145.207 740.95 145.833 743.211 147.085C745.472 148.302 747.246 150.042 748.533 152.303C749.855 154.563 750.516 157.172 750.516 160.129C750.516 163.085 749.837 165.694 748.481 167.955C747.159 170.216 745.35 171.972 743.055 173.225C740.794 174.442 738.255 175.051 735.437 175.051ZM735.437 168.685C736.759 168.685 737.994 168.372 739.142 167.746C740.324 167.085 741.263 166.111 741.959 164.824C742.655 163.537 743.002 161.972 743.002 160.129C743.002 157.381 742.272 155.276 740.811 153.816C739.385 152.32 737.628 151.572 735.541 151.572C733.455 151.572 731.698 152.32 730.272 153.816C728.881 155.276 728.185 157.381 728.185 160.129C728.185 162.877 728.863 164.998 730.22 166.494C731.611 167.955 733.35 168.685 735.437 168.685ZM763.178 135.972V174.581H755.874V135.972H763.178ZM783.23 175.051C780.447 175.051 777.943 174.442 775.717 173.225C773.491 171.972 771.734 170.216 770.447 167.955C769.195 165.694 768.569 163.085 768.569 160.129C768.569 157.172 769.212 154.563 770.499 152.303C771.821 150.042 773.612 148.302 775.873 147.085C778.134 145.833 780.656 145.207 783.439 145.207C786.221 145.207 788.743 145.833 791.004 147.085C793.265 148.302 795.039 150.042 796.326 152.303C797.647 154.563 798.308 157.172 798.308 160.129C798.308 163.085 797.63 165.694 796.273 167.955C794.952 170.216 793.143 171.972 790.847 173.225C788.586 174.442 786.047 175.051 783.23 175.051ZM783.23 168.685C784.552 168.685 785.786 168.372 786.934 167.746C788.117 167.085 789.056 166.111 789.752 164.824C790.447 163.537 790.795 161.972 790.795 160.129C790.795 157.381 790.065 155.276 788.604 153.816C787.178 152.32 785.421 151.572 783.334 151.572C781.247 151.572 779.491 152.32 778.065 153.816C776.673 155.276 775.978 157.381 775.978 160.129C775.978 162.877 776.656 164.998 778.012 166.494C779.404 167.955 781.143 168.685 783.23 168.685ZM814.988 145.207C817.145 145.207 819.04 145.642 820.675 146.511C822.31 147.346 823.597 148.442 824.536 149.798V145.676H831.893V174.79C831.893 177.468 831.354 179.851 830.275 181.938C829.197 184.059 827.58 185.729 825.423 186.946C823.267 188.199 820.658 188.825 817.597 188.825C813.493 188.825 810.119 187.868 807.475 185.955C804.866 184.042 803.388 181.433 803.04 178.129H810.293C810.675 179.451 811.493 180.494 812.745 181.259C814.032 182.059 815.58 182.459 817.388 182.459C819.51 182.459 821.232 181.816 822.554 180.529C823.875 179.277 824.536 177.364 824.536 174.79V170.303C823.597 171.659 822.293 172.79 820.623 173.694C818.988 174.598 817.11 175.051 814.988 175.051C812.553 175.051 810.327 174.425 808.31 173.172C806.292 171.92 804.692 170.164 803.51 167.903C802.362 165.607 801.788 162.981 801.788 160.024C801.788 157.103 802.362 154.511 803.51 152.25C804.692 149.989 806.275 148.25 808.258 147.033C810.275 145.815 812.519 145.207 814.988 145.207ZM824.536 160.129C824.536 158.355 824.188 156.842 823.493 155.59C822.797 154.303 821.858 153.329 820.675 152.668C819.493 151.972 818.223 151.624 816.867 151.624C815.51 151.624 814.258 151.955 813.11 152.616C811.962 153.276 811.023 154.25 810.293 155.537C809.597 156.79 809.249 158.285 809.249 160.024C809.249 161.764 809.597 163.294 810.293 164.616C811.023 165.903 811.962 166.894 813.11 167.59C814.293 168.285 815.545 168.633 816.867 168.633C818.223 168.633 819.493 168.303 820.675 167.642C821.858 166.946 822.797 165.972 823.493 164.72C824.188 163.433 824.536 161.903 824.536 160.129ZM866.679 145.676L848.783 188.251H841.009L847.27 173.851L835.688 145.676H843.879L851.34 165.868L858.905 145.676H866.679ZM895.623 174.946C893.084 174.946 890.788 174.511 888.736 173.642C886.719 172.772 885.119 171.52 883.936 169.885C882.753 168.251 882.145 166.32 882.11 164.094H889.936C890.04 165.59 890.562 166.772 891.501 167.642C892.475 168.511 893.797 168.946 895.467 168.946C897.171 168.946 898.51 168.546 899.484 167.746C900.458 166.911 900.945 165.833 900.945 164.511C900.945 163.433 900.615 162.546 899.954 161.85C899.293 161.155 898.458 160.616 897.449 160.233C896.475 159.816 895.119 159.363 893.38 158.877C891.014 158.181 889.084 157.503 887.588 156.842C886.127 156.146 884.858 155.12 883.78 153.763C882.736 152.372 882.214 150.529 882.214 148.233C882.214 146.076 882.753 144.198 883.832 142.598C884.91 140.998 886.423 139.781 888.371 138.946C890.319 138.076 892.545 137.641 895.049 137.641C898.806 137.641 901.849 138.563 904.18 140.407C906.545 142.215 907.849 144.755 908.093 148.024H900.058C899.988 146.772 899.449 145.746 898.441 144.946C897.467 144.111 896.162 143.694 894.528 143.694C893.101 143.694 891.954 144.059 891.084 144.789C890.249 145.52 889.832 146.581 889.832 147.972C889.832 148.946 890.145 149.763 890.771 150.424C891.432 151.05 892.232 151.572 893.171 151.989C894.145 152.372 895.501 152.824 897.241 153.346C899.606 154.042 901.536 154.737 903.032 155.433C904.528 156.129 905.815 157.172 906.893 158.563C907.971 159.955 908.51 161.781 908.51 164.042C908.51 165.99 908.006 167.798 906.997 169.468C905.989 171.138 904.51 172.477 902.562 173.485C900.615 174.459 898.301 174.946 895.623 174.946ZM923.347 151.676V165.659C923.347 166.633 923.574 167.346 924.026 167.798C924.513 168.216 925.313 168.424 926.426 168.424H929.817V174.581H925.226C919.069 174.581 915.991 171.59 915.991 165.607V151.676H912.547V145.676H915.991V138.528H923.347V145.676H929.817V151.676H923.347ZM933.193 160.024C933.193 157.103 933.766 154.511 934.914 152.25C936.097 149.989 937.68 148.25 939.662 147.033C941.68 145.815 943.923 145.207 946.393 145.207C948.549 145.207 950.428 145.642 952.028 146.511C953.662 147.381 954.967 148.476 955.941 149.798V145.676H963.297V174.581H955.941V170.355C955.001 171.711 953.697 172.842 952.028 173.746C950.393 174.616 948.497 175.051 946.341 175.051C943.906 175.051 941.68 174.425 939.662 173.172C937.68 171.92 936.097 170.164 934.914 167.903C933.766 165.607 933.193 162.981 933.193 160.024ZM955.941 160.129C955.941 158.355 955.593 156.842 954.897 155.59C954.201 154.303 953.262 153.329 952.08 152.668C950.897 151.972 949.628 151.624 948.271 151.624C946.914 151.624 945.662 151.955 944.514 152.616C943.367 153.276 942.427 154.25 941.697 155.537C941.001 156.79 940.653 158.285 940.653 160.024C940.653 161.764 941.001 163.294 941.697 164.616C942.427 165.903 943.367 166.894 944.514 167.59C945.697 168.285 946.949 168.633 948.271 168.633C949.628 168.633 950.897 168.303 952.08 167.642C953.262 166.946 954.201 165.972 954.897 164.72C955.593 163.433 955.941 161.903 955.941 160.129ZM968.553 160.129C968.553 157.137 969.162 154.529 970.379 152.303C971.597 150.042 973.283 148.302 975.44 147.085C977.597 145.833 980.066 145.207 982.849 145.207C986.431 145.207 989.388 146.111 991.718 147.92C994.084 149.694 995.666 152.198 996.466 155.433H988.588C988.171 154.181 987.458 153.207 986.449 152.511C985.475 151.781 984.258 151.416 982.797 151.416C980.71 151.416 979.057 152.181 977.84 153.711C976.623 155.207 976.014 157.346 976.014 160.129C976.014 162.877 976.623 165.016 977.84 166.546C979.057 168.042 980.71 168.79 982.797 168.79C985.753 168.79 987.684 167.468 988.588 164.824H996.466C995.666 167.955 994.084 170.442 991.718 172.285C989.353 174.129 986.397 175.051 982.849 175.051C980.066 175.051 977.597 174.442 975.44 173.225C973.283 171.972 971.597 170.233 970.379 168.007C969.162 165.746 968.553 163.12 968.553 160.129ZM1018.93 174.581L1009.12 162.268V174.581H1001.82V135.972H1009.12V157.937L1018.83 145.676H1028.32L1015.59 160.181L1028.43 174.581H1018.93Z" fill="url(#paint5_linear_417_799)"/>
<path d="M697.916 91.2406C697.229 91.8843 697.229 92.9529 697.916 93.6095L702.969 98.3472C703.67 99.0038 704.796 99.0038 705.496 98.3472C706.183 97.7035 706.183 96.6349 705.496 95.9783L700.443 91.2406C699.756 90.5969 698.616 90.5969 697.916 91.2406Z" fill="url(#paint6_linear_417_799)"/>
<path d="M715.095 89.3482C715.796 88.6916 715.796 87.636 715.095 86.9794C714.409 86.3357 713.269 86.3357 712.569 86.9794L705.496 93.6096C704.796 94.2662 704.92 94.1503 704.233 94.794C702.667 96.2617 700.525 96.03 699.825 95.3863L702.97 98.3345C703.656 98.9782 704.796 98.9782 705.496 98.3345L715.095 89.3482Z" fill="url(#paint7_linear_417_799)"/>
<path d="M725.23 87.0184C724.543 86.3747 723.404 86.3747 722.703 87.0184L717.663 91.7562C716.963 92.4127 716.963 93.4684 717.663 94.125C718.35 94.7687 719.49 94.7687 720.19 94.125L725.244 89.3873C725.917 88.7307 725.917 87.6621 725.23 87.0184Z" fill="url(#paint8_linear_417_799)"/>
<path d="M705.538 88.8983C706.224 88.2546 706.224 87.1861 705.538 86.5295L700.484 81.7918C699.784 81.1352 698.658 81.1352 697.957 81.7918C697.271 82.4355 697.271 83.504 697.957 84.1606L703.011 88.8983C703.711 89.5421 704.837 89.5421 705.538 88.8983Z" fill="url(#paint9_linear_417_799)"/>
<path d="M688.358 90.8032C687.658 91.4598 687.658 92.5155 688.358 93.172C689.045 93.8158 690.185 93.8158 690.885 93.172L697.957 86.5289C698.658 85.8723 698.534 85.9882 699.221 85.3445C700.786 83.8768 702.929 84.1086 703.629 84.7523L700.484 81.8041C699.798 81.1604 698.658 81.1604 697.957 81.8041L688.358 90.8032Z" fill="url(#paint10_linear_417_799)"/>
<path d="M678.292 93.1465C678.979 93.7902 680.119 93.7902 680.819 93.1465L685.873 88.4088C686.573 87.7522 686.573 86.6965 685.873 86.0399C685.186 85.3962 684.046 85.3962 683.346 86.0399L678.292 90.7776C677.606 91.4342 677.606 92.4899 678.292 93.1465Z" fill="url(#paint11_linear_417_799)"/>
<path d="M732.291 84.2037H735.641V96.0274H742.717V99H732.291V84.2037ZM744.682 84.2037H748.032V99H744.682V84.2037ZM758.575 90.8587H764.276V97.2697C763.507 97.9352 762.605 98.4528 761.57 98.8225C760.549 99.1775 759.381 99.3549 758.065 99.3549C756.852 99.3549 755.765 99.1701 754.804 98.8003C753.857 98.4158 753.051 97.8834 752.386 97.2031C751.72 96.5229 751.21 95.7095 750.855 94.763C750.515 93.8165 750.345 92.7739 750.345 91.6351C750.345 90.526 750.53 89.4981 750.899 88.5516C751.269 87.6052 751.794 86.7844 752.474 86.0893C753.155 85.3794 753.961 84.8248 754.892 84.4255C755.824 84.0262 756.859 83.8266 757.998 83.8266C759.344 83.8266 760.52 84.078 761.525 84.5808C762.546 85.0689 763.389 85.7565 764.054 86.6439L761.791 88.7957C761.318 88.2337 760.793 87.7752 760.216 87.4203C759.654 87.0654 758.959 86.8879 758.131 86.8879C757.451 86.8879 756.844 87.0136 756.312 87.265C755.78 87.5164 755.329 87.8566 754.959 88.2854C754.589 88.7143 754.308 89.2171 754.116 89.7939C753.924 90.3707 753.828 90.9844 753.828 91.6351C753.828 92.345 753.938 92.9883 754.16 93.5651C754.382 94.1418 754.693 94.6373 755.092 95.0514C755.491 95.4507 755.957 95.7612 756.49 95.9831C757.037 96.2049 757.628 96.3158 758.264 96.3158C758.856 96.3158 759.396 96.2493 759.884 96.1162C760.372 95.9683 760.808 95.739 761.192 95.4285V93.5651H758.575V90.8587ZM766.952 84.2037H770.302V89.8826H776.713V84.2037H780.063V99H776.713V92.9218H770.302V99H766.952V84.2037ZM786.756 87.1541H781.964V84.2037H794.897V87.1541H790.127V99H786.756V87.1541ZM796.805 84.2037H800.154V96.0274H807.231V99H796.805V84.2037ZM809.196 84.2037H812.546V99H809.196V84.2037ZM815.435 84.2037H818.63L825.041 93.8091V84.2037H828.346V99H825.307L818.741 89.2171V99H815.435V84.2037ZM831.228 84.2037H834.578V90.1045L839.524 84.2037H843.406L838.326 89.9714L844.094 99H840.035L836.086 92.5446L834.578 94.2306V99H831.228V84.2037Z" fill="white"/>
<path d="M845.631 95.4728H849.247V99H845.631V95.4728Z" fill="#6A81FF"/>
<g filter="url(#filter2_f_417_799)">
<circle cx="214.5" cy="214.5" r="214.5" transform="matrix(-1 0 0 1 1737 109)" fill="#6A7AFF"/>
</g>
</g>
<defs>
<filter id="filter0_f_417_799" x="27.4628" y="-99.5906" width="1005.16" height="964.991" filterUnits="userSpaceOnUse" color-interpolation-filters="sRGB">
<feFlood flood-opacity="0" result="BackgroundImageFix"/>
<feBlend mode="normal" in="SourceGraphic" in2="BackgroundImageFix" result="shape"/>
<feGaussianBlur stdDeviation="102.601" result="effect1_foregroundBlur_417_799"/>
</filter>
<filter id="filter1_f_417_799" x="-402.73" y="-534.73" width="878.536" height="878.536" filterUnits="userSpaceOnUse" color-interpolation-filters="sRGB">
<feFlood flood-opacity="0" result="BackgroundImageFix"/>
<feBlend mode="normal" in="SourceGraphic" in2="BackgroundImageFix" result="shape"/>
<feGaussianBlur stdDeviation="125.865" result="effect1_foregroundBlur_417_799"/>
</filter>
<filter id="filter2_f_417_799" x="977.687" y="-221.313" width="1089.63" height="1089.63" filterUnits="userSpaceOnUse" color-interpolation-filters="sRGB">
<feFlood flood-opacity="0" result="BackgroundImageFix"/>
<feBlend mode="normal" in="SourceGraphic" in2="BackgroundImageFix" result="shape"/>
<feGaussianBlur stdDeviation="165.157" result="effect1_foregroundBlur_417_799"/>
</filter>
<linearGradient id="paint0_linear_417_799" x1="1399.06" y1="111.964" x2="1533.29" y2="-59.0111" gradientUnits="userSpaceOnUse">
<stop offset="0.1173" stop-color="#6978FF"/>
<stop offset="0.1876" stop-color="#6087FF"/>
<stop offset="0.3484" stop-color="#4DA5FF"/>
<stop offset="0.5073" stop-color="#40BAFF"/>
<stop offset="0.6622" stop-color="#39C7FF"/>
<stop offset="0.8083" stop-color="#36CBFF"/>
<stop offset="1" stop-color="#67FFFC"/>
</linearGradient>
<linearGradient id="paint1_linear_417_799" x1="2149.61" y1="475.781" x2="1359.79" y2="125.381" gradientUnits="userSpaceOnUse">
<stop offset="0.497995" stop-color="#6978FF"/>
<stop offset="0.528171" stop-color="#6087FF"/>
<stop offset="0.580146" stop-color="#4DA5FF"/>
<stop offset="0.642549" stop-color="#40BAFF"/>
<stop offset="0.765115" stop-color="#39C7FF"/>
<stop offset="0.860122" stop-color="#36CBFF"/>
<stop offset="1" stop-color="#67FFFC"/>
</linearGradient>
<linearGradient id="paint2_linear_417_799" x1="-209.878" y1="-78.0567" x2="437.998" y2="767.623" gradientUnits="userSpaceOnUse">
<stop offset="0.497995" stop-color="#6978FF"/>
<stop offset="0.528171" stop-color="#6087FF"/>
<stop offset="0.580146" stop-color="#4DA5FF"/>
<stop offset="0.642549" stop-color="#40BAFF"/>
<stop offset="0.765115" stop-color="#39C7FF"/>
<stop offset="0.860122" stop-color="#36CBFF"/>
<stop offset="1" stop-color="#67FFFC"/>
</linearGradient>
<linearGradient id="paint3_linear_417_799" x1="-179.839" y1="-89.8419" x2="219.074" y2="179.716" gradientUnits="userSpaceOnUse">
<stop offset="0.1173" stop-color="#6978FF"/>
<stop offset="0.1876" stop-color="#6087FF"/>
<stop offset="0.3484" stop-color="#4DA5FF"/>
<stop offset="0.5073" stop-color="#40BAFF"/>
<stop offset="0.6622" stop-color="#39C7FF"/>
<stop offset="0.8083" stop-color="#36CBFF"/>
<stop offset="1" stop-color="#67FFFC"/>
</linearGradient>
<linearGradient id="paint4_linear_417_799" x1="380.328" y1="-243.309" x2="-591.154" y2="836.068" gradientUnits="userSpaceOnUse">
<stop offset="0.386" stop-color="#6978FF"/>
<stop offset="0.4432" stop-color="#6284FF"/>
<stop offset="0.6461" stop-color="#4AABFF"/>
<stop offset="0.8086" stop-color="#3BC2FF"/>
<stop offset="0.9094" stop-color="#36CBFF"/>
<stop offset="1" stop-color="#67FFFC"/>
</linearGradient>
<linearGradient id="paint5_linear_417_799" x1="1003.8" y1="135.191" x2="556" y2="135.191" gradientUnits="userSpaceOnUse">
<stop stop-color="#5C8FFF"/>
<stop offset="1" stop-color="#68FFFC"/>
</linearGradient>
<linearGradient id="paint6_linear_417_799" x1="693.164" y1="86.8806" x2="705.455" y2="99.8351" gradientUnits="userSpaceOnUse">
<stop offset="0.1173" stop-color="#6978FF"/>
<stop offset="0.1876" stop-color="#6087FF"/>
<stop offset="0.3484" stop-color="#4DA5FF"/>
<stop offset="0.5073" stop-color="#40BAFF"/>
<stop offset="0.6622" stop-color="#39C7FF"/>
<stop offset="0.8083" stop-color="#36CBFF"/>
<stop offset="1" stop-color="#67FFFC"/>
</linearGradient>
<linearGradient id="paint7_linear_417_799" x1="690.352" y1="108.859" x2="726.694" y2="69.0111" gradientUnits="userSpaceOnUse">
<stop offset="0.386" stop-color="#6978FF"/>
<stop offset="0.4432" stop-color="#6284FF"/>
<stop offset="0.6461" stop-color="#4AABFF"/>
<stop offset="0.8086" stop-color="#3BC2FF"/>
<stop offset="0.9094" stop-color="#36CBFF"/>
<stop offset="1" stop-color="#67FFFC"/>
</linearGradient>
<linearGradient id="paint8_linear_417_799" x1="724.306" y1="88.0706" x2="695.808" y2="116.291" gradientUnits="userSpaceOnUse">
<stop offset="0.0470588" stop-color="#6978FF"/>
<stop offset="0.1245" stop-color="#6087FF"/>
<stop offset="0.3016" stop-color="#4DA5FF"/>
<stop offset="0.4767" stop-color="#40BAFF"/>
<stop offset="0.6473" stop-color="#39C7FF"/>
<stop offset="0.8083" stop-color="#36CBFF"/>
<stop offset="1" stop-color="#67FFFC"/>
</linearGradient>
<linearGradient id="paint9_linear_417_799" x1="699.779" y1="82.8864" x2="704.041" y2="88.948" gradientUnits="userSpaceOnUse">
<stop offset="0.1173" stop-color="#6978FF"/>
<stop offset="0.1876" stop-color="#6087FF"/>
<stop offset="0.3484" stop-color="#4DA5FF"/>
<stop offset="0.5073" stop-color="#40BAFF"/>
<stop offset="0.6622" stop-color="#39C7FF"/>
<stop offset="0.8083" stop-color="#36CBFF"/>
<stop offset="1" stop-color="#67FFFC"/>
</linearGradient>
<linearGradient id="paint10_linear_417_799" x1="682.329" y1="102.844" x2="699.418" y2="81.399" gradientUnits="userSpaceOnUse">
<stop offset="0.3128" stop-color="#6978FF"/>
<stop offset="0.3633" stop-color="#6087FF"/>
<stop offset="0.4785" stop-color="#4DA5FF"/>
<stop offset="0.5925" stop-color="#40BAFF"/>
<stop offset="0.7035" stop-color="#39C7FF"/>
<stop offset="0.8083" stop-color="#36CBFF"/>
<stop offset="1" stop-color="#67FFFC"/>
</linearGradient>
<linearGradient id="paint11_linear_417_799" x1="700.229" y1="70.0936" x2="681.883" y2="92.5266" gradientUnits="userSpaceOnUse">
<stop offset="0.00761283" stop-color="#6978FF"/>
<stop offset="0.0891092" stop-color="#6087FF"/>
<stop offset="0.2754" stop-color="#4DA5FF"/>
<stop offset="0.4596" stop-color="#40BAFF"/>
<stop offset="0.639" stop-color="#39C7FF"/>
<stop offset="0.8083" stop-color="#36CBFF"/>
<stop offset="1" stop-color="#67FFFC"/>
</linearGradient>
<clipPath id="clip0_417_799">
<rect width="1584" height="268.213" fill="white"/>
</clipPath>
</defs>
</svg>
